STARTFONT 2.1
FONT -JDECW-Mincho-Medium-R-Normal--34-240-100-100-M-340-JISX0208.1983-1
SIZE 24 100 100
FONTBOUNDINGBOX 34 34 0 -6

STARTPROPERTIES 26
FONTNAME_REGISTRY ""
FAMILY_NAME "Mincho"
FOUNDRY "JDECW"
WEIGHT_NAME "Medium"
SLANT "R"
SETWIDTH_NAME "Normal"
ADD_STYLE_NAME ""
PIXEL_SIZE 34
POINT_SIZE 240
RESOLUTION_X 100
RESOLUTION_Y 100
SPACING "M"
AVERAGE_WIDTH 340
CHARSET_REGISTRY "JISX0208.1983"
CHARSET_ENCODING "1"
DEVICE_FONT_NAME "Mincho-JISX0208.1983-1"
CHARSET_COLLECTIONS "JISX0208.1983 1"
FULL_NAME "Mincho-JISX0208.1983-1"
COPYRIGHT "Copyright (c) 1990 1991 TYPEBANK, Digital Equipment Corporation Japan"
CAP_HEIGHT 23
X_HEIGHT 16
WEIGHT 10
QUAD_WIDTH 34
DEFAULT_CHAR 41634
FONT_DESCENT 6
FONT_ASCENT 28
ENDPROPERTIES

CHARS 6970

STARTCHAR Ca1a1
ENCODING 41377
SWIDTH 1000 0
DWIDTH 34 0
BBX 34 34 0 -6
BITMAP
0000000000
0000000000
0000000000
0000000000
0000000000
0000000000
0000000000
0000000000
0000000000
0000000000
0000000000
0000000000
0000000000
0000000000
0000000000
0000000000
0000000000
0000000000
0000000000
0000000000
0000000000
0000000000
0000000000
0000000000
0000000000
0000000000
0000000000
0000000000
0000000000
0000000000
0000000000
0000000000
0000000000
0000000000
ENDCHAR

STARTCHAR Ca1a2
ENCODING 41378
SWIDTH 1000 0
DWIDTH 34 0
BBX 34 34 0 -6
BITMAP
0000000000
0000000000
0000000000
0000000000
0000000000
0000000000
0000000000
0000000000
0000000000
0000000000
0000000000
0000000000
0000000000
0000000000
0000000000
0000000000
0000000000
0000000000
0000000000
0000000000
0000000000
0000000000
0000000000
0000000000
0000000000
0000000000
1800000000
0E00000000
0700000000
0780000000
0380000000
0380000000
0000000000
0000000000
ENDCHAR

STARTCHAR Ca1a3
ENCODING 41379
SWIDTH 1000 0
DWIDTH 34 0
BBX 34 34 0 -6
BITMAP
0000000000
0000000000
0000000000
0000000000
0000000000
0000000000
0000000000
0000000000
0000000000
0000000000
0000000000
0000000000
0000000000
0000000000
0000000000
0000000000
0000000000
0000000000
0000000000
0000000000
0000000000
0000000000
0000000000
0000000000
0000000000
0000000000
0F80000000
1080000000
10C0000000
10C0000000
1080000000
0F80000000
0200000000
0000000000
ENDCHAR

STARTCHAR Ca1a4
ENCODING 41380
SWIDTH 1000 0
DWIDTH 34 0
BBX 34 34 0 -6
BITMAP
0000000000
0000000000
0000000000
0000000000
0000000000
0000000000
0000000000
0000000000
0000000000
0000000000
0000000000
0000000000
0000000000
0000000000
0000000000
0000000000
0000000000
0000000000
0000000000
0000000000
0000000000
0000000000
0000000000
0000000000
0000000000
0780000000
0780000000
07C0000000
07C0000000
0180000000
0180000000
0300000000
0200000000
0400000000
ENDCHAR

STARTCHAR Ca1a5
ENCODING 41381
SWIDTH 1000 0
DWIDTH 34 0
BBX 34 34 0 -6
BITMAP
0000000000
0000000000
0000000000
0000000000
0000000000
0000000000
0000000000
0000000000
0000000000
0000000000
0000000000
0000000000
0000000000
0000000000
0000000000
0000000000
0000000000
0000000000
0000000000
0000000000
0000000000
0000000000
0000000000
0000000000
0000000000
0000000000
0300000000
0780000000
0FC0000000
0F80000000
0780000000
0000000000
0000000000
0000000000
ENDCHAR

STARTCHAR Ca1a6
ENCODING 41382
SWIDTH 1000 0
DWIDTH 34 0
BBX 34 34 0 -6
BITMAP
0000000000
0000000000
0000000000
0000000000
0000000000
0000000000
0000000000
0000000000
0000000000
0000000000
0000000000
0000000000
0000000000
0000000000
0000000000
0000E00000
0001F00000
0001F00000
0001F00000
0000E00000
0000000000
0000000000
0000000000
0000000000
0000000000
0000000000
0000000000
0000000000
0000000000
0000000000
0000000000
0000000000
0000000000
0000000000
ENDCHAR

STARTCHAR Ca1a7
ENCODING 41383
SWIDTH 1000 0
DWIDTH 34 0
BBX 34 34 0 -6
BITMAP
0000000000
0000000000
0000000000
0000000000
0000000000
0000000000
0000000000
0000000000
0000000000
0000000000
0000000000
0000000000
0000E00000
0001F00000
0001F00000
0000E00000
0000000000
0000000000
0000000000
0000000000
0000000000
0000000000
0000000000
0000000000
0000E00000
0001F00000
0001F00000
0000E00000
0000000000
0000000000
0000000000
0000000000
0000000000
0000000000
ENDCHAR

STARTCHAR Ca1a8
ENCODING 41384
SWIDTH 1000 0
DWIDTH 34 0
BBX 34 34 0 -6
BITMAP
0000000000
0000000000
0000000000
0000000000
0000000000
0000000000
0000000000
0000000000
0000000000
0000000000
0000000000
0000000000
0000E00000
0001F00000
0001F00000
0000E00000
0000000000
0000000000
0000000000
0000000000
0000000000
0000000000
0000000000
0000000000
0000E00000
0001F00000
0001F00000
0000F00000
0000600000
0000600000
0000400000
0000800000
0001000000
0000000000
ENDCHAR

STARTCHAR Ca1a9
ENCODING 41385
SWIDTH 1000 0
DWIDTH 34 0
BBX 34 34 0 -6
BITMAP
0000000000
0000000000
0000000000
0000400000
0007FC0000
00180F0000
0030078000
0020038000
006803C000
007C03C000
007C03C000
003C03C000
0000038000
0000070000
00000E0000
00001C0000
0000180000
0000300000
0000200000
0000600000
0000400000
0000400000
0000400000
0000400000
0000000000
0000000000
0000000000
0000E00000
0001F00000
0001F00000
0000E00000
0000000000
0000000000
0000000000
ENDCHAR

STARTCHAR Ca1aa
ENCODING 41386
SWIDTH 1000 0
DWIDTH 34 0
BBX 34 34 0 -6
BITMAP
0000000000
0000000000
0000000000
0000400000
0000E00000
0000E00000
0000E00000
0000E00000
0000E00000
0000E00000
0000E00000
0000E00000
0000E00000
0000E00000
0000E00000
0000E00000
0000E00000
0000E00000
0000400000
0000400000
0000400000
0000400000
0000400000
0000400000
0000000000
0000000000
0000000000
0000E00000
0001F00000
0001F00000
0000E00000
0000000000
0000000000
0000000000
ENDCHAR

STARTCHAR Ca1ab
ENCODING 41387
SWIDTH 1000 0
DWIDTH 34 0
BBX 34 34 0 -6
BITMAP
0000000000
0000000000
0000000000
0300000000
01C0000000
18C0000000
0CE0000000
0E60000000
0600000000
0600000000
0000000000
0000000000
0000000000
0000000000
0000000000
0000000000
0000000000
0000000000
0000000000
0000000000
0000000000
0000000000
0000000000
0000000000
0000000000
0000000000
0000000000
0000000000
0000000000
0000000000
0000000000
0000000000
0000000000
0000000000
ENDCHAR

STARTCHAR Ca1ac
ENCODING 41388
SWIDTH 1000 0
DWIDTH 34 0
BBX 34 34 0 -6
BITMAP
0000000000
0000000000
0000000000
0F00000000
1080000000
3080000000
3080000000
1080000000
1F00000000
0000000000
0000000000
0000000000
0000000000
0000000000
0000000000
0000000000
0000000000
0000000000
0000000000
0000000000
0000000000
0000000000
0000000000
0000000000
0000000000
0000000000
0000000000
0000000000
0000000000
0000000000
0000000000
0000000000
0000000000
0000000000
ENDCHAR

STARTCHAR Ca1ad
ENCODING 41389
SWIDTH 1000 0
DWIDTH 34 0
BBX 34 34 0 -6
BITMAP
0000000000
0000080000
0003FC0000
0000000000
0000000000
0000000000
0000000000
0000000000
0000000000
0000000000
0000000000
0000000000
0000000000
0000000000
0000000000
0000000000
0000000000
0000000000
0000000000
0000000000
0000000000
0000000000
0000000000
0000000000
0000000000
0000000000
0000000000
0000000000
0000000000
0000000000
0000000000
0000000000
0000000000
0000000000
ENDCHAR

STARTCHAR Ca1ae
ENCODING 41390
SWIDTH 1000 0
DWIDTH 34 0
BBX 34 34 0 -6
BITMAP
0000000000
0002000000
0007F80000
0000000000
0000000000
0000000000
0000000000
0000000000
0000000000
0000000000
0000000000
0000000000
0000000000
0000000000
0000000000
0000000000
0000000000
0000000000
0000000000
0000000000
0000000000
0000000000
0000000000
0000000000
0000000000
0000000000
0000000000
0000000000
0000000000
0000000000
0000000000
0000000000
0000000000
0000000000
ENDCHAR

STARTCHAR Ca1af
ENCODING 41391
SWIDTH 1000 0
DWIDTH 34 0
BBX 34 34 0 -6
BITMAP
0000000000
000E0E0000
000E0E0000
000E0E0000
0004040000
0000000000
0000000000
0000000000
0000000000
0000000000
0000000000
0000000000
0000000000
0000000000
0000000000
0000000000
0000000000
0000000000
0000000000
0000000000
0000000000
0000000000
0000000000
0000000000
0000000000
0000000000
0000000000
0000000000
0000000000
0000000000
0000000000
0000000000
0000000000
0000000000
ENDCHAR

STARTCHAR Ca1b0
ENCODING 41392
SWIDTH 1000 0
DWIDTH 34 0
BBX 34 34 0 -6
BITMAP
0000000000
0000400000
0000E00000
0003180000
00060C0000
0000000000
0000000000
0000000000
0000000000
0000000000
0000000000
0000000000
0000000000
0000000000
0000000000
0000000000
0000000000
0000000000
0000000000
0000000000
0000000000
0000000000
0000000000
0000000000
0000000000
0000000000
0000000000
0000000000
0000000000
0000000000
0000000000
0000000000
0000000000
0000000000
ENDCHAR

STARTCHAR Ca1b1
ENCODING 41393
SWIDTH 1000 0
DWIDTH 34 0
BBX 34 34 0 -6
BITMAP
0000000000
7FFFFFFF40
0000000000
0000000000
0000000000
0000000000
0000000000
0000000000
0000000000
0000000000
0000000000
0000000000
0000000000
0000000000
0000000000
0000000000
0000000000
0000000000
0000000000
0000000000
0000000000
0000000000
0000000000
0000000000
0000000000
0000000000
0000000000
0000000000
0000000000
0000000000
0000000000
0000000000
0000000000
0000000000
ENDCHAR

STARTCHAR Ca1b2
ENCODING 41394
SWIDTH 1000 0
DWIDTH 34 0
BBX 34 34 0 -6
BITMAP
0000000000
0000000000
0000000000
0000000000
0000000000
0000000000
0000000000
0000000000
0000000000
0000000000
0000000000
0000000000
0000000000
0000000000
0000000000
0000000000
0000000000
0000000000
0000000000
0000000000
0000000000
0000000000
0000000000
0000000000
0000000000
0000000000
0000000000
0000000000
0000000000
0000000000
0000000000
0000000000
0000000000
7FFFFFFF40
ENDCHAR

STARTCHAR Ca1b3
ENCODING 41395
SWIDTH 1000 0
DWIDTH 34 0
BBX 34 34 0 -6
BITMAP
0000000000
0000000000
0000000000
0000000000
0000000000
0000000000
0000000000
0000000000
0000000000
0030000000
0018000000
0006000000
0003000000
0001800000
0000E00000
0000F00000
0000700000
0000380000
00001C0000
00001E0000
00000E0000
00000F0000
0000070000
0000070000
0000070000
0000020000
0000000000
0000000000
0000000000
0000000000
0000000000
0000000000
0000000000
0000000000
ENDCHAR

STARTCHAR Ca1b4
ENCODING 41396
SWIDTH 1000 0
DWIDTH 34 0
BBX 34 34 0 -6
BITMAP
0000000000
0000000000
0000000000
0000000000
0000000000
0000010000
000000C000
0000087000
0000063000
0030033000
0018038000
0006018000
0003000000
0001800000
0000E00000
0000F00000
0000700000
0000380000
00001C0000
00001E0000
00000E0000
00000F0000
0000070000
0000070000
0000070000
0000020000
0000000000
0000000000
0000000000
0000000000
0000000000
0000000000
0000000000
0000000000
ENDCHAR

STARTCHAR Ca1b5
ENCODING 41397
SWIDTH 1000 0
DWIDTH 34 0
BBX 34 34 0 -6
BITMAP
0000000000
0000000000
0000000000
0000000000
0000000000
0000000000
0000000000
0000000000
0008000000
0008000000
000C000000
000C000000
0006000000
0007000000
0003800000
0001C00000
0001E00000
0000F00000
0000780000
00003C0000
00001C0000
00003C0000
00007C0000
00006C0000
0000800000
0001000000
0000000000
0000000000
0000000000
0000000000
0000000000
0000000000
0000000000
0000000000
ENDCHAR

STARTCHAR Ca1b6
ENCODING 41398
SWIDTH 1000 0
DWIDTH 34 0
BBX 34 34 0 -6
BITMAP
0000000000
0000000000
0000000000
0000000000
0000000000
0000000000
0000030000
000001C000
000818E000
00080C6000
000C076000
000C070000
0006030000
0007000000
0003800000
0001C00000
0001E00000
0000F00000
0000780000
00003C0000
00001C0000
00003C0000
00007C0000
00006C0000
0000800000
0001000000
0000000000
0000000000
0000000000
0000000000
0000000000
0000000000
0000000000
0000000000
ENDCHAR

STARTCHAR Ca1b7
ENCODING 41399
SWIDTH 1000 0
DWIDTH 34 0
BBX 34 34 0 -6
BITMAP
0000000000
0000000000
0000000000
0000000000
0000000000
0000000000
0000000000
0000000000
0000400000
0003C70000
0003870000
00038E0000
00030E0000
00070E0000
00071C0000
00061C0000
000E180000
000C180000
000C300000
0018300000
0018600000
0030600000
0020400000
0060800000
0000000000
0000000000
0000000000
0000000000
0000000000
0000000000
0000000000
0000000000
0000000000
0000000000
ENDCHAR

STARTCHAR Ca1b8
ENCODING 41400
SWIDTH 1000 0
DWIDTH 34 0
BBX 34 34 0 -6
BITMAP
0000000000
0000000000
0000800000
0001E00000
0001C00000
0003A00000
0003B00000
0007180000
000E0C0000
001C0E0000
001C070000
0038038000
007001E000
00E000F000
0180007C00
0300007F00
060000CF00
39FFFFE600
3000E00000
0000E00000
0000E00000
0000E00000
0000E00000
0000E00000
0000E00000
0000E00000
0000E00000
0000E00800
0000E00C00
1000E01F00
0FFFFFFE00
0000000000
0000000000
0000000000
ENDCHAR

STARTCHAR Ca1b9
ENCODING 41401
SWIDTH 1000 0
DWIDTH 34 0
BBX 34 34 0 -6
BITMAP
0000000000
0000000000
0000000000
0000000000
0000000000
0002000000
0001800000
0001C00000
0001C00000
0003800000
0003800000
000700C000
0007FFE000
000E01E000
001C038000
0018030000
0030060000
00600C0000
00C80C0000
0187180000
0601F00000
0000F00000
00003C0000
00001E0000
00000E0000
0000040000
0000000000
0000000000
0000000000
0000000000
0000000000
0000000000
0000000000
0000000000
ENDCHAR

STARTCHAR Ca1ba
ENCODING 41402
SWIDTH 1000 0
DWIDTH 34 0
BBX 34 34 0 -6
BITMAP
0000000000
0000000000
0000000000
0000000000
0000000000
0000008000
0000007000
0000007800
000000F000
000001C000
0000038000
0000070000
00000E0000
000F8C0000
0018D80000
0030700000
0020700000
0060F80000
00619C0000
00439C0000
00430E0000
00C60E0000
008C060000
009C000000
00B8000000
01B0000000
01F0000000
01E0000000
03C0000000
01C0000000
0080000000
0000000000
0000000000
0000000000
ENDCHAR

STARTCHAR Ca1bb
ENCODING 41403
SWIDTH 1000 0
DWIDTH 34 0
BBX 34 34 0 -6
BITMAP
0000000000
0000000000
0000000000
0000000000
0001F00000
000E0E0000
0030018000
006000C000
0080002000
0100001000
0300001800
0200000800
0400000400
0400000400
0C00000600
0C00000600
0800000200
0800000200
0800000200
0C00000600
0C00000600
0400000400
0400000400
0200000800
0300001800
0100001000
0080002000
006000C000
0030018000
000E0E0000
0001F00000
0000000000
0000000000
0000000000
ENDCHAR

STARTCHAR Ca1bc
ENCODING 41404
SWIDTH 1000 0
DWIDTH 34 0
BBX 34 34 0 -6
BITMAP
0000000000
0000000000
0000000000
0000000000
0000000000
0000000000
0000000000
0000000000
0000000000
0000000000
0000000000
0000000000
0000000000
0000000000
0000000000
0C00007E00
0FFFFFFF00
07FFFFFE00
03C0000000
0000000000
0000000000
0000000000
0000000000
0000000000
0000000000
0000000000
0000000000
0000000000
0000000000
0000000000
0000000000
0000000000
0000000000
0000000000
ENDCHAR

STARTCHAR Ca1bd
ENCODING 41405
SWIDTH 1000 0
DWIDTH 34 0
BBX 34 34 0 -6
BITMAP
0000000000
0000000000
0000000000
0000000000
0000000000
0000000000
0000000000
0000000000
0000000000
0000000000
0000000000
0000000000
0000000000
0000000000
0000000000
0000000000
0000000000
1FFFFFFF00
0000000000
0000000000
0000000000
0000000000
0000000000
0000000000
0000000000
0000000000
0000000000
0000000000
0000000000
0000000000
0000000000
0000000000
0000000000
0000000000
ENDCHAR

STARTCHAR Ca1be
ENCODING 41406
SWIDTH 1000 0
DWIDTH 34 0
BBX 34 34 0 -6
BITMAP
0000000000
0000000000
0000000000
0000000000
0000000000
0000000000
0000000000
0000000000
0000000000
0000000000
0000000000
0000000000
0000000000
0000000000
0000000000
0000000000
0000000000
000FFE0000
0000000000
0000000000
0000000000
0000000000
0000000000
0000000000
0000000000
0000000000
0000000000
0000000000
0000000000
0000000000
0000000000
0000000000
0000000000
0000000000
ENDCHAR

STARTCHAR Ca1bf
ENCODING 41407
SWIDTH 1000 0
DWIDTH 34 0
BBX 34 34 0 -6
BITMAP
0000000000
0000000000
0000000000
0000000300
0000000700
0000000E00
0000001C00
0000003800
0000007000
000000E000
000001C000
0000038000
0000070000
00000E0000
00001C0000
0000380000
0000700000
0000E00000
0001C00000
0003800000
0007000000
000E000000
001C000000
0038000000
0070000000
00E0000000
01C0000000
0380000000
0700000000
0E00000000
1C00000000
1800000000
0000000000
0000000000
ENDCHAR

STARTCHAR Ca1c0
ENCODING 41408
SWIDTH 1000 0
DWIDTH 34 0
BBX 34 34 0 -6
BITMAP
0000000000
0000000000
0000000000
1800000000
1C00000000
0E00000000
0700000000
0380000000
01C0000000
00E0000000
0070000000
0038000000
001C000000
000E000000
0007000000
0003800000
0001C00000
0000E00000
0000700000
0000380000
00001C0000
00000E0000
0000070000
0000038000
000001C000
000000E000
0000007000
0000003800
0000001C00
0000000E00
0000000700
0000000300
0000000000
0000000000
ENDCHAR

STARTCHAR Ca1c1
ENCODING 41409
SWIDTH 1000 0
DWIDTH 34 0
BBX 34 34 0 -6
BITMAP
0000000000
0000000000
0000000000
0000000000
0000000000
0000000000
0000000000
0000000000
0000000000
0000000000
0000000000
0000000000
0000000000
0000000000
00FE000000
01FF800200
0303C00600
0600F00C00
0C00781800
08001FF000
00000FE000
0000000000
0000000000
0000000000
0000000000
0000000000
0000000000
0000000000
0000000000
0000000000
0000000000
0000000000
0000000000
0000000000
ENDCHAR

STARTCHAR Ca1c2
ENCODING 41410
SWIDTH 1000 0
DWIDTH 34 0
BBX 34 34 0 -6
BITMAP
0000000000
0003180000
0003180000
0003180000
0003180000
0003180000
0003180000
0003180000
0003180000
0003180000
0003180000
0003180000
0003180000
0003180000
0003180000
0003180000
0003180000
0003180000
0003180000
0003180000
0003180000
0003180000
0003180000
0003180000
0003180000
0003180000
0003180000
0003180000
0003180000
0003180000
0003180000
0003180000
0003180000
0003180000
ENDCHAR

STARTCHAR Ca1c3
ENCODING 41411
SWIDTH 1000 0
DWIDTH 34 0
BBX 34 34 0 -6
BITMAP
0000000000
0000400000
0000400000
0000400000
0000400000
0000400000
0000400000
0000400000
0000400000
0000400000
0000400000
0000400000
0000400000
0000400000
0000400000
0000400000
0000400000
0000400000
0000400000
0000400000
0000400000
0000400000
0000400000
0000400000
0000400000
0000400000
0000400000
0000400000
0000400000
0000400000
0000400000
0000400000
0000400000
0000400000
ENDCHAR

STARTCHAR Ca1c4
ENCODING 41412
SWIDTH 1000 0
DWIDTH 34 0
BBX 34 34 0 -6
BITMAP
0000000000
0000000000
0000000000
0000000000
0000000000
0000000000
0000000000
0000000000
0000000000
0000000000
0000000000
0000000000
0000000000
0000000000
0000000000
0200400800
0F00E01E00
0F81F03E00
0F00E01E00
0200400800
0000000000
0000000000
0000000000
0000000000
0000000000
0000000000
0000000000
0000000000
0000000000
0000000000
0000000000
0000000000
0000000000
0000000000
ENDCHAR

STARTCHAR Ca1c5
ENCODING 41413
SWIDTH 1000 0
DWIDTH 34 0
BBX 34 34 0 -6
BITMAP
0000000000
0000000000
0000000000
0000000000
0000000000
0000000000
0000000000
0000000000
0000000000
0000000000
0000000000
0000000000
0000000000
0000000000
0000000000
00C0006000
01E000F000
01F001F000
01E000F000
00C0006000
0000000000
0000000000
0000000000
0000000000
0000000000
0000000000
0000000000
0000000000
0000000000
0000000000
0000000000
0000000000
0000000000
0000000000
ENDCHAR

STARTCHAR Ca1c6
ENCODING 41414
SWIDTH 1000 0
DWIDTH 34 0
BBX 34 34 0 -6
BITMAP
0000000000
0000000000
0000000000
0000000300
0000000600
0000000400
0000000C00
0000000C00
0000001E00
0000001F00
0000001E00
0000000400
0000000000
0000000000
0000000000
0000000000
0000000000
0000000000
0000000000
0000000000
0000000000
0000000000
0000000000
0000000000
0000000000
0000000000
0000000000
0000000000
0000000000
0000000000
0000000000
0000000000
0000000000
0000000000
ENDCHAR

STARTCHAR Ca1c7
ENCODING 41415
SWIDTH 1000 0
DWIDTH 34 0
BBX 34 34 0 -6
BITMAP
0000000000
0000000000
0000000000
0E00000000
1F00000000
1F00000000
0F00000000
0600000000
0600000000
0C00000000
1800000000
1000000000
0000000000
0000000000
0000000000
0000000000
0000000000
0000000000
0000000000
0000000000
0000000000
0000000000
0000000000
0000000000
0000000000
0000000000
0000000000
0000000000
0000000000
0000000000
0000000000
0000000000
0000000000
0000000000
ENDCHAR

STARTCHAR Ca1c8
ENCODING 41416
SWIDTH 1000 0
DWIDTH 34 0
BBX 34 34 0 -6
BITMAP
0000000000
0000000000
0000004000
000000C100
0000018300
0000030600
0000030600
0000070F40
0000078F00
000007CF00
0000078F00
0000030600
0000000000
0000000000
0000000000
0000000000
0000000000
0000000000
0000000000
0000000000
0000000000
0000000000
0000000000
0000000000
0000000000
0000000000
0000000000
0000000000
0000000000
0000000000
0000000000
0000000000
0000000000
0000000000
ENDCHAR

STARTCHAR Ca1c9
ENCODING 41417
SWIDTH 1000 0
DWIDTH 34 0
BBX 34 34 0 -6
BITMAP
0000000000
0000000000
0000000000
1E38000000
1E7C000000
1E7C000000
1E3C000000
0618000000
0C18000000
0830000000
3060000000
1040000000
0000000000
0000000000
0000000000
0000000000
0000000000
0000000000
0000000000
0000000000
0000000000
0000000000
0000000000
0000000000
0000000000
0000000000
0000000000
0000000000
0000000000
0000000000
0000000000
0000000000
0000000000
0000000000
ENDCHAR

STARTCHAR Ca1ca
ENCODING 41418
SWIDTH 1000 0
DWIDTH 34 0
BBX 34 34 0 -6
BITMAP
0000000000
0000000000
0000000100
0000000600
0000000C00
0000001800
0000003000
0000006000
0000006000
000000C000
000000C000
000001C000
0000018000
0000018000
0000018000
0000018000
0000018000
0000018000
0000018000
0000018000
0000018000
0000018000
0000018000
000001C000
000000C000
000000C000
0000006000
0000006000
0000003000
0000001800
0000000C00
0000000700
0000000000
0000000000
ENDCHAR

STARTCHAR Ca1cb
ENCODING 41419
SWIDTH 1000 0
DWIDTH 34 0
BBX 34 34 0 -6
BITMAP
0000000000
0000000000
1000000000
0C00000000
0600000000
0300000000
0180000000
00C0000000
00C0000000
0060000000
0060000000
0070000000
0030000000
0030000000
0030000000
0030000000
0030000000
0030000000
0030000000
0030000000
0030000000
0030000000
0030000000
0070000000
0060000000
0060000000
00C0000000
00C0000000
0180000000
0300000000
0600000000
1C00000000
0000000000
0000000000
ENDCHAR

STARTCHAR Ca1cc
ENCODING 41420
SWIDTH 1000 0
DWIDTH 34 0
BBX 34 34 0 -6
BITMAP
0000000000
0000000000
0000000100
0000000700
0000001E00
0000003800
0000006000
0000006000
0000006000
0000006000
0000006000
0000006000
0000006000
0000006000
0000006000
0000006000
0000006000
0000006000
0000006000
0000006000
0000006000
0000006000
0000006000
0000006000
0000006000
0000006000
0000006000
0000006000
0000006000
0000003800
0000001E00
0000000700
0000000100
0000000000
ENDCHAR

STARTCHAR Ca1cd
ENCODING 41421
SWIDTH 1000 0
DWIDTH 34 0
BBX 34 34 0 -6
BITMAP
0000000000
0000000000
1000000000
1C00000000
0F00000000
0380000000
00C0000000
00C0000000
00C0000000
00C0000000
00C0000000
00C0000000
00C0000000
00C0000000
00C0000000
00C0000000
00C0000000
00C0000000
00C0000000
00C0000000
00C0000000
00C0000000
00C0000000
00C0000000
00C0000000
00C0000000
00C0000000
00C0000000
00C0000000
0380000000
0F00000000
1C00000000
1000000000
0000000000
ENDCHAR

STARTCHAR Ca1ce
ENCODING 41422
SWIDTH 1000 0
DWIDTH 34 0
BBX 34 34 0 -6
BITMAP
0000000000
0000000000
0000000000
000007FF00
0000060000
0000060000
0000060000
0000060000
0000060000
0000060000
0000060000
0000060000
0000060000
0000060000
0000060000
0000060000
0000060000
0000060000
0000060000
0000060000
0000060000
0000060000
0000060000
0000060000
0000060000
0000060000
0000060000
0000060000
0000060000
0000060000
0000060000
000007FF00
0000000000
0000000000
ENDCHAR

STARTCHAR Ca1cf
ENCODING 41423
SWIDTH 1000 0
DWIDTH 34 0
BBX 34 34 0 -6
BITMAP
0000000000
0000000000
0000000000
1FF8000000
0008000000
0008000000
0008000000
0008000000
0008000000
0008000000
0008000000
0008000000
0008000000
0008000000
0008000000
0008000000
0008000000
0008000000
0008000000
0008000000
0008000000
0008000000
0008000000
0008000000
0008000000
0008000000
0008000000
0008000000
0008000000
0008000000
0008000000
1FF8000000
0000000000
0000000000
ENDCHAR

STARTCHAR Ca1d0
ENCODING 41424
SWIDTH 1000 0
DWIDTH 34 0
BBX 34 34 0 -6
BITMAP
0000000000
0000000000
0000000100
0000000700
0000000C00
0000001800
0000001000
0000003000
0000003000
0000003000
0000003000
0000003000
0000003000
0000003000
0000003000
0000003000
000000E000
000001C000
0000006000
0000003000
0000003000
0000003000
0000003000
0000003000
0000003000
0000003000
0000003000
0000003000
0000001000
0000001800
0000000C00
0000000700
0000000000
0000000000
ENDCHAR

STARTCHAR Ca1d1
ENCODING 41425
SWIDTH 1000 0
DWIDTH 34 0
BBX 34 34 0 -6
BITMAP
0000000000
0000000000
1000000000
1C00000000
0600000000
0300000000
0100000000
0180000000
0180000000
0180000000
0180000000
0180000000
0180000000
0180000000
0180000000
0180000000
00E0000000
0070000000
00C0000000
0180000000
0180000000
0180000000
0180000000
0180000000
0180000000
0180000000
0180000000
0180000000
0100000000
0300000000
0600000000
1C00000000
0000000000
0000000000
ENDCHAR

STARTCHAR Ca1d2
ENCODING 41426
SWIDTH 1000 0
DWIDTH 34 0
BBX 34 34 0 -6
BITMAP
0000000000
0000000000
0000000100
0000000600
0000000C00
0000001800
0000003000
0000006000
000000C000
0000018000
0000030000
0000060000
00000C0000
0000180000
0000300000
0000600000
0000C00000
0001800000
0000C00000
0000600000
0000300000
0000180000
00000C0000
0000060000
0000030000
0000018000
000000C000
0000006000
0000003000
0000001800
0000000C00
0000000700
0000000000
0000000000
ENDCHAR

STARTCHAR Ca1d3
ENCODING 41427
SWIDTH 1000 0
DWIDTH 34 0
BBX 34 34 0 -6
BITMAP
0000000000
0000000000
1000000000
0C00000000
0600000000
0300000000
0180000000
00C0000000
0060000000
0030000000
0018000000
000C000000
0006000000
0003000000
0001800000
0000C00000
0000600000
0000300000
0000600000
0000C00000
0001800000
0003000000
0006000000
000C000000
0018000000
0030000000
0060000000
00C0000000
0180000000
0300000000
0600000000
1C00000000
0000000000
0000000000
ENDCHAR

STARTCHAR Ca1d4
ENCODING 41428
SWIDTH 1000 0
DWIDTH 34 0
BBX 34 34 0 -6
BITMAP
0000000000
0000000000
0000004100
0000018600
0000030C00
0000061800
00000C3000
0000186000
000030C000
0000618000
0000C30000
0001860000
00030C0000
0006180000
000C300000
0018600000
0030C00000
0061800000
0030C00000
0018600000
000C300000
0006180000
00030C0000
0001860000
0000C30000
0000618000
000030C000
0000186000
00000C3000
0000061800
0000030C00
000001C700
0000000000
0000000000
ENDCHAR

STARTCHAR Ca1d5
ENCODING 41429
SWIDTH 1000 0
DWIDTH 34 0
BBX 34 34 0 -6
BITMAP
0000000000
0000000000
1040000000
0C30000000
0618000000
030C000000
0186000000
00C3000000
0061800000
0030C00000
0018600000
000C300000
0006180000
00030C0000
0001860000
0000C30000
0000618000
000030C000
0000618000
0000C30000
0001860000
00030C0000
0006180000
000C300000
0018600000
0030C00000
0061800000
00C3000000
0186000000
030C000000
0618000000
1C70000000
0000000000
0000000000
ENDCHAR

STARTCHAR Ca1d6
ENCODING 41430
SWIDTH 1000 0
DWIDTH 34 0
BBX 34 34 0 -6
BITMAP
0000000000
0000000000
0000000000
000001FF00
0000018000
0000018000
0000018000
0000018000
0000018000
0000018000
0000018000
0000018000
0000018000
0000018000
0000018000
0000018000
0000018000
0000018000
0000018000
0000018000
0000018000
0000018000
0000018000
0000018000
0000018000
0000018000
0000018000
0000000000
0000000000
0000000000
0000000000
0000000000
0000000000
0000000000
ENDCHAR

STARTCHAR Ca1d7
ENCODING 41431
SWIDTH 1000 0
DWIDTH 34 0
BBX 34 34 0 -6
BITMAP
0000000000
0000000000
0000000000
0000000000
0000000000
0000000000
0000000000
0000000000
0030000000
0030000000
0030000000
0030000000
0030000000
0030000000
0030000000
0030000000
0030000000
0030000000
0030000000
0030000000
0030000000
0030000000
0030000000
0030000000
0030000000
0030000000
0030000000
0030000000
0030000000
0030000000
0030000000
1FF0000000
0000000000
0000000000
ENDCHAR

STARTCHAR Ca1d8
ENCODING 41432
SWIDTH 1000 0
DWIDTH 34 0
BBX 34 34 0 -6
BITMAP
0000000000
0000000000
0000000000
00001FFE00
0000180200
0000180200
0000180200
000018FE00
0000188000
0000188000
0000188000
0000188000
0000188000
0000188000
0000188000
0000188000
0000188000
0000188000
0000188000
0000188000
0000188000
0000188000
0000188000
0000188000
0000188000
0000188000
00001F8000
0000000000
0000000000
0000000000
0000000000
0000000000
0000000000
0000000000
ENDCHAR

STARTCHAR Ca1d9
ENCODING 41433
SWIDTH 1000 0
DWIDTH 34 0
BBX 34 34 0 -6
BITMAP
0000000000
0000000000
0000000000
0000000000
0000000000
0000000000
0000000000
0000000000
003F000000
0023000000
0023000000
0023000000
0023000000
0023000000
0023000000
0023000000
0023000000
0023000000
0023000000
0023000000
0023000000
0023000000
0023000000
0023000000
0023000000
0023000000
0023000000
0FE3000000
0803000000
0803000000
0803000000
0FFF000000
0000000000
0000000000
ENDCHAR

STARTCHAR Ca1da
ENCODING 41434
SWIDTH 1000 0
DWIDTH 34 0
BBX 34 34 0 -6
BITMAP
0000000000
0000000000
0000000100
0000007E00
0000007C00
0000007C00
0000007800
0000007000
0000007000
0000007000
0000006000
0000006000
0000006000
0000004000
0000004000
0000004000
0000004000
0000004000
0000004000
0000004000
0000004000
0000004000
0000006000
0000006000
0000006000
0000006000
0000007000
0000007000
0000007800
0000007C00
0000007C00
0000007F00
0000000000
0000000000
ENDCHAR

STARTCHAR Ca1db
ENCODING 41435
SWIDTH 1000 0
DWIDTH 34 0
BBX 34 34 0 -6
BITMAP
0000000000
0000000000
1000000000
0FC0000000
07C0000000
07C0000000
03C0000000
01C0000000
01C0000000
01C0000000
00C0000000
00C0000000
00C0000000
0040000000
0040000000
0040000000
0040000000
0040000000
0040000000
0040000000
0040000000
0040000000
00C0000000
00C0000000
00C0000000
01C0000000
01C0000000
01C0000000
03C0000000
07C0000000
07C0000000
1FC0000000
0000000000
0000000000
ENDCHAR

STARTCHAR Ca1dc
ENCODING 41436
SWIDTH 1000 0
DWIDTH 34 0
BBX 34 34 0 -6
BITMAP
0000000000
0000000000
0000000000
0000000000
0000000000
0000000000
0000000000
0000400000
0000400000
0000400000
0000400000
0000400000
0000400000
0000400000
0000400000
0000400000
0000400000
03FFFFF800
0000400000
0000400000
0000400000
0000400000
0000400000
0000400000
0000400000
0000400000
0000400000
0000400000
0000400000
0000000000
0000000000
0000000000
0000000000
0000000000
ENDCHAR

STARTCHAR Ca1dd
ENCODING 41437
SWIDTH 1000 0
DWIDTH 34 0
BBX 34 34 0 -6
BITMAP
0000000000
0000000000
0000000000
0000000000
0000000000
0000000000
0000000000
0000000000
0000000000
0000000000
0000000000
0000000000
0000000000
0000000000
0000000000
0000000000
0000000000
03FFFFF800
0000000000
0000000000
0000000000
0000000000
0000000000
0000000000
0000000000
0000000000
0000000000
0000000000
0000000000
0000000000
0000000000
0000000000
0000000000
0000000000
ENDCHAR

STARTCHAR Ca1de
ENCODING 41438
SWIDTH 1000 0
DWIDTH 34 0
BBX 34 34 0 -6
BITMAP
0000000000
0000000000
0000000000
0000000000
0000000000
0000400000
0000400000
0000400000
0000400000
0000400000
0000400000
0000400000
0000400000
03FFFFF800
0000400000
0000400000
0000400000
0000400000
0000400000
0000400000
0000400000
0000400000
0000400000
0000000000
0000000000
0000000000
0000000000
03FFFFF800
0000000000
0000000000
0000000000
0000000000
0000000000
0000000000
ENDCHAR

STARTCHAR Ca1df
ENCODING 41439
SWIDTH 1000 0
DWIDTH 34 0
BBX 34 34 0 -6
BITMAP
0000000000
0000000000
0000000000
0000000000
0000000000
0000000000
0000000000
0000000000
01C0007000
00E000E000
007001C000
0038038000
001C070000
000E0E0000
00071C0000
0003B80000
0001F00000
0000E00000
0001F00000
0003B80000
00071C0000
000E0E0000
001C070000
0038038000
007001C000
01E000F000
00C0006000
0000000000
0000000000
0000000000
0000000000
0000000000
0000000000
0000000000
ENDCHAR

STARTCHAR Ca1e0
ENCODING 41440
SWIDTH 1000 0
DWIDTH 34 0
BBX 34 34 0 -6
BITMAP
0000000000
0000000000
0000000000
0000000000
0000000000
0000000000
0000000000
0000000000
0000000000
0000E00000
0000E00000
0001E00000
0000E00000
0000000000
0000000000
0000000000
0000000000
03FFFFF800
0000000000
0000000000
0000000000
0000000000
0000E00000
0000E00000
0001E00000
0000E00000
0000000000
0000000000
0000000000
0000000000
0000000000
0000000000
0000000000
0000000000
ENDCHAR

STARTCHAR Ca1e1
ENCODING 41441
SWIDTH 1000 0
DWIDTH 34 0
BBX 34 34 0 -6
BITMAP
0000000000
0000000000
0000000000
0000000000
0000000000
0000000000
0000000000
0000000000
0000000000
0000000000
0000000000
0000000000
0000000000
03FFFFF800
03FFFFF800
0000000000
0000000000
0000000000
0000000000
0000000000
03FFFFF800
03FFFFF800
0000000000
0000000000
0000000000
0000000000
0000000000
0000000000
0000000000
0000000000
0000000000
0000000000
0000000000
0000000000
ENDCHAR

STARTCHAR Ca1e2
ENCODING 41442
SWIDTH 1000 0
DWIDTH 34 0
BBX 34 34 0 -6
BITMAP
0000000000
0000000000
0000000000
0000000000
0000000000
0000000000
0000030000
0000020000
0000060000
0000040000
00000C0000
0000180000
0000180000
03FFFFF800
03FFFFF800
0000600000
0000600000
0000400000
0000C00000
0000800000
03FFFFF800
03FFFFF800
0003000000
0002000000
0006000000
0004000000
000C000000
0008000000
0018000000
0000000000
0000000000
0000000000
0000000000
0000000000
ENDCHAR

STARTCHAR Ca1e3
ENCODING 41443
SWIDTH 1000 0
DWIDTH 34 0
BBX 34 34 0 -6
BITMAP
0000000000
0000000000
0000000000
0000000200
0000000E00
0000003C00
000000F000
000003C000
00000F0000
00003C0000
0000F00000
0001C00000
0007000000
001C000000
0070000000
01C0000000
0700000000
1C00000000
0700000000
01C0000000
0070000000
001C000000
0007000000
0003C00000
0000F00000
00003C0000
00000F0000
000003C000
000000F000
0000003C00
0000000E00
0000000200
0000000000
0000000000
ENDCHAR

STARTCHAR Ca1e4
ENCODING 41444
SWIDTH 1000 0
DWIDTH 34 0
BBX 34 34 0 -6
BITMAP
0000000000
0000000000
0000000000
0800000000
0E00000000
0780000000
01E0000000
0078000000
001E000000
0007800000
0001E00000
0000700000
00001C0000
0000070000
000001C000
0000007000
0000001C00
0000000700
0000001C00
0000007000
000001C000
0000070000
00001C0000
0000700000
0001E00000
0007800000
001E000000
0078000000
01E0000000
0780000000
0E00000000
0800000000
0000000000
0000000000
ENDCHAR

STARTCHAR Ca1e5
ENCODING 41445
SWIDTH 1000 0
DWIDTH 34 0
BBX 34 34 0 -6
BITMAP
0000000000
0000000000
0000000000
0000000000
0000000400
0000003800
000001E000
00000F0000
0000780000
0003E00000
001F000000
00F8000000
07C0000000
00F0000000
001E000000
0003C00000
0000F80000
00001F0000
000003C000
0000007800
0000000800
0000000000
0000000000
03FFFFF800
03FFFFF800
0000000000
0000000000
0000000000
03FFFFF800
03FFFFF800
0000000000
0000000000
0000000000
0000000000
ENDCHAR

STARTCHAR Ca1e6
ENCODING 41446
SWIDTH 1000 0
DWIDTH 34 0
BBX 34 34 0 -6
BITMAP
0000000000
0000000000
0000000000
0000000000
0200000000
0380000000
00F0000000
001E000000
0007C00000
0000F80000
00001F0000
000003E000
0000007800
000003E000
00000F0000
0000780000
0003E00000
001F000000
0078000000
03C0000000
0200000000
0000000000
0000000000
03FFFFF800
03FFFFF800
0000000000
0000000000
0000000000
03FFFFF800
03FFFFF800
0000000000
0000000000
0000000000
0000000000
ENDCHAR

STARTCHAR Ca1e7
ENCODING 41447
SWIDTH 1000 0
DWIDTH 34 0
BBX 34 34 0 -6
BITMAP
0000000000
0000000000
0000000000
0000000000
0000000000
0000000000
0000000000
0000000000
0000000000
0000000000
0000000000
01F803F000
03FC07F800
060E0C0C00
0C03180600
0C01B00600
0800E00300
1800E00300
1800E00300
0C01B00600
0C03180600
070F0E0C00
03FC07F800
01F803F000
0000000000
0000000000
0000000000
0000000000
0000000000
0000000000
0000000000
0000000000
0000000000
0000000000
ENDCHAR

STARTCHAR Ca1e8
ENCODING 41448
SWIDTH 1000 0
DWIDTH 34 0
BBX 34 34 0 -6
BITMAP
0000000000
0000000000
0000000000
0000000000
0000000000
0000000000
0000000000
0000E00000
0001F00000
0001F00000
0000E00000
0000000000
0000000000
0000000000
0000000000
0000000000
0000000000
0000000000
0000000000
0000000000
0000000000
0000000000
0000000000
0000000000
01E000F000
01E000F000
01E000F000
00E000E000
0000000000
0000000000
0000000000
0000000000
0000000000
0000000000
ENDCHAR

STARTCHAR Ca1e9
ENCODING 41449
SWIDTH 1000 0
DWIDTH 34 0
BBX 34 34 0 -6
BITMAP
0000000000
0000000000
0000000000
0000000000
00001FFE00
00001FFE00
0000001E00
0000003E00
0000007600
000000E600
000001C600
0000038600
0000070600
00000E0600
00001C0600
0000380600
00FE700000
01FFE00000
0381C00000
0600C00000
0600600000
0C00600000
0C00600000
0C00600000
0C00600000
0C00600000
0600E00000
0700C00000
0383800000
01FF000000
007C000000
0000000000
0000000000
0000000000
ENDCHAR

STARTCHAR Ca1ea
ENCODING 41450
SWIDTH 1000 0
DWIDTH 34 0
BBX 34 34 0 -6
BITMAP
0000000000
0000000000
0000000000
0003F80000
00071C0000
000C060000
0018030000
0030018000
0030018000
0030018000
0030018000
0030018000
0030018000
0018030000
000C060000
000E0E0000
0003F80000
0000400000
0000400000
0000400000
0000400000
0000400000
01FFFFF000
0000400000
0000400000
0000400000
0000400000
0000400000
0000400000
0000400000
0000400000
0000400000
0000000000
0000000000
ENDCHAR

STARTCHAR Ca1eb
ENCODING 41451
SWIDTH 1000 0
DWIDTH 34 0
BBX 34 34 0 -6
BITMAP
0000000000
0000000000
0600000000
1B00000000
1080000000
3080000000
3080000000
1080000000
0F00000000
0000000000
0000000000
0000000000
0000000000
0000000000
0000000000
0000000000
0000000000
0000000000
0000000000
0000000000
0000000000
0000000000
0000000000
0000000000
0000000000
0000000000
0000000000
0000000000
0000000000
0000000000
0000000000
0000000000
0000000000
0000000000
ENDCHAR

STARTCHAR Ca1ec
ENCODING 41452
SWIDTH 1000 0
DWIDTH 34 0
BBX 34 34 0 -6
BITMAP
0000000000
0000000000
0000000000
0600000000
0E00000000
0C00000000
0C00000000
0800000000
1800000000
1000000000
3000000000
1000000000
0000000000
0000000000
0000000000
0000000000
0000000000
0000000000
0000000000
0000000000
0000000000
0000000000
0000000000
0000000000
0000000000
0000000000
0000000000
0000000000
0000000000
0000000000
0000000000
0000000000
0000000000
0000000000
ENDCHAR

STARTCHAR Ca1ed
ENCODING 41453
SWIDTH 1000 0
DWIDTH 34 0
BBX 34 34 0 -6
BITMAP
0000000000
0000000000
0000000000
0630000000
0E70000000
0C60000000
0C60000000
0860000000
18C0000000
10C0000000
3080000000
1080000000
0000000000
0000000000
0000000000
0000000000
0000000000
0000000000
0000000000
0000000000
0000000000
0000000000
0000000000
0000000000
0000000000
0000000000
0000000000
0000000000
0000000000
0000000000
0000000000
0000000000
0000000000
0000000000
ENDCHAR

STARTCHAR Ca1ee
ENCODING 41454
SWIDTH 1000 0
DWIDTH 34 0
BBX 34 34 0 -6
BITMAP
0000000000
0000000000
0000000000
0F00000000
1080000000
1080FF0800
108381D800
108E007800
0F1C003800
001C001800
0038001800
0038000800
0070000000
0070000000
0070000000
0070000000
00F0000000
00F0000000
0070000000
0070000000
0070000400
0070000400
0038000C00
0038000800
001C001800
001E003000
000F006000
0003C3C000
0000FF0000
0000000000
0000000000
0000000000
0000000000
0000000000
ENDCHAR

STARTCHAR Ca1ef
ENCODING 41455
SWIDTH 1000 0
DWIDTH 34 0
BBX 34 34 0 -6
BITMAP
0000000000
0000000000
0000000000
0000000000
0000000000
03FE07F800
00F801E000
007000C000
0038018000
0038010000
001C030000
000C060000
000E060000
00070C0000
01FFFFF000
0003980000
0001F00000
0001E00000
0000E00000
01FFFFF000
0000E00000
0000E00000
0000E00000
0000E00000
0000E00000
0000E00000
0000E00000
0007FC0000
0000000000
0000000000
0000000000
0000000000
0000000000
0000000000
ENDCHAR

STARTCHAR Ca1f0
ENCODING 41456
SWIDTH 1000 0
DWIDTH 34 0
BBX 34 34 0 -6
BITMAP
0000000000
0000000000
0000000000
0000400000
0000400000
0003F80000
00074E0000
000C470000
0018470000
0018470000
0018470000
0018400000
001C400000
000E400000
0007C00000
0003F00000
0000FC0000
00005E0000
0000470000
0000438000
0000418000
0038418000
003C418000
0038418000
0038438000
0018430000
000E4E0000
0007FC0000
0000400000
0000400000
0000400000
0000000000
0000000000
0000000000
ENDCHAR

STARTCHAR Ca1f1
ENCODING 41457
SWIDTH 1000 0
DWIDTH 34 0
BBX 34 34 0 -6
BITMAP
0000000000
0000000000
0000000000
0000000000
0000000000
00000C0000
0000080000
0000180000
0000F80000
00039E0000
0006370000
000C370000
0018270000
0038670000
0038600000
0038400000
0038400000
0038C00000
0038C00000
0038808000
0039810000
001D830000
000F060000
0007DE0000
0003F80000
0002000000
0006000000
0006000000
000C000000
0000000000
0000000000
0000000000
0000000000
0000000000
ENDCHAR

STARTCHAR Ca1f2
ENCODING 41458
SWIDTH 1000 0
DWIDTH 34 0
BBX 34 34 0 -6
BITMAP
0000000000
0000000000
0000000000
0000000000
0000000000
0001FC0000
0003860000
0006070000
000E070000
000C070000
000C070000
000C000000
000C000000
000E000000
000E000000
0006000000
007FFC0000
0007000000
0003000000
0003800000
0001800000
0001800000
007F800000
0087802000
0181C04000
0103F04000
01837CC000
00C61F8000
007C0F0000
0000000000
0000000000
0000000000
0000000000
0000000000
ENDCHAR

STARTCHAR Ca1f3
ENCODING 41459
SWIDTH 1000 0
DWIDTH 34 0
BBX 34 34 0 -6
BITMAP
0000000000
0000000000
0000002000
000000C000
002000C000
00FC018000
038E018000
0306030000
0707030000
0703060000
0703040000
07030C0000
0707080000
0307180000
0386300000
01CC300000
0078600000
0000600000
0000C1C000
0000C77000
00018E3800
00018C1800
00031C1C00
0003181C00
0006181C00
0004181C00
000C1C1C00
00180C1800
00180E3800
0030077000
003001C000
0060000000
0000000000
0000000000
ENDCHAR

STARTCHAR Ca1f4
ENCODING 41460
SWIDTH 1000 0
DWIDTH 34 0
BBX 34 34 0 -6
BITMAP
0000000000
0000000000
0000000000
0000000000
0001010000
0001010000
0003010000
0002020000
0002020000
0002020000
00FFFFF000
00FFFFF000
00FFFFF000
0006020000
0004060000
0004040000
0004040000
0004040000
0004040000
0004040000
000C040000
00080C0000
01FFFFE000
01FFFFE000
01FFFFE000
0008080000
0008080000
0018080000
0010180000
0010100000
0010100000
0000000000
0000000000
0000000000
ENDCHAR

STARTCHAR Ca1f5
ENCODING 41461
SWIDTH 1000 0
DWIDTH 34 0
BBX 34 34 0 -6
BITMAP
0000000000
0000000000
0000000000
0000000000
0000000000
0007C00000
000C700000
0018300000
0018300000
0018300000
0018300000
0018700000
0018E00000
001DC00000
000F000000
001E07F800
007700E000
00E300E000
01C380C000
0181C0C000
0380E0C000
0380F08000
0380798000
03803F0000
01801E0200
01C00F0400
00F01F8C00
007FF3F800
001FC0F000
0000000000
0000000000
0000000000
0000000000
0000000000
ENDCHAR

STARTCHAR Ca1f6
ENCODING 41462
SWIDTH 1000 0
DWIDTH 34 0
BBX 34 34 0 -6
BITMAP
0000000000
0000000000
0000000000
0000000000
0000000000
0000000000
0000000000
0000E00000
0001E00000
0000E00000
0000E00000
00E0E0C000
00F0E1E000
00FCE7E000
007E6FC000
001F5F0000
0003F80000
0000400000
0003FC0000
001F5F0000
00FEE7C000
00F8E3E000
00F0E1E000
0060E0C000
0000E00000
0000E00000
0000E00000
0000E00000
0000000000
0000000000
0000000000
0000000000
0000000000
0000000000
ENDCHAR

STARTCHAR Ca1f7
ENCODING 41463
SWIDTH 1000 0
DWIDTH 34 0
BBX 34 34 0 -6
BITMAP
0000000000
0000000000
0000000000
0000000000
0000000000
0007FC0000
001E0F0000
0038018000
00E000C000
00C0626000
0181FA3000
03838E1000
03070E1800
07060E0800
060E0E0800
060C0C0800
060C0C0800
061C1C0800
061C1C1800
061C1C1800
061C3C3000
060C2C3000
030FEEE000
0307C78000
0180001000
01C0003000
00E0006000
007801C000
001E0F0000
0007FC0000
0000000000
0000000000
0000000000
0000000000
ENDCHAR

STARTCHAR Ca1f8
ENCODING 41464
SWIDTH 1000 0
DWIDTH 34 0
BBX 34 34 0 -6
BITMAP
0000000000
0000000000
0000000000
0003F80000
000E060000
000C070000
0018070000
00180F0000
0018060000
001C000000
000E000000
0007800000
0003E00000
0006F80000
00083E0000
00180F0000
0018070000
0018038000
001C038000
000E038000
0007830000
0003E60000
0000FC0000
00003E0000
00000F0000
0000070000
001C038000
003C038000
003C030000
001C030000
000E060000
0007FC0000
0000000000
0000000000
ENDCHAR

STARTCHAR Ca1f9
ENCODING 41465
SWIDTH 1000 0
DWIDTH 34 0
BBX 34 34 0 -6
BITMAP
0000000000
0000000000
0000000000
0000400000
0000400000
0000E00000
0000E00000
0000E00000
0001A00000
0001B00000
0001B00000
0001100000
0003180000
0003180000
1FFE0FFF00
0E00000C00
0300001800
01C0007000
00E000E000
0070018000
0018030000
0018030000
0018030000
0010030000
0030E18000
0031B18000
0067198000
006E0E8000
007803C000
00F001C000
00C000C000
0080002000
0000000000
0000000000
ENDCHAR

STARTCHAR Ca1fa
ENCODING 41466
SWIDTH 1000 0
DWIDTH 34 0
BBX 34 34 0 -6
BITMAP
0000000000
0000000000
0000000000
0000400000
0000400000
0000E00000
0000E00000
0000E00000
0001E00000
0001F00000
0001F00000
0001F00000
0003F80000
0003F80000
1FFFFFFF00
0FFFFFFC00
03FFFFF800
01FFFFF000
00FFFFE000
007FFF8000
001FFF0000
001FFF0000
001FFF0000
001FFF0000
003FFF8000
003FBF8000
007F1F8000
007E0F8000
007803C000
00F001C000
00C000C000
0080002000
0000000000
0000000000
ENDCHAR

STARTCHAR Ca1fb
ENCODING 41467
SWIDTH 1000 0
DWIDTH 34 0
BBX 34 34 0 -6
BITMAP
0000000000
0000000000
0000000000
0000000000
0007FC0000
001F1F0000
007803C000
00E000E000
01C0007000
0380003800
0700001C00
0600000C00
0600000C00
0C00000600
0C00000600
0C00000600
0C00000600
0800000200
0C00000600
0C00000600
0C00000600
0C00000600
0600000C00
0600000C00
0700001C00
0380003800
01C0007000
00E000E000
007803C000
001F1F0000
0007FC0000
0000000000
0000000000
0000000000
ENDCHAR

STARTCHAR Ca1fc
ENCODING 41468
SWIDTH 1000 0
DWIDTH 34 0
BBX 34 34 0 -6
BITMAP
0000000000
0000000000
0000000000
0000000000
0007FC0000
001FFF0000
007FFFC000
00FFFFE000
01FFFFF000
03FFFFF800
07FFFFFC00
07FFFFFC00
07FFFFFC00
0FFFFFFE00
0FFFFFFE00
0FFFFFFE00
0FFFFFFE00
0FFFFFFE00
0FFFFFFE00
0FFFFFFE00
0FFFFFFE00
0FFFFFFE00
07FFFFFC00
07FFFFFC00
07FFFFFC00
03FFFFF800
01FFFFF000
00FFFFE000
007FFFC000
001FFF0000
0007FC0000
0000000000
0000000000
0000000000
ENDCHAR

STARTCHAR Ca1fd
ENCODING 41469
SWIDTH 1000 0
DWIDTH 34 0
BBX 34 34 0 -6
BITMAP
0000000000
0000000000
0000000000
0000000000
0007FC0000
001E0F0000
007001C000
00C0006000
0180003000
0301F01800
0607FC0C00
060E0E0C00
0418030400
0C30018600
0C30018600
086000C200
086000C200
086000C200
086000C200
086000C200
0C30018600
0C30018600
0418030400
060E0E0C00
0607FC0C00
0301F01800
0180003000
00C0006000
007001C000
001E0F0000
0007FC0000
0000000000
0000000000
0000000000
ENDCHAR

STARTCHAR Ca1fe
ENCODING 41470
SWIDTH 1000 0
DWIDTH 34 0
BBX 34 34 0 -6
BITMAP
0000000000
0000000000
0000000000
0000400000
0000E00000
0001B00000
0003180000
00060C0000
000C060000
0018030000
0070018000
00E000C000
01C0006000
0380003000
0700001800
0E00000C00
1C00000600
3800000300
1C00000600
0E00000C00
0700001800
0380003000
01C0006000
00E000C000
0070018000
0038038000
001C070000
000E0E0000
00071C0000
0003B80000
0001F00000
0000E00000
0000000000
0000000000
ENDCHAR

STARTCHAR Ca2a1
ENCODING 41633
SWIDTH 1000 0
DWIDTH 34 0
BBX 34 34 0 -6
BITMAP
0000000000
0000000000
0000000000
0000400000
0000E00000
0001F00000
0003F80000
0007FC0000
000FFE0000
001FFF0000
007FFF8000
00FFFFC000
01FFFFE000
03FFFFF000
07FFFFF800
0FFFFFFC00
1FFFFFFE00
3FFFFFFF00
1FFFFFFE00
0FFFFFFC00
07FFFFF800
03FFFFF000
01FFFFE000
00FFFFC000
007FFF8000
003FFF8000
001FFF0000
000FFE0000
0007FC0000
0003F80000
0001F00000
0000E00000
0000000000
0000000000
ENDCHAR

STARTCHAR Ca2a2
ENCODING 41634
SWIDTH 1000 0
DWIDTH 34 0
BBX 34 34 0 -6
BITMAP
0000000000
0000000000
0000000000
0000000000
0000000000
07FFFFFC00
07FFFFFC00
0600000C00
0600000C00
0600000C00
0600000C00
0600000C00
0600000C00
0600000C00
0600000C00
0600000C00
0600000C00
0600000C00
0600000C00
0600000C00
0600000C00
0600000C00
0600000C00
0600000C00
0600000C00
0600000C00
0600000C00
0600000C00
07FFFFFC00
07FFFFFC00
0000000000
0000000000
0000000000
0000000000
ENDCHAR

STARTCHAR Ca2a3
ENCODING 41635
SWIDTH 1000 0
DWIDTH 34 0
BBX 34 34 0 -6
BITMAP
0000000000
0000000000
0000000000
0000000000
0000000000
07FFFFFC00
07FFFFFC00
07FFFFFC00
07FFFFFC00
07FFFFFC00
07FFFFFC00
07FFFFFC00
07FFFFFC00
07FFFFFC00
07FFFFFC00
07FFFFFC00
07FFFFFC00
07FFFFFC00
07FFFFFC00
07FFFFFC00
07FFFFFC00
07FFFFFC00
07FFFFFC00
07FFFFFC00
07FFFFFC00
07FFFFFC00
07FFFFFC00
07FFFFFC00
07FFFFFC00
07FFFFFC00
0000000000
0000000000
0000000000
0000000000
ENDCHAR

STARTCHAR Ca2a4
ENCODING 41636
SWIDTH 1000 0
DWIDTH 34 0
BBX 34 34 0 -6
BITMAP
0000000000
0000000000
0000000000
0000000000
0000400000
0000400000
0000E00000
0000E00000
0001B00000
0001B00000
0003180000
0003180000
00060C0000
00060C0000
000C060000
000C060000
0018030000
0018030000
0030018000
0030018000
006000C000
006000C000
00C0006000
0180006000
0180003000
0300001800
0300001800
0600000C00
07FFFFFC00
0FFFFFFE00
0000000000
0000000000
0000000000
0000000000
ENDCHAR

STARTCHAR Ca2a5
ENCODING 41637
SWIDTH 1000 0
DWIDTH 34 0
BBX 34 34 0 -6
BITMAP
0000000000
0000000000
0000000000
0000000000
0000400000
0000400000
0000E00000
0000E00000
0001F00000
0001F00000
0003F80000
0003F80000
0007FC0000
0007FC0000
000FFE0000
000FFE0000
001FFF0000
001FFF0000
003FFF8000
003FFF8000
007FFFC000
007FFFC000
00FFFFE000
01FFFFE000
01FFFFF000
03FFFFF800
03FFFFF800
07FFFFFC00
07FFFFFC00
0FFFFFFE00
0000000000
0000000000
0000000000
0000000000
ENDCHAR

STARTCHAR Ca2a6
ENCODING 41638
SWIDTH 1000 0
DWIDTH 34 0
BBX 34 34 0 -6
BITMAP
0000000000
0000000000
0000000000
0000000000
0000000000
0FFFFFFE00
07FFFFFC00
0600000C00
0300001800
0300001800
0180003000
0180007000
00C0006000
00E000C000
006000C000
0030018000
0030018000
0018030000
0018030000
000C060000
000C060000
00060C0000
00060C0000
0003180000
0003180000
0001B00000
0001B00000
0000E00000
0000E00000
0000400000
0000400000
0000000000
0000000000
0000000000
ENDCHAR

STARTCHAR Ca2a7
ENCODING 41639
SWIDTH 1000 0
DWIDTH 34 0
BBX 34 34 0 -6
BITMAP
0000000000
0000000000
0000000000
0000000000
0000000000
0FFFFFFE00
07FFFFFC00
07FFFFFC00
03FFFFF800
03FFFFF800
01FFFFF000
01FFFFF000
00FFFFE000
00FFFFC000
007FFFC000
003FFF8000
003FFF8000
001FFF0000
001FFF0000
000FFE0000
000FFE0000
0007FC0000
0007FC0000
0003F80000
0003F80000
0001F00000
0001F00000
0000E00000
0000E00000
0000400000
0000400000
0000000000
0000000000
0000000000
ENDCHAR

STARTCHAR Ca2a8
ENCODING 41640
SWIDTH 1000 0
DWIDTH 34 0
BBX 34 34 0 -6
BITMAP
0000000000
0000000000
0000000000
0000000000
0400E00400
0E01F00E00
0701F01C00
0381F03800
01C0E07000
00E000E000
007001C000
0038038000
001C070000
000E0E0000
00071C0000
0703B81C00
0F81F03E00
0F80E03E00
0781F03E00
0703B81C00
00071C0000
000E0E0000
001C070000
0038038000
007001C000
00E000E000
01C0E07000
0381F03800
0701F01C00
0E01F00E00
0400400400
0000000000
0000000000
0000000000
ENDCHAR

STARTCHAR Ca2a9
ENCODING 41641
SWIDTH 1000 0
DWIDTH 34 0
BBX 34 34 0 -6
BITMAP
0000000000
0000000000
0000000000
0000000000
0000000000
03FFFFF800
03FFFFF800
03FFFFF800
0000000000
0000000000
0000000000
0000000000
0000000000
03FFFFF800
03FFFFF800
03FFFFF800
03FFFFF800
0000E00000
0000E00000
0000E00000
0000E00000
0000E00000
0000E00000
0000E00000
0000E00000
0000E00000
0000E00000
0000E00000
0000E00000
0000E00000
0000E00000
0000E00000
0000000000
0000000000
ENDCHAR

STARTCHAR Ca2aa
ENCODING 41642
SWIDTH 1000 0
DWIDTH 34 0
BBX 34 34 0 -6
BITMAP
0000000000
0000000000
0000000000
0000000000
0000000000
0000000000
0000000000
0000000000
0000000000
0000000000
0000000000
0000020000
000001C000
000000E000
0000007800
0000001C00
0000000E00
1FFFFFFF00
0000000E00
0000001C00
0000003800
000000E000
000003C000
0000000000
0000000000
0000000000
0000000000
0000000000
0000000000
0000000000
0000000000
0000000000
0000000000
0000000000
ENDCHAR

STARTCHAR Ca2ab
ENCODING 41643
SWIDTH 1000 0
DWIDTH 34 0
BBX 34 34 0 -6
BITMAP
0000000000
0000000000
0000000000
0000000000
0000000000
0000000000
0000000000
0000000000
0000000000
0000000000
0000000000
0008000000
0070000000
00E0000000
0380000000
0700000000
0E00000000
3FFFFFFF00
0E00000000
0700000000
0380000000
00E0000000
0078000000
0000000000
0000000000
0000000000
0000000000
0000000000
0000000000
0000000000
0000000000
0000000000
0000000000
0000000000
ENDCHAR

STARTCHAR Ca2ac
ENCODING 41644
SWIDTH 1000 0
DWIDTH 34 0
BBX 34 34 0 -6
BITMAP
0000000000
0000000000
0000000000
0000400000
0000E00000
0001F00000
0003F80000
0003D80000
0006CC0000
000CCE0000
000CC60000
0008C20000
0008C10000
0000C00000
0000C00000
0000C00000
0000C00000
0000C00000
0000C00000
0000C00000
0000C00000
0000C00000
0000C00000
0000C00000
0000C00000
0000C00000
0000C00000
0000C00000
0000C00000
0000C00000
0000C00000
0000C00000
0000000000
0000000000
ENDCHAR

STARTCHAR Ca2ad
ENCODING 41645
SWIDTH 1000 0
DWIDTH 34 0
BBX 34 34 0 -6
BITMAP
0000000000
0000000000
0000000000
0000600000
0000600000
0000600000
0000600000
0000600000
0000600000
0000600000
0000600000
0000600000
0000600000
0000600000
0000600000
0000600000
0000600000
0000600000
0000600000
0000600000
0000600000
0000600000
0008610000
0008610000
000C630000
000E670000
0006660000
00036C0000
0003FC0000
0001F80000
0000F00000
0000600000
0000000000
0000000000
ENDCHAR

STARTCHAR Ca2ae
ENCODING 41646
SWIDTH 1000 0
DWIDTH 34 0
BBX 34 34 0 -6
BITMAP
0000000000
0000000000
0000000000
0000000000
0000000000
0000000000
0000000000
0000000000
0000000000
0000000000
03FFFFF800
03FFFFF800
03FFFFF800
03FFFFF800
03FFFFF800
0000000000
0000000000
0000000000
0000000000
0000000000
03FFFFF800
03FFFFF800
03FFFFF800
03FFFFF800
03FFFFF800
0000000000
0000000000
0000000000
0000000000
0000000000
0000000000
0000000000
0000000000
0000000000
ENDCHAR

STARTCHAR Ca2af
ENCODING 41647
SWIDTH 1000 0
DWIDTH 34 0
BBX 34 34 0 -6
BITMAP
0000000000
0000000000
0000000000
0000000000
0000000000
0000000000
0000000000
0000000000
0000000000
0000000000
0000000000
0000000000
0000000000
0000000000
0000000000
0000000000
0000000000
0000000000
0000000000
0000000000
0000000000
0000000000
0000000000
0000000000
0000000000
0000000000
0000000000
0000000000
0000000000
0000000000
0000000000
0000000000
0000000000
0000000000
ENDCHAR

STARTCHAR Ca2b0
ENCODING 41648
SWIDTH 1000 0
DWIDTH 34 0
BBX 34 34 0 -6
BITMAP
0000000000
0000000000
0000000000
0000000000
0000000000
0000000000
0000000000
0000000000
0000000000
0000000000
0000000000
0000000000
0000000000
0000000000
0000000000
0000000000
0000000000
0000000000
0000000000
0000000000
0000000000
0000000000
0000000000
0000000000
0000000000
0000000000
0000000000
0000000000
0000000000
0000000000
0000000000
0000000000
0000000000
0000000000
ENDCHAR

STARTCHAR Ca2b1
ENCODING 41649
SWIDTH 1000 0
DWIDTH 34 0
BBX 34 34 0 -6
BITMAP
0000000000
0000000000
0000000000
0000000000
0000000000
0000000000
0000000000
0000000000
0000000000
0000000000
0000000000
0000000000
0000000000
0000000000
0000000000
0000000000
0000000000
0000000000
0000000000
0000000000
0000000000
0000000000
0000000000
0000000000
0000000000
0000000000
0000000000
0000000000
0000000000
0000000000
0000000000
0000000000
0000000000
0000000000
ENDCHAR

STARTCHAR Ca2b2
ENCODING 41650
SWIDTH 1000 0
DWIDTH 34 0
BBX 34 34 0 -6
BITMAP
0000000000
0000000000
0000000000
0000000000
0000000000
0000000000
0000000000
0000000000
0000000000
0000000000
0000000000
0000000000
0000000000
0000000000
0000000000
0000000000
0000000000
0000000000
0000000000
0000000000
0000000000
0000000000
0000000000
0000000000
0000000000
0000000000
0000000000
0000000000
0000000000
0000000000
0000000000
0000000000
0000000000
0000000000
ENDCHAR

STARTCHAR Ca2b3
ENCODING 41651
SWIDTH 1000 0
DWIDTH 34 0
BBX 34 34 0 -6
BITMAP
0000000000
0000000000
0000000000
0000000000
0000000000
0000000000
0000000000
0000000000
0000000000
0000000000
0000000000
0000000000
0000000000
0000000000
0000000000
0000000000
0000000000
0000000000
0000000000
0000000000
0000000000
0000000000
0000000000
0000000000
0000000000
0000000000
0000000000
0000000000
0000000000
0000000000
0000000000
0000000000
0000000000
0000000000
ENDCHAR

STARTCHAR Ca2b4
ENCODING 41652
SWIDTH 1000 0
DWIDTH 34 0
BBX 34 34 0 -6
BITMAP
0000000000
0000000000
0000000000
0000000000
0000000000
0000000000
0000000000
0000000000
0000000000
0000000000
0000000000
0000000000
0000000000
0000000000
0000000000
0000000000
0000000000
0000000000
0000000000
0000000000
0000000000
0000000000
0000000000
0000000000
0000000000
0000000000
0000000000
0000000000
0000000000
0000000000
0000000000
0000000000
0000000000
0000000000
ENDCHAR

STARTCHAR Ca2b5
ENCODING 41653
SWIDTH 1000 0
DWIDTH 34 0
BBX 34 34 0 -6
BITMAP
0000000000
0000000000
0000000000
0000000000
0000000000
0000000000
0000000000
0000000000
0000000000
0000000000
0000000000
0000000000
0000000000
0000000000
0000000000
0000000000
0000000000
0000000000
0000000000
0000000000
0000000000
0000000000
0000000000
0000000000
0000000000
0000000000
0000000000
0000000000
0000000000
0000000000
0000000000
0000000000
0000000000
0000000000
ENDCHAR

STARTCHAR Ca2b6
ENCODING 41654
SWIDTH 1000 0
DWIDTH 34 0
BBX 34 34 0 -6
BITMAP
0000000000
0000000000
0000000000
0000000000
0000000000
0000000000
0000000000
0000000000
0000000000
0000000000
0000000000
0000000000
0000000000
0000000000
0000000000
0000000000
0000000000
0000000000
0000000000
0000000000
0000000000
0000000000
0000000000
0000000000
0000000000
0000000000
0000000000
0000000000
0000000000
0000000000
0000000000
0000000000
0000000000
0000000000
ENDCHAR

STARTCHAR Ca2b7
ENCODING 41655
SWIDTH 1000 0
DWIDTH 34 0
BBX 34 34 0 -6
BITMAP
0000000000
0000000000
0000000000
0000000000
0000000000
0000000000
0000000000
0000000000
0000000000
0000000000
0000000000
0000000000
0000000000
0000000000
0000000000
0000000000
0000000000
0000000000
0000000000
0000000000
0000000000
0000000000
0000000000
0000000000
0000000000
0000000000
0000000000
0000000000
0000000000
0000000000
0000000000
0000000000
0000000000
0000000000
ENDCHAR

STARTCHAR Ca2b8
ENCODING 41656
SWIDTH 1000 0
DWIDTH 34 0
BBX 34 34 0 -6
BITMAP
0000000000
0000000000
0000000000
0000000000
0000000000
0000000000
0000000000
0000000000
0000000000
0000000000
0000000000
0000000000
0000000000
0000000000
0000000000
0000000000
0000000000
0000000000
0000000000
0000000000
0000000000
0000000000
0000000000
0000000000
0000000000
0000000000
0000000000
0000000000
0000000000
0000000000
0000000000
0000000000
0000000000
0000000000
ENDCHAR

STARTCHAR Ca2b9
ENCODING 41657
SWIDTH 1000 0
DWIDTH 34 0
BBX 34 34 0 -6
BITMAP
0000000000
0000000000
0000000000
0000000000
0000000000
0000000000
0000000000
0000000000
0000000000
0000000000
0000000000
0000000000
0000000000
0000000000
0000000000
0000000000
0000000000
0000000000
0000000000
0000000000
0000000000
0000000000
0000000000
0000000000
0000000000
0000000000
0000000000
0000000000
0000000000
0000000000
0000000000
0000000000
0000000000
0000000000
ENDCHAR

STARTCHAR Ca2ba
ENCODING 41658
SWIDTH 1000 0
DWIDTH 34 0
BBX 34 34 0 -6
BITMAP
0000000000
0000000000
0000000000
0000000000
0000000000
0000000000
0003FFFC00
001FFFFC00
0038000000
00E0000000
01C0000000
0180000000
0300000000
0300000000
0200000000
0600000000
0600000000
07FFFFFC00
07FFFFFC00
0600000000
0600000000
0300000000
0300000000
0180000000
01C0000000
00E0000000
0078000000
001FFFFC00
0007FFFC00
0000000000
0000000000
0000000000
0000000000
0000000000
ENDCHAR

STARTCHAR Ca2bb
ENCODING 41659
SWIDTH 1000 0
DWIDTH 34 0
BBX 34 34 0 -6
BITMAP
0000000000
0000000000
0000000000
0000000000
0000000000
0000000000
07FFF80000
07FFFF0000
0000038000
000000E000
0000006000
0000003000
0000001800
0000001800
0000000800
0000000C00
0000000C00
07FFFFFC00
07FFFFFC00
0000000C00
0000000C00
0000001800
0000001800
0000003000
0000007000
000000E000
000003C000
07FFFF0000
07FFFC0000
0000000000
0000000000
0000000000
0000000000
0000000000
ENDCHAR

STARTCHAR Ca2bc
ENCODING 41660
SWIDTH 1000 0
DWIDTH 34 0
BBX 34 34 0 -6
BITMAP
0000000000
0000000000
0000000000
0000000000
0000000000
001FFFFE00
007FFFFE00
01C0000000
0380000000
0300000000
0600000000
0600000000
0C00000000
0C00000000
0C00000000
0C00000000
0C00000000
0600000000
0600000000
0300000000
0380000000
01C0000000
007FFFFE00
001FFFFE00
0000000000
0000000000
0000000000
0000000000
0FFFFFFE00
0FFFFFFE00
0000000000
0000000000
0000000000
0000000000
ENDCHAR

STARTCHAR Ca2bd
ENCODING 41661
SWIDTH 1000 0
DWIDTH 34 0
BBX 34 34 0 -6
BITMAP
0000000000
0000000000
0000000000
0000000000
0000000000
0FFFFF0000
0FFFFFC000
0000007000
0000003800
0000001800
0000000C00
0000000C00
0000000600
0000000600
0000000600
0000000600
0000000600
0000000C00
0000000C00
0000001800
0000003800
0000007000
0FFFFFC000
0FFFFF0000
0000000000
0000000000
0000000000
0000000000
0FFFFFFE00
0FFFFFFE00
0000000000
0000000000
0000000000
0000000000
ENDCHAR

STARTCHAR Ca2be
ENCODING 41662
SWIDTH 1000 0
DWIDTH 34 0
BBX 34 34 0 -6
BITMAP
0000000000
0000000000
0000000000
0000000000
0000000000
0000000000
0003FFFC00
001FFFFC00
0038000000
00E0000000
01C0000000
0180000000
0300000000
0300000000
0600000000
0600000000
0600000000
0600000000
0600000000
0600000000
0600000000
0300000000
0300000000
0180000000
01C0000000
00E0000000
0078000000
001FFFFC00
0007FFFC00
0000000000
0000000000
0000000000
0000000000
0000000000
ENDCHAR

STARTCHAR Ca2bf
ENCODING 41663
SWIDTH 1000 0
DWIDTH 34 0
BBX 34 34 0 -6
BITMAP
0000000000
0000000000
0000000000
0000000000
0000000000
0000000000
07FFF80000
07FFFF0000
0000038000
000000E000
0000007000
0000003000
0000001800
0000001800
0000000C00
0000000C00
0000000C00
0000000C00
0000000C00
0000000C00
0000000C00
0000001800
0000001800
0000003000
0000007000
000000E000
000003C000
07FFFF0000
07FFFC0000
0000000000
0000000000
0000000000
0000000000
0000000000
ENDCHAR

STARTCHAR Ca2c0
ENCODING 41664
SWIDTH 1000 0
DWIDTH 34 0
BBX 34 34 0 -6
BITMAP
0000000000
0000000000
0000000000
0000000000
0000000000
0300001800
0300001800
0300001800
0300001800
0300001800
0300001800
0300001800
0300001800
0300001800
0300001800
0300001800
0300001800
0300001800
0300001800
0300001800
0300001800
0300001000
0180003000
0180003000
00C0006000
00E000C000
007001C000
003C078000
000FFE0000
0001F00000
0000000000
0000000000
0000000000
0000000000
ENDCHAR

STARTCHAR Ca2c1
ENCODING 41665
SWIDTH 1000 0
DWIDTH 34 0
BBX 34 34 0 -6
BITMAP
0000000000
0000000000
0000000000
0000000000
0000000000
0001F00000
000FFE0000
003C078000
007001C000
006000E000
00C0006000
0180003000
0180003000
0100001800
0300001800
0300001800
0300001800
0300001800
0300001800
0300001800
0300001800
0300001800
0300001800
0300001800
0300001800
0300001800
0300001800
0300001800
0300001800
0300001800
0000000000
0000000000
0000000000
0000000000
ENDCHAR

STARTCHAR Ca2c2
ENCODING 41666
SWIDTH 1000 0
DWIDTH 34 0
BBX 34 34 0 -6
BITMAP
0000000000
0000000000
0000000000
0000000000
0000000000
0000000000
0000000000
0000000000
0000000000
0000000000
0000000000
0000000000
0000000000
0000000000
0000000000
0000000000
0000000000
0000000000
0000000000
0000000000
0000000000
0000000000
0000000000
0000000000
0000000000
0000000000
0000000000
0000000000
0000000000
0000000000
0000000000
0000000000
0000000000
0000000000
ENDCHAR

STARTCHAR Ca2c3
ENCODING 41667
SWIDTH 1000 0
DWIDTH 34 0
BBX 34 34 0 -6
BITMAP
0000000000
0000000000
0000000000
0000000000
0000000000
0000000000
0000000000
0000000000
0000000000
0000000000
0000000000
0000000000
0000000000
0000000000
0000000000
0000000000
0000000000
0000000000
0000000000
0000000000
0000000000
0000000000
0000000000
0000000000
0000000000
0000000000
0000000000
0000000000
0000000000
0000000000
0000000000
0000000000
0000000000
0000000000
ENDCHAR

STARTCHAR Ca2c4
ENCODING 41668
SWIDTH 1000 0
DWIDTH 34 0
BBX 34 34 0 -6
BITMAP
0000000000
0000000000
0000000000
0000000000
0000000000
0000000000
0000000000
0000000000
0000000000
0000000000
0000000000
0000000000
0000000000
0000000000
0000000000
0000000000
0000000000
0000000000
0000000000
0000000000
0000000000
0000000000
0000000000
0000000000
0000000000
0000000000
0000000000
0000000000
0000000000
0000000000
0000000000
0000000000
0000000000
0000000000
ENDCHAR

STARTCHAR Ca2c5
ENCODING 41669
SWIDTH 1000 0
DWIDTH 34 0
BBX 34 34 0 -6
BITMAP
0000000000
0000000000
0000000000
0000000000
0000000000
0000000000
0000000000
0000000000
0000000000
0000000000
0000000000
0000000000
0000000000
0000000000
0000000000
0000000000
0000000000
0000000000
0000000000
0000000000
0000000000
0000000000
0000000000
0000000000
0000000000
0000000000
0000000000
0000000000
0000000000
0000000000
0000000000
0000000000
0000000000
0000000000
ENDCHAR

STARTCHAR Ca2c6
ENCODING 41670
SWIDTH 1000 0
DWIDTH 34 0
BBX 34 34 0 -6
BITMAP
0000000000
0000000000
0000000000
0000000000
0000000000
0000000000
0000000000
0000000000
0000000000
0000000000
0000000000
0000000000
0000000000
0000000000
0000000000
0000000000
0000000000
0000000000
0000000000
0000000000
0000000000
0000000000
0000000000
0000000000
0000000000
0000000000
0000000000
0000000000
0000000000
0000000000
0000000000
0000000000
0000000000
0000000000
ENDCHAR

STARTCHAR Ca2c7
ENCODING 41671
SWIDTH 1000 0
DWIDTH 34 0
BBX 34 34 0 -6
BITMAP
0000000000
0000000000
0000000000
0000000000
0000000000
0000000000
0000000000
0000000000
0000000000
0000000000
0000000000
0000000000
0000000000
0000000000
0000000000
0000000000
0000000000
0000000000
0000000000
0000000000
0000000000
0000000000
0000000000
0000000000
0000000000
0000000000
0000000000
0000000000
0000000000
0000000000
0000000000
0000000000
0000000000
0000000000
ENDCHAR

STARTCHAR Ca2c8
ENCODING 41672
SWIDTH 1000 0
DWIDTH 34 0
BBX 34 34 0 -6
BITMAP
0000000000
0000000000
0000000000
0000000000
0000000000
0000000000
0000000000
0000000000
0000000000
0000000000
0000000000
0000000000
0000000000
0000000000
0000000000
0000000000
0000000000
0000000000
0000000000
0000000000
0000000000
0000000000
0000000000
0000000000
0000000000
0000000000
0000000000
0000000000
0000000000
0000000000
0000000000
0000000000
0000000000
0000000000
ENDCHAR

STARTCHAR Ca2c9
ENCODING 41673
SWIDTH 1000 0
DWIDTH 34 0
BBX 34 34 0 -6
BITMAP
0000000000
0000000000
0000000000
0000000000
0000000000
0000000000
0000000000
0000000000
0000000000
0000000000
0000000000
0000000000
0000000000
0000000000
0000000000
0000000000
0000000000
0000000000
0000000000
0000000000
0000000000
0000000000
0000000000
0000000000
0000000000
0000000000
0000000000
0000000000
0000000000
0000000000
0000000000
0000000000
0000000000
0000000000
ENDCHAR

STARTCHAR Ca2ca
ENCODING 41674
SWIDTH 1000 0
DWIDTH 34 0
BBX 34 34 0 -6
BITMAP
0000000000
0000000000
0000000000
0000400000
0000400000
0000E00000
0000E00000
0001B00000
0001300000
0003180000
0006180000
00060C0000
000C040000
000C060000
0018030000
0018030000
0030018000
0030018000
006000C000
006000C000
00C0006000
00C0006000
0180003000
0180003000
0300001800
0300001800
0600000C00
0600000C00
0C00000600
0C00000600
1800000300
0000000000
0000000000
0000000000
ENDCHAR

STARTCHAR Ca2cb
ENCODING 41675
SWIDTH 1000 0
DWIDTH 34 0
BBX 34 34 0 -6
BITMAP
0000000000
0000000000
0000000000
0000000000
1800000300
0C00000600
0C00000600
0600000C00
0600000C00
0300001800
0300001800
0180003000
0180003000
00C0006000
00C0006000
006000C000
006000C000
0030018000
0030018000
0018030000
0018030000
000C060000
000C060000
00060C0000
0002080000
0003180000
0001100000
0001B00000
0000E00000
0000E00000
0000400000
0000400000
0000000000
0000000000
ENDCHAR

STARTCHAR Ca2cc
ENCODING 41676
SWIDTH 1000 0
DWIDTH 34 0
BBX 34 34 0 -6
BITMAP
0000000000
0000000000
0000000000
0000000000
0000000000
0000000000
0000000000
0000000000
0000000000
0000000000
0000000000
1FFFFFFF00
1FFFFFFF00
0000000300
0000000300
0000000300
0000000300
0000000300
0000000300
0000000300
0000000300
0000000300
0000000300
0000000300
0000000300
0000000000
0000000000
0000000000
0000000000
0000000000
0000000000
0000000000
0000000000
0000000000
ENDCHAR

STARTCHAR Ca2cd
ENCODING 41677
SWIDTH 1000 0
DWIDTH 34 0
BBX 34 34 0 -6
BITMAP
0000000000
0000000000
0000000000
0000000000
0000000000
0000000000
0000000000
0000000000
0000010000
0000030000
0000018000
000000C000
0000006000
1FFFFFF000
0000001800
0000000C00
0000000600
0000000300
0000000600
0000000C00
0000001C00
1FFFFFF800
0000007000
000000E000
000001C000
0000038000
0000010000
0000000000
0000000000
0000000000
0000000000
0000000000
0000000000
0000000000
ENDCHAR

STARTCHAR Ca2ce
ENCODING 41678
SWIDTH 1000 0
DWIDTH 34 0
BBX 34 34 0 -6
BITMAP
0000000000
0000000000
0000000000
0000000000
0000000000
0000000000
0000000000
0000000000
0010008000
0030018000
006000C000
00C0006000
0180003000
03FFFFF800
0600000C00
0C00000600
1800000300
3000000100
1800000300
0C00000600
0600000C00
03FFFFF800
0180003000
00C0006000
006000C000
0030038000
0010010000
0000000000
0000000000
0000000000
0000000000
0000000000
0000000000
0000000000
ENDCHAR

STARTCHAR Ca2cf
ENCODING 41679
SWIDTH 1000 0
DWIDTH 34 0
BBX 34 34 0 -6
BITMAP
0000000000
0000000000
0000000000
0000000000
1800000300
0C00000600
0C00000600
0600000C00
0600000C00
0300001800
0300001800
0180003000
0180003000
00C0006000
00FFFFE000
006000C000
006000C000
0030018000
0030018000
0018030000
0018030000
000C060000
000C060000
00060C0000
0002080000
0003180000
0001100000
0001B00000
0000E00000
0000E00000
0000400000
0000400000
0000000000
0000000000
ENDCHAR

STARTCHAR Ca2d0
ENCODING 41680
SWIDTH 1000 0
DWIDTH 34 0
BBX 34 34 0 -6
BITMAP
0000000000
0000000000
0000000000
0000000000
0000000000
07FFFFF800
07FFFFF800
0000001800
0000001800
0000001800
0000001800
0000001800
0000001800
0000001800
0000001800
0000001800
0000001800
07FFFFF800
07FFFFF800
0000001800
0000001800
0000001800
0000001800
0000001800
0000001800
0000001800
0000001800
0000001800
07FFFFF800
07FFFFF800
0000000000
0000000000
0000000000
0000000000
ENDCHAR

STARTCHAR Ca2d1
ENCODING 41681
SWIDTH 1000 0
DWIDTH 34 0
BBX 34 34 0 -6
BITMAP
0000000000
0000000000
0000000000
0000000000
0000000000
0000000000
0000000000
0000000000
0000000000
0000000000
0000000000
0000000000
0000000000
0000000000
0000000000
0000000000
0000000000
0000000000
0000000000
0000000000
0000000000
0000000000
0000000000
0000000000
0000000000
0000000000
0000000000
0000000000
0000000000
0000000000
0000000000
0000000000
0000000000
0000000000
ENDCHAR

STARTCHAR Ca2d2
ENCODING 41682
SWIDTH 1000 0
DWIDTH 34 0
BBX 34 34 0 -6
BITMAP
0000000000
0000000000
0000000000
0000000000
0000000000
0000000000
0000000000
0000000000
0000000000
0000000000
0000000000
0000000000
0000000000
0000000000
0000000000
0000000000
0000000000
0000000000
0000000000
0000000000
0000000000
0000000000
0000000000
0000000000
0000000000
0000000000
0000000000
0000000000
0000000000
0000000000
0000000000
0000000000
0000000000
0000000000
ENDCHAR

STARTCHAR Ca2d3
ENCODING 41683
SWIDTH 1000 0
DWIDTH 34 0
BBX 34 34 0 -6
BITMAP
0000000000
0000000000
0000000000
0000000000
0000000000
0000000000
0000000000
0000000000
0000000000
0000000000
0000000000
0000000000
0000000000
0000000000
0000000000
0000000000
0000000000
0000000000
0000000000
0000000000
0000000000
0000000000
0000000000
0000000000
0000000000
0000000000
0000000000
0000000000
0000000000
0000000000
0000000000
0000000000
0000000000
0000000000
ENDCHAR

STARTCHAR Ca2d4
ENCODING 41684
SWIDTH 1000 0
DWIDTH 34 0
BBX 34 34 0 -6
BITMAP
0000000000
0000000000
0000000000
0000000000
0000000000
0000000000
0000000000
0000000000
0000000000
0000000000
0000000000
0000000000
0000000000
0000000000
0000000000
0000000000
0000000000
0000000000
0000000000
0000000000
0000000000
0000000000
0000000000
0000000000
0000000000
0000000000
0000000000
0000000000
0000000000
0000000000
0000000000
0000000000
0000000000
0000000000
ENDCHAR

STARTCHAR Ca2d5
ENCODING 41685
SWIDTH 1000 0
DWIDTH 34 0
BBX 34 34 0 -6
BITMAP
0000000000
0000000000
0000000000
0000000000
0000000000
0000000000
0000000000
0000000000
0000000000
0000000000
0000000000
0000000000
0000000000
0000000000
0000000000
0000000000
0000000000
0000000000
0000000000
0000000000
0000000000
0000000000
0000000000
0000000000
0000000000
0000000000
0000000000
0000000000
0000000000
0000000000
0000000000
0000000000
0000000000
0000000000
ENDCHAR

STARTCHAR Ca2d6
ENCODING 41686
SWIDTH 1000 0
DWIDTH 34 0
BBX 34 34 0 -6
BITMAP
0000000000
0000000000
0000000000
0000000000
0000000000
0000000000
0000000000
0000000000
0000000000
0000000000
0000000000
0000000000
0000000000
0000000000
0000000000
0000000000
0000000000
0000000000
0000000000
0000000000
0000000000
0000000000
0000000000
0000000000
0000000000
0000000000
0000000000
0000000000
0000000000
0000000000
0000000000
0000000000
0000000000
0000000000
ENDCHAR

STARTCHAR Ca2d7
ENCODING 41687
SWIDTH 1000 0
DWIDTH 34 0
BBX 34 34 0 -6
BITMAP
0000000000
0000000000
0000000000
0000000000
0000000000
0000000000
0000000000
0000000000
0000000000
0000000000
0000000000
0000000000
0000000000
0000000000
0000000000
0000000000
0000000000
0000000000
0000000000
0000000000
0000000000
0000000000
0000000000
0000000000
0000000000
0000000000
0000000000
0000000000
0000000000
0000000000
0000000000
0000000000
0000000000
0000000000
ENDCHAR

STARTCHAR Ca2d8
ENCODING 41688
SWIDTH 1000 0
DWIDTH 34 0
BBX 34 34 0 -6
BITMAP
0000000000
0000000000
0000000000
0000000000
0000000000
0000000000
0000000000
0000000000
0000000000
0000000000
0000000000
0000000000
0000000000
0000000000
0000000000
0000000000
0000000000
0000000000
0000000000
0000000000
0000000000
0000000000
0000000000
0000000000
0000000000
0000000000
0000000000
0000000000
0000000000
0000000000
0000000000
0000000000
0000000000
0000000000
ENDCHAR

STARTCHAR Ca2d9
ENCODING 41689
SWIDTH 1000 0
DWIDTH 34 0
BBX 34 34 0 -6
BITMAP
0000000000
0000000000
0000000000
0000000000
0000000000
0000000000
0000000000
0000000000
0000000000
0000000000
0000000000
0000000000
0000000000
0000000000
0000000000
0000000000
0000000000
0000000000
0000000000
0000000000
0000000000
0000000000
0000000000
0000000000
0000000000
0000000000
0000000000
0000000000
0000000000
0000000000
0000000000
0000000000
0000000000
0000000000
ENDCHAR

STARTCHAR Ca2da
ENCODING 41690
SWIDTH 1000 0
DWIDTH 34 0
BBX 34 34 0 -6
BITMAP
0000000000
0000000000
0000000000
0000000000
0000000000
0000000000
0000000000
0000000000
0000000000
0000000000
0000000000
0000000000
0000000000
0000000000
0000000000
0000000000
0000000000
0000000000
0000000000
0000000000
0000000000
0000000000
0000000000
0000000000
0000000000
0000000000
0000000000
0000000000
0000000000
0000000000
0000000000
0000000000
0000000000
0000000000
ENDCHAR

STARTCHAR Ca2db
ENCODING 41691
SWIDTH 1000 0
DWIDTH 34 0
BBX 34 34 0 -6
BITMAP
0000000000
0000000000
0000000000
0000000000
0000000000
0000000000
0000000000
0000000000
0000000000
0000000000
0000000000
0000000000
0000000000
0000000000
0000000000
0000000000
0000000000
0000000000
0000000000
0000000000
0000000000
0000000000
0000000000
0000000000
0000000000
0000000000
0000000000
0000000000
0000000000
0000000000
0000000000
0000000000
0000000000
0000000000
ENDCHAR

STARTCHAR Ca2dc
ENCODING 41692
SWIDTH 1000 0
DWIDTH 34 0
BBX 34 34 0 -6
BITMAP
0000000000
0000000000
0000000000
0000000600
0000000E00
0000001C00
0000003800
0000007000
000000E000
000001C000
0000038000
0000070000
00000E0000
00001C0000
0000380000
0000700000
0000C00000
0001800000
0003000000
0006000000
000C000000
0018000000
0030000000
0060000000
00C0000000
0180000000
0300000000
0600000000
0FFFFFFE00
1FFFFFFE00
0000000000
0000000000
0000000000
0000000000
ENDCHAR

STARTCHAR Ca2dd
ENCODING 41693
SWIDTH 1000 0
DWIDTH 34 0
BBX 34 34 0 -6
BITMAP
0000000000
0000000000
0000000000
0000600000
0000600000
0000600000
0000600000
0000600000
0000600000
0000600000
0000600000
0000600000
0000600000
0000600000
0000600000
0000600000
0000600000
0000600000
0000600000
0000600000
0000600000
0000600000
0000600000
0000600000
0000600000
0000600000
0000600000
0000600000
1FFFFFFF00
1FFFFFFF00
0000000000
0000000000
0000000000
0000000000
ENDCHAR

STARTCHAR Ca2de
ENCODING 41694
SWIDTH 1000 0
DWIDTH 34 0
BBX 34 34 0 -6
BITMAP
0000000000
0000000000
0000000000
000FFC0000
007F1FC000
03C000F000
0700001C00
1C00000700
3000000300
2000000000
2000000040
0000000000
0000000000
0000000000
0000000000
0000000000
0000000000
0000000000
0000000000
0000000000
0000000000
0000000000
0000000000
0000000000
0000000000
0000000000
0000000000
0000000000
0000000000
0000000000
0000000000
0000000000
0000000000
0000000000
ENDCHAR

STARTCHAR Ca2df
ENCODING 41695
SWIDTH 1000 0
DWIDTH 34 0
BBX 34 34 0 -6
BITMAP
0000000000
0000000000
0000000000
0000000000
0000780000
0001FE0000
0003070000
0002030000
0000018000
0000018000
0000018000
0000018000
0000018000
000001C000
000001C000
0001F1C000
00038D8000
0006058000
000E038000
001C038000
0018038000
0018038000
0018030000
0018030000
0018070000
0018060000
00180C0000
001C1C0000
000E380000
0007F00000
0000800000
0000000000
0000000000
0000000000
ENDCHAR

STARTCHAR Ca2e0
ENCODING 41696
SWIDTH 1000 0
DWIDTH 34 0
BBX 34 34 0 -6
BITMAP
0000000000
0000000000
0000000000
0000000000
0000000000
0000000000
07FFFFFC00
07FFFFFC00
0300000800
0300001800
0180001000
0180002000
00C0002000
00E0004000
0060004000
0030008000
0030008000
0018010000
0018010000
000C020000
000C020000
0006040000
0006040000
0003080000
0003080000
0001900000
0001900000
0000E00000
0000E00000
0000400000
0000400000
0000000000
0000000000
0000000000
ENDCHAR

STARTCHAR Ca2e1
ENCODING 41697
SWIDTH 1000 0
DWIDTH 34 0
BBX 34 34 0 -6
BITMAP
0000000000
0000000000
0000000000
0000000000
0000000000
0000000000
0000000000
0000000000
0000000000
03FFFFF800
03FFFFF800
0000000000
0000000000
0000000000
0000000000
0000000000
0000000000
03FFFFF800
03FFFFF800
0000000000
0000000000
0000000000
0000000000
0000000000
0000000000
03FFFFF800
03FFFFF800
0000000000
0000000000
0000000000
0000000000
0000000000
0000000000
0000000000
ENDCHAR

STARTCHAR Ca2e2
ENCODING 41698
SWIDTH 1000 0
DWIDTH 34 0
BBX 34 34 0 -6
BITMAP
0000000000
0000000000
0000000000
0000000000
0000000000
0000000000
0000000000
0038000000
003C000000
003C000000
0038000000
0000000000
0000000000
03FFFFF800
03FFFFF800
0000000000
0000000000
0000000000
0000000000
03FFFFF800
03FFFFF800
0000000000
0000000000
0000038000
000007C000
000007C000
0000038000
0000000000
0000000000
0000000000
0000000000
0000000000
0000000000
0000000000
ENDCHAR

STARTCHAR Ca2e3
ENCODING 41699
SWIDTH 1000 0
DWIDTH 34 0
BBX 34 34 0 -6
BITMAP
0000000000
0000000000
0000010F00
00000E0E00
00001C3800
0000387000
0000E0E000
0001C1C000
0003838000
00070E0000
000E1C0000
0018380000
0070700000
00E0C00000
01C3800000
0387000000
060E000000
1C1C000000
0E0E000000
0387000000
01C3800000
00E0C00000
0070700000
0038380000
000E1C0000
00070E0000
0003830000
0001C1C000
0000E0E000
0000307000
00001C3800
00000F0F00
0000000000
0000000000
ENDCHAR

STARTCHAR Ca2e4
ENCODING 41700
SWIDTH 1000 0
DWIDTH 34 0
BBX 34 34 0 -6
BITMAP
0000000000
0000000000
1E10000000
0E0E000000
0387000000
01C3800000
00E0E00000
0070700000
0038380000
000E1C0000
00070E0000
0003830000
0001C1C000
0000E0E000
0000387000
00001C3800
00000E0C00
0000070700
00000E0C00
00001C3800
0000387000
000060E000
0001C1C000
0003838000
00070E0000
000E1C0000
0018380000
0070700000
00E0E00000
01C3800000
0387000000
1E1E000000
0000000000
0000000000
ENDCHAR

STARTCHAR Ca2e5
ENCODING 41701
SWIDTH 1000 0
DWIDTH 34 0
BBX 34 34 0 -6
BITMAP
0000000000
00003FFF40
0000300000
0000700000
0000600000
0000600000
0000C00000
0000C00000
0000C00000
0001800000
0001800000
0003800000
0003000000
0003000000
0007000000
0006000000
0406000000
040E000000
0C0C000000
0E1C000000
0E18000000
1618000000
1738000000
3330000000
2330000000
03F0000000
01E0000000
01E0000000
01E0000000
00C0000000
00C0000000
00C0000000
0040000000
0000000000
ENDCHAR

STARTCHAR Ca2e6
ENCODING 41702
SWIDTH 1000 0
DWIDTH 34 0
BBX 34 34 0 -6
BITMAP
0000000000
0000000000
0000000000
0000000000
0000000000
0000000000
0000000000
0000000000
0000000000
0000000000
0000000000
01F003F000
07F80FF800
0E081C0C00
0C00380600
1800700600
1800600600
1800C00600
1801C00600
1803800600
0C03000E00
0E0E041C00
07FC07F800
01F003F000
0000000000
0000000000
0000000000
0000000000
0000000000
0000000000
0000000000
0000000000
0000000000
0000000000
ENDCHAR

STARTCHAR Ca2e7
ENCODING 41703
SWIDTH 1000 0
DWIDTH 34 0
BBX 34 34 0 -6
BITMAP
0000000000
0000000000
0000000000
0000000000
0000000000
0000000000
0000000000
0000000000
0000000000
0000000000
0000000000
01F003F000
03FC07FC00
070E1C0E00
0E03180600
0C01B00000
0C00E00000
0800E00000
0800E00000
0C01B00000
0C03180600
06070C0E00
03FE07FC00
01F803F000
0000000000
0000000000
0000000000
0000000000
0000000000
0000000000
0000000000
0000000000
0000000000
0000000000
ENDCHAR

STARTCHAR Ca2e8
ENCODING 41704
SWIDTH 1000 0
DWIDTH 34 0
BBX 34 34 0 -6
BITMAP
0000000000
0000000000
0000000000
0000000000
0000000000
0000000000
0000000000
00E000E000
01E000F000
01E000F000
01E000F000
0000000000
0000000000
0000000000
0000000000
0000000000
0000000000
0000000000
0000000000
0000000000
0000000000
0000000000
0000000000
0000000000
0000E00000
0001F00000
0001F00000
0000E00000
0000000000
0000000000
0000000000
0000000000
0000000000
0000000000
ENDCHAR

STARTCHAR Ca2e9
ENCODING 41705
SWIDTH 1000 0
DWIDTH 34 0
BBX 34 34 0 -6
BITMAP
0000000000
0000000000
0000030000
00000FC000
000019C000
000019C000
0000300000
0000300000
0000300000
0000700000
0000700000
0000600000
0000600000
0000600000
0000600000
0000600000
0000600000
0000600000
0000600000
0000600000
0000600000
0000E00000
0000E00000
0000E00000
0000E00000
0000C00000
0000C00000
0000C00000
0070C00000
0071800000
0061800000
0033000000
000C000000
0000000000
ENDCHAR

STARTCHAR Ca2ea
ENCODING 41706
SWIDTH 1000 0
DWIDTH 34 0
BBX 34 34 0 -6
BITMAP
0000000000
0000000000
0000801000
0003E0EC00
0006308600
000C798E00
000C718E00
000C030000
000C030000
001C030000
0018030000
0018030000
0018030000
0018030000
0018070000
0018070000
0018070000
0018070000
0018070000
0018070000
0018070000
0038060000
0038060000
0038060000
0038060000
0030060000
0030060000
00300E0000
00300C0000
0E638C0000
1E63980000
0FC3B00000
0200C00000
0000000000
ENDCHAR

STARTCHAR Ca2eb
ENCODING 41707
SWIDTH 1000 0
DWIDTH 34 0
BBX 34 34 0 -6
BITMAP
0000000000
0000000000
0000000000
0000000000
0000000000
0000000000
0000000000
0000000000
0000000000
0000000000
0000000000
0000000000
0000000000
0000000000
0000000000
0000000000
0000000000
0000000000
0000000000
0000000000
0000000000
0000000000
0000000000
0000000000
0000000000
0000000000
0000000000
0000000000
0000000000
0000000000
0000000000
0000000000
0000000000
0000000000
ENDCHAR

STARTCHAR Ca2ec
ENCODING 41708
SWIDTH 1000 0
DWIDTH 34 0
BBX 34 34 0 -6
BITMAP
0000000000
0000000000
0000000000
0000000000
0000000000
0000000000
0000000000
0000000000
0000000000
0000000000
0000000000
0000000000
0000000000
0000000000
0000000000
0000000000
0000000000
0000000000
0000000000
0000000000
0000000000
0000000000
0000000000
0000000000
0000000000
0000000000
0000000000
0000000000
0000000000
0000000000
0000000000
0000000000
0000000000
0000000000
ENDCHAR

STARTCHAR Ca2ed
ENCODING 41709
SWIDTH 1000 0
DWIDTH 34 0
BBX 34 34 0 -6
BITMAP
0000000000
0000000000
0000000000
0000000000
0000000000
0000000000
0000000000
0000000000
0000000000
0000000000
0000000000
0000000000
0000000000
0000000000
0000000000
0000000000
0000000000
0000000000
0000000000
0000000000
0000000000
0000000000
0000000000
0000000000
0000000000
0000000000
0000000000
0000000000
0000000000
0000000000
0000000000
0000000000
0000000000
0000000000
ENDCHAR

STARTCHAR Ca2ee
ENCODING 41710
SWIDTH 1000 0
DWIDTH 34 0
BBX 34 34 0 -6
BITMAP
0000000000
0000000000
0000000000
0000000000
0000000000
0000000000
0000000000
0000000000
0000000000
0000000000
0000000000
0000000000
0000000000
0000000000
0000000000
0000000000
0000000000
0000000000
0000000000
0000000000
0000000000
0000000000
0000000000
0000000000
0000000000
0000000000
0000000000
0000000000
0000000000
0000000000
0000000000
0000000000
0000000000
0000000000
ENDCHAR

STARTCHAR Ca2ef
ENCODING 41711
SWIDTH 1000 0
DWIDTH 34 0
BBX 34 34 0 -6
BITMAP
0000000000
0000000000
0000000000
0000000000
0000000000
0000000000
0000000000
0000000000
0000000000
0000000000
0000000000
0000000000
0000000000
0000000000
0000000000
0000000000
0000000000
0000000000
0000000000
0000000000
0000000000
0000000000
0000000000
0000000000
0000000000
0000000000
0000000000
0000000000
0000000000
0000000000
0000000000
0000000000
0000000000
0000000000
ENDCHAR

STARTCHAR Ca2f0
ENCODING 41712
SWIDTH 1000 0
DWIDTH 34 0
BBX 34 34 0 -6
BITMAP
0000000000
0000000000
0000000000
0000000000
0000000000
0000000000
0000000000
0000000000
0000000000
0000000000
0000000000
0000000000
0000000000
0000000000
0000000000
0000000000
0000000000
0000000000
0000000000
0000000000
0000000000
0000000000
0000000000
0000000000
0000000000
0000000000
0000000000
0000000000
0000000000
0000000000
0000000000
0000000000
0000000000
0000000000
ENDCHAR

STARTCHAR Ca2f1
ENCODING 41713
SWIDTH 1000 0
DWIDTH 34 0
BBX 34 34 0 -6
BITMAP
0000000000
0000000000
0000000000
0000000000
0000000000
0000000000
0000000000
0000000000
0000000000
0000000000
0000000000
0000000000
0000000000
0000000000
0000000000
0000000000
0000000000
0000000000
0000000000
0000000000
0000000000
0000000000
0000000000
0000000000
0000000000
0000000000
0000000000
0000000000
0000000000
0000000000
0000000000
0000000000
0000000000
0000000000
ENDCHAR

STARTCHAR Ca2f2
ENCODING 41714
SWIDTH 1000 0
DWIDTH 34 0
BBX 34 34 0 -6
BITMAP
0000000000
0000000000
0000400000
0001B00000
0001100000
0001100000
0001100000
0000E00000
0000C00000
0000E00000
0001E00000
0001700000
0001700000
0003380000
0002380000
00061C0000
00041C0000
00040C0000
000C0E0000
00080E0000
001FFF0000
0010070000
0030038000
0030038000
002001C000
006001C000
00E001E000
07F80FFC00
0000000000
0000000000
0000000000
0000000000
0000000000
0000000000
ENDCHAR

STARTCHAR Ca2f3
ENCODING 41715
SWIDTH 1000 0
DWIDTH 34 0
BBX 34 34 0 -6
BITMAP
0000000000
0000000000
0000040000
0100180000
06E0180000
0C30300000
1830300000
1830600000
1838600000
1818C00000
1818C00000
1839800000
1831800000
1833000000
0C33000000
0E66000000
0386000000
000C000000
0008701C00
0018986600
00118C4200
00330CC300
00630CC300
00630CC300
00C306C300
00C306C300
01830EC300
01830CC300
03030CC300
03018C6200
0600986600
0E00701800
0000000000
0000000000
ENDCHAR

STARTCHAR Ca2f4
ENCODING 41716
SWIDTH 1000 0
DWIDTH 34 0
BBX 34 34 0 -6
BITMAP
0000000000
0000000000
0000000000
0000000000
0004040000
0004040000
0004040000
0004040000
0004040000
0004042000
000407E000
00047FE000
000FFF0000
00FFE40000
00FC040000
00C4040000
0004040000
0004040000
0004040000
0004042000
000407E000
0004FFE000
000FFF0000
00FFE40000
00FC040000
0084040000
0004040000
0004040000
0004040000
0004040000
0004040000
0000000000
0000000000
0000000000
ENDCHAR

STARTCHAR Ca2f5
ENCODING 41717
SWIDTH 1000 0
DWIDTH 34 0
BBX 34 34 0 -6
BITMAP
0000000000
0000000000
0000000000
000C000000
000C000000
000C000000
000C000000
000C000000
000C000000
000C000000
000C000000
000C000000
000C000000
000CFC0000
000F0E0000
000E070000
000C070000
000C070000
000C070000
000C070000
000C070000
000C060000
000C060000
000C0C0000
000C180000
000C300000
000C600000
000CC00000
000D800000
000F000000
000C000000
0000000000
0000000000
0000000000
ENDCHAR

STARTCHAR Ca2f6
ENCODING 41718
SWIDTH 1000 0
DWIDTH 34 0
BBX 34 34 0 -6
BITMAP
0000000000
0000000000
0000000000
0000800000
0000800000
0000C00000
0000E00000
0000F00000
0000F80000
0000BC0000
00009F0000
00008F8000
000083C000
000081E000
000080F000
0000807800
0000803800
0000803800
0000803800
0000803000
0000806000
000080C000
0000838000
0000810000
0000800000
007E800000
00FF800000
01FF800000
01FF000000
01FF000000
00FE000000
0000000000
0000000000
0000000000
ENDCHAR

STARTCHAR Ca2f7
ENCODING 41719
SWIDTH 1000 0
DWIDTH 34 0
BBX 34 34 0 -6
BITMAP
0000000000
0000000000
0000000000
0000E00000
0001F00000
0001F00000
0001F00000
0000E00000
000EEE0000
001FFF0000
001FFF0000
000E4E0000
0000E00000
0001F00000
0001F00000
0000E00000
0000E00000
0000E00000
0000400000
0000400000
0000400000
0000400000
0000400000
0000400000
0000400000
0000400000
0000400000
0000400000
0000400000
0000400000
0000400000
0000400000
0000000000
0000000000
ENDCHAR

STARTCHAR Ca2f8
ENCODING 41720
SWIDTH 1000 0
DWIDTH 34 0
BBX 34 34 0 -6
BITMAP
0000000000
0000000000
0000E00000
0001F00000
0000E00000
0000E00000
000CE60000
001FFF0000
001FFF0000
001E4F0000
0000E00000
0000E00000
0000E00000
0000400000
0000400000
0000400000
0000400000
0000400000
0000400000
0000400000
0000400000
0000400000
0000E00000
0000E00000
0000E00000
001C670000
001FFF0000
001FFF0000
001EE70000
0000E00000
0000E00000
0001F00000
0000E00000
0000000000
ENDCHAR

STARTCHAR Ca2f9
ENCODING 41721
SWIDTH 1000 0
DWIDTH 34 0
BBX 34 34 0 -6
BITMAP
0000000000
0000000000
0000000000
0000000000
0007FE0000
001FFE0000
003F860000
003F860000
007F860000
007F860000
007F860000
007F860000
003F860000
003F860000
001F860000
0007860000
0001860000
0001860000
0001860000
0001860000
0001860000
0001860000
0001860000
0001860000
0001860000
0001860000
0001860000
0001860000
0001860000
0001860000
0001860000
0001860000
0000000000
0000000000
ENDCHAR

STARTCHAR Ca2fa
ENCODING 41722
SWIDTH 1000 0
DWIDTH 34 0
BBX 34 34 0 -6
BITMAP
0000000000
0000000000
0000000000
0000000000
0000000000
0000000000
0000000000
0000000000
0000000000
0000000000
0000000000
0000000000
0000000000
0000000000
0000000000
0000000000
0000000000
0000000000
0000000000
0000000000
0000000000
0000000000
0000000000
0000000000
0000000000
0000000000
0000000000
0000000000
0000000000
0000000000
0000000000
0000000000
0000000000
0000000000
ENDCHAR

STARTCHAR Ca2fb
ENCODING 41723
SWIDTH 1000 0
DWIDTH 34 0
BBX 34 34 0 -6
BITMAP
0000000000
0000000000
0000000000
0000000000
0000000000
0000000000
0000000000
0000000000
0000000000
0000000000
0000000000
0000000000
0000000000
0000000000
0000000000
0000000000
0000000000
0000000000
0000000000
0000000000
0000000000
0000000000
0000000000
0000000000
0000000000
0000000000
0000000000
0000000000
0000000000
0000000000
0000000000
0000000000
0000000000
0000000000
ENDCHAR

STARTCHAR Ca2fc
ENCODING 41724
SWIDTH 1000 0
DWIDTH 34 0
BBX 34 34 0 -6
BITMAP
0000000000
0000000000
0000000000
0000000000
0000000000
0000000000
0000000000
0000000000
0000000000
0000000000
0000000000
0000000000
0000000000
0000000000
0000000000
0000000000
0000000000
0000000000
0000000000
0000000000
0000000000
0000000000
0000000000
0000000000
0000000000
0000000000
0000000000
0000000000
0000000000
0000000000
0000000000
0000000000
0000000000
0000000000
ENDCHAR

STARTCHAR Ca2fd
ENCODING 41725
SWIDTH 1000 0
DWIDTH 34 0
BBX 34 34 0 -6
BITMAP
0000000000
0000000000
0000000000
0000000000
0000000000
0000000000
0000000000
0000000000
0000000000
0000000000
0000000000
0000000000
0000000000
0000000000
0000000000
0000000000
0000000000
0000000000
0000000000
0000000000
0000000000
0000000000
0000000000
0000000000
0000000000
0000000000
0000000000
0000000000
0000000000
0000000000
0000000000
0000000000
0000000000
0000000000
ENDCHAR

STARTCHAR Ca2fe
ENCODING 41726
SWIDTH 1000 0
DWIDTH 34 0
BBX 34 34 0 -6
BITMAP
0000000000
0000000000
0000400000
000FBE0000
0030018000
00C0004000
0180003000
0300001800
0600000C00
0400000400
0800000600
0800000200
1000000300
1000000100
1000000100
3000000100
3000000100
3000000100
3000000100
3000000100
1000000100
1000000100
1000000300
0800000200
0800000200
0400000400
0600000C00
0300001800
0180003000
00C0006000
0030018000
000F1E0000
0000E00000
0000000000
ENDCHAR

STARTCHAR Ca3a2
ENCODING 41890
SWIDTH 1000 0
DWIDTH 34 0
BBX 34 34 0 -6
BITMAP
0000000000
0000000000
0000000000
0000000000
0000000000
0000000000
0000000000
0000000000
0000000000
0000000000
0000000000
0000000000
0000000000
0000000000
0000000000
0000000000
0000000000
0000000000
0000000000
0000000000
0000000000
0000000000
0000000000
0000000000
0000000000
0000000000
0000000000
0000000000
0000000000
0000000000
0000000000
0000000000
0000000000
0000000000
ENDCHAR

STARTCHAR Ca3a3
ENCODING 41891
SWIDTH 1000 0
DWIDTH 34 0
BBX 34 34 0 -6
BITMAP
0000000000
0000000000
0000000000
0000000000
0000000000
0000000000
0000000000
0000000000
0000000000
0000000000
0000000000
0000000000
0000000000
0000000000
0000000000
0000000000
0000000000
0000000000
0000000000
0000000000
0000000000
0000000000
0000000000
0000000000
0000000000
0000000000
0000000000
0000000000
0000000000
0000000000
0000000000
0000000000
0000000000
0000000000
ENDCHAR

STARTCHAR Ca3a4
ENCODING 41892
SWIDTH 1000 0
DWIDTH 34 0
BBX 34 34 0 -6
BITMAP
0000000000
0000000000
0000000000
0000000000
0000000000
0000000000
0000000000
0000000000
0000000000
0000000000
0000000000
0000000000
0000000000
0000000000
0000000000
0000000000
0000000000
0000000000
0000000000
0000000000
0000000000
0000000000
0000000000
0000000000
0000000000
0000000000
0000000000
0000000000
0000000000
0000000000
0000000000
0000000000
0000000000
0000000000
ENDCHAR

STARTCHAR Ca3a5
ENCODING 41893
SWIDTH 1000 0
DWIDTH 34 0
BBX 34 34 0 -6
BITMAP
0000000000
0000000000
0000000000
0000000000
0000000000
0000000000
0000000000
0000000000
0000000000
0000000000
0000000000
0000000000
0000000000
0000000000
0000000000
0000000000
0000000000
0000000000
0000000000
0000000000
0000000000
0000000000
0000000000
0000000000
0000000000
0000000000
0000000000
0000000000
0000000000
0000000000
0000000000
0000000000
0000000000
0000000000
ENDCHAR

STARTCHAR Ca3a6
ENCODING 41894
SWIDTH 1000 0
DWIDTH 34 0
BBX 34 34 0 -6
BITMAP
0000000000
0000000000
0000000000
0000000000
0000000000
0000000000
0000000000
0000000000
0000000000
0000000000
0000000000
0000000000
0000000000
0000000000
0000000000
0000000000
0000000000
0000000000
0000000000
0000000000
0000000000
0000000000
0000000000
0000000000
0000000000
0000000000
0000000000
0000000000
0000000000
0000000000
0000000000
0000000000
0000000000
0000000000
ENDCHAR

STARTCHAR Ca3a7
ENCODING 41895
SWIDTH 1000 0
DWIDTH 34 0
BBX 34 34 0 -6
BITMAP
0000000000
0000000000
0000000000
0000000000
0000000000
0000000000
0000000000
0000000000
0000000000
0000000000
0000000000
0000000000
0000000000
0000000000
0000000000
0000000000
0000000000
0000000000
0000000000
0000000000
0000000000
0000000000
0000000000
0000000000
0000000000
0000000000
0000000000
0000000000
0000000000
0000000000
0000000000
0000000000
0000000000
0000000000
ENDCHAR

STARTCHAR Ca3a8
ENCODING 41896
SWIDTH 1000 0
DWIDTH 34 0
BBX 34 34 0 -6
BITMAP
0000000000
0000000000
0000000000
0000000000
0000000000
0000000000
0000000000
0000000000
0000000000
0000000000
0000000000
0000000000
0000000000
0000000000
0000000000
0000000000
0000000000
0000000000
0000000000
0000000000
0000000000
0000000000
0000000000
0000000000
0000000000
0000000000
0000000000
0000000000
0000000000
0000000000
0000000000
0000000000
0000000000
0000000000
ENDCHAR

STARTCHAR Ca3a9
ENCODING 41897
SWIDTH 1000 0
DWIDTH 34 0
BBX 34 34 0 -6
BITMAP
0000000000
0000000000
0000000000
0000000000
0000000000
0000000000
0000000000
0000000000
0000000000
0000000000
0000000000
0000000000
0000000000
0000000000
0000000000
0000000000
0000000000
0000000000
0000000000
0000000000
0000000000
0000000000
0000000000
0000000000
0000000000
0000000000
0000000000
0000000000
0000000000
0000000000
0000000000
0000000000
0000000000
0000000000
ENDCHAR

STARTCHAR Ca3aa
ENCODING 41898
SWIDTH 1000 0
DWIDTH 34 0
BBX 34 34 0 -6
BITMAP
0000000000
0000000000
0000000000
0000000000
0000000000
0000000000
0000000000
0000000000
0000000000
0000000000
0000000000
0000000000
0000000000
0000000000
0000000000
0000000000
0000000000
0000000000
0000000000
0000000000
0000000000
0000000000
0000000000
0000000000
0000000000
0000000000
0000000000
0000000000
0000000000
0000000000
0000000000
0000000000
0000000000
0000000000
ENDCHAR

STARTCHAR Ca3ab
ENCODING 41899
SWIDTH 1000 0
DWIDTH 34 0
BBX 34 34 0 -6
BITMAP
0000000000
0000000000
0000000000
0000000000
0000000000
0000000000
0000000000
0000000000
0000000000
0000000000
0000000000
0000000000
0000000000
0000000000
0000000000
0000000000
0000000000
0000000000
0000000000
0000000000
0000000000
0000000000
0000000000
0000000000
0000000000
0000000000
0000000000
0000000000
0000000000
0000000000
0000000000
0000000000
0000000000
0000000000
ENDCHAR

STARTCHAR Ca3ac
ENCODING 41900
SWIDTH 1000 0
DWIDTH 34 0
BBX 34 34 0 -6
BITMAP
0000000000
0000000000
0000000000
0000000000
0000000000
0000000000
0000000000
0000000000
0000000000
0000000000
0000000000
0000000000
0000000000
0000000000
0000000000
0000000000
0000000000
0000000000
0000000000
0000000000
0000000000
0000000000
0000000000
0000000000
0000000000
0000000000
0000000000
0000000000
0000000000
0000000000
0000000000
0000000000
0000000000
0000000000
ENDCHAR

STARTCHAR Ca3ad
ENCODING 41901
SWIDTH 1000 0
DWIDTH 34 0
BBX 34 34 0 -6
BITMAP
0000000000
0000000000
0000000000
0000000000
0000000000
0000000000
0000000000
0000000000
0000000000
0000000000
0000000000
0000000000
0000000000
0000000000
0000000000
0000000000
0000000000
0000000000
0000000000
0000000000
0000000000
0000000000
0000000000
0000000000
0000000000
0000000000
0000000000
0000000000
0000000000
0000000000
0000000000
0000000000
0000000000
0000000000
ENDCHAR

STARTCHAR Ca3ae
ENCODING 41902
SWIDTH 1000 0
DWIDTH 34 0
BBX 34 34 0 -6
BITMAP
0000000000
0000000000
0000000000
0000000000
0000000000
0000000000
0000000000
0000000000
0000000000
0000000000
0000000000
0000000000
0000000000
0000000000
0000000000
0000000000
0000000000
0000000000
0000000000
0000000000
0000000000
0000000000
0000000000
0000000000
0000000000
0000000000
0000000000
0000000000
0000000000
0000000000
0000000000
0000000000
0000000000
0000000000
ENDCHAR

STARTCHAR Ca3af
ENCODING 41903
SWIDTH 1000 0
DWIDTH 34 0
BBX 34 34 0 -6
BITMAP
0000000000
0000000000
0000000000
0000000000
0000000000
0000000000
0000000000
0000000000
0000000000
0000000000
0000000000
0000000000
0000000000
0000000000
0000000000
0000000000
0000000000
0000000000
0000000000
0000000000
0000000000
0000000000
0000000000
0000000000
0000000000
0000000000
0000000000
0000000000
0000000000
0000000000
0000000000
0000000000
0000000000
0000000000
ENDCHAR

STARTCHAR Ca3b0
ENCODING 41904
SWIDTH 1000 0
DWIDTH 34 0
BBX 34 34 0 -6
BITMAP
0000000000
0000000000
0000000000
0000000000
0000000000
0003F80000
00060C0000
000C060000
001C070000
0018030000
0038038000
0038038000
0038018000
007001C000
007001C000
007001C000
007001C000
007001C000
007001C000
007001C000
007001C000
0038038000
0038038000
0038038000
0018030000
001C070000
000E0E0000
00071C0000
0001F00000
0000000000
0000000000
0000000000
0000000000
0000000000
ENDCHAR

STARTCHAR Ca3b1
ENCODING 41905
SWIDTH 1000 0
DWIDTH 34 0
BBX 34 34 0 -6
BITMAP
0000000000
0000000000
0000000000
0000000000
0000000000
0000600000
0007E00000
0000E00000
0000600000
0000600000
0000600000
0000600000
0000600000
0000600000
0000600000
0000600000
0000600000
0000600000
0000600000
0000600000
0000600000
0000600000
0000600000
0000600000
0000600000
0000600000
0000F00000
0007FE0000
0000000000
0000000000
0000000000
0000000000
0000000000
0000000000
ENDCHAR

STARTCHAR Ca3b2
ENCODING 41906
SWIDTH 1000 0
DWIDTH 34 0
BBX 34 34 0 -6
BITMAP
0000000000
0000000000
0000000000
0000000000
0000000000
0003F80000
000E1C0000
001C060000
0018070000
003C070000
003C038000
003C078000
0018070000
0000070000
00000F0000
00000E0000
00001C0000
0000380000
0000700000
0000E00000
0001C00000
0003800000
0003008000
0006008000
000C018000
0018038000
003FFF8000
003FFF8000
0000000000
0000000000
0000000000
0000000000
0000000000
0000000000
ENDCHAR

STARTCHAR Ca3b3
ENCODING 41907
SWIDTH 1000 0
DWIDTH 34 0
BBX 34 34 0 -6
BITMAP
0000000000
0000000000
0000000000
0000000000
0000000000
0003F80000
000E0C0000
001C060000
001C070000
003C070000
001C070000
0008070000
0000070000
0000060000
00000E0000
0003F80000
0003F80000
00000E0000
0000070000
0000038000
0000038000
0000038000
0000038000
003C038000
003C038000
0038070000
00180F0000
000E1E0000
0007F80000
0000000000
0000000000
0000000000
0000000000
0000000000
ENDCHAR

STARTCHAR Ca3b4
ENCODING 41908
SWIDTH 1000 0
DWIDTH 34 0
BBX 34 34 0 -6
BITMAP
0000000000
0000000000
0000000000
0000000000
0000000000
00001C0000
00001C0000
00003C0000
00007C0000
0000DC0000
0000DC0000
00019C0000
00031C0000
00061C0000
00061C0000
000C1C0000
00181C0000
00301C0000
00701C0000
00601C0000
00C01C0000
00FFFFC000
00001C0000
00001C0000
00001C0000
00001C0000
00003C0000
0001FF8000
0000000000
0000000000
0000000000
0000000000
0000000000
0000000000
ENDCHAR

STARTCHAR Ca3b5
ENCODING 41909
SWIDTH 1000 0
DWIDTH 34 0
BBX 34 34 0 -6
BITMAP
0000000000
0000000000
0000000000
0000000000
0000000000
001FFF0000
001FFF0000
0018000000
0018000000
0018000000
0018000000
0018000000
0018000000
0018000000
001BFC0000
001E0F0000
001C070000
0018038000
0008038000
000001C000
000001C000
000001C000
001801C000
003C038000
003C038000
003C070000
00180F0000
000E1C0000
0003F80000
0000000000
0000000000
0000000000
0000000000
0000000000
ENDCHAR

STARTCHAR Ca3b6
ENCODING 41910
SWIDTH 1000 0
DWIDTH 34 0
BBX 34 34 0 -6
BITMAP
0000000000
0000000000
0000000000
0000000000
0000000000
0000FC0000
0003870000
0007070000
000E078000
000C070000
001C000000
0018000000
0018000000
0038000000
0038F80000
003B9E0000
003E070000
0038070000
0038038000
0038038000
0038038000
0038038000
0038038000
0018038000
001C038000
001C070000
000E060000
00071C0000
0001F80000
0000000000
0000000000
0000000000
0000000000
0000000000
ENDCHAR

STARTCHAR Ca3b7
ENCODING 41911
SWIDTH 1000 0
DWIDTH 34 0
BBX 34 34 0 -6
BITMAP
0000000000
0000000000
0000000000
0000000000
0000000000
003FFF8000
003FFF8000
0038030000
0030030000
0030060000
0020060000
00200C0000
00200C0000
0000180000
0000180000
0000300000
0000300000
0000700000
0000600000
0000600000
0000E00000
0000E00000
0000E00000
0001C00000
0001C00000
0001C00000
0001C00000
0001C00000
0001C00000
0000000000
0000000000
0000000000
0000000000
0000000000
ENDCHAR

STARTCHAR Ca3b8
ENCODING 41912
SWIDTH 1000 0
DWIDTH 34 0
BBX 34 34 0 -6
BITMAP
0000000000
0000000000
0000000000
0000000000
0000000000
0003F80000
000E0E0000
001C070000
0018030000
0018030000
0018030000
0018030000
001C070000
000E060000
000F9C0000
0003F00000
0001F80000
00077E0000
000C1F0000
0018078000
0038038000
003001C000
003001C000
003001C000
0030018000
0038038000
001C070000
000E0E0000
0003F80000
0000000000
0000000000
0000000000
0000000000
0000000000
ENDCHAR

STARTCHAR Ca3b9
ENCODING 41913
SWIDTH 1000 0
DWIDTH 34 0
BBX 34 34 0 -6
BITMAP
0000000000
0000000000
0000000000
0000000000
0000000000
0003F80000
00060C0000
000C060000
001C070000
0018030000
0038038000
0038038000
0038038000
0038018000
0038018000
001C038000
001C038000
000E0D8000
0007FB8000
0001E38000
0000038000
0000038000
0008038000
001C030000
003C070000
001C060000
001C0E0000
000E1C0000
0003F00000
0000000000
0000000000
0000000000
0000000000
0000000000
ENDCHAR

STARTCHAR Ca3ba
ENCODING 41914
SWIDTH 1000 0
DWIDTH 34 0
BBX 34 34 0 -6
BITMAP
0000000000
0000000000
0000000000
0000000000
0000000000
0000000000
0000000000
0000000000
0000000000
0000000000
0000000000
0000000000
0000000000
0000000000
0000000000
0000000000
0000000000
0000000000
0000000000
0000000000
0000000000
0000000000
0000000000
0000000000
0000000000
0000000000
0000000000
0000000000
0000000000
0000000000
0000000000
0000000000
0000000000
0000000000
ENDCHAR

STARTCHAR Ca3bb
ENCODING 41915
SWIDTH 1000 0
DWIDTH 34 0
BBX 34 34 0 -6
BITMAP
0000000000
0000000000
0000000000
0000000000
0000000000
0000000000
0000000000
0000000000
0000000000
0000000000
0000000000
0000000000
0000000000
0000000000
0000000000
0000000000
0000000000
0000000000
0000000000
0000000000
0000000000
0000000000
0000000000
0000000000
0000000000
0000000000
0000000000
0000000000
0000000000
0000000000
0000000000
0000000000
0000000000
0000000000
ENDCHAR

STARTCHAR Ca3bc
ENCODING 41916
SWIDTH 1000 0
DWIDTH 34 0
BBX 34 34 0 -6
BITMAP
0000000000
0000000000
0000000000
0000000000
0000000000
0000000000
0000000000
0000000000
0000000000
0000000000
0000000000
0000000000
0000000000
0000000000
0000000000
0000000000
0000000000
0000000000
0000000000
0000000000
0000000000
0000000000
0000000000
0000000000
0000000000
0000000000
0000000000
0000000000
0000000000
0000000000
0000000000
0000000000
0000000000
0000000000
ENDCHAR

STARTCHAR Ca3bd
ENCODING 41917
SWIDTH 1000 0
DWIDTH 34 0
BBX 34 34 0 -6
BITMAP
0000000000
0000000000
0000000000
0000000000
0000000000
0000000000
0000000000
0000000000
0000000000
0000000000
0000000000
0000000000
0000000000
0000000000
0000000000
0000000000
0000000000
0000000000
0000000000
0000000000
0000000000
0000000000
0000000000
0000000000
0000000000
0000000000
0000000000
0000000000
0000000000
0000000000
0000000000
0000000000
0000000000
0000000000
ENDCHAR

STARTCHAR Ca3be
ENCODING 41918
SWIDTH 1000 0
DWIDTH 34 0
BBX 34 34 0 -6
BITMAP
0000000000
0000000000
0000000000
0000000000
0000000000
0000000000
0000000000
0000000000
0000000000
0000000000
0000000000
0000000000
0000000000
0000000000
0000000000
0000000000
0000000000
0000000000
0000000000
0000000000
0000000000
0000000000
0000000000
0000000000
0000000000
0000000000
0000000000
0000000000
0000000000
0000000000
0000000000
0000000000
0000000000
0000000000
ENDCHAR

STARTCHAR Ca3bf
ENCODING 41919
SWIDTH 1000 0
DWIDTH 34 0
BBX 34 34 0 -6
BITMAP
0000000000
0000000000
0000000000
0000000000
0000000000
0000000000
0000000000
0000000000
0000000000
0000000000
0000000000
0000000000
0000000000
0000000000
0000000000
0000000000
0000000000
0000000000
0000000000
0000000000
0000000000
0000000000
0000000000
0000000000
0000000000
0000000000
0000000000
0000000000
0000000000
0000000000
0000000000
0000000000
0000000000
0000000000
ENDCHAR

STARTCHAR Ca3c0
ENCODING 41920
SWIDTH 1000 0
DWIDTH 34 0
BBX 34 34 0 -6
BITMAP
0000000000
0000000000
0000000000
0000000000
0000000000
0000000000
0000000000
0000000000
0000000000
0000000000
0000000000
0000000000
0000000000
0000000000
0000000000
0000000000
0000000000
0000000000
0000000000
0000000000
0000000000
0000000000
0000000000
0000000000
0000000000
0000000000
0000000000
0000000000
0000000000
0000000000
0000000000
0000000000
0000000000
0000000000
ENDCHAR

STARTCHAR Ca3c1
ENCODING 41921
SWIDTH 1000 0
DWIDTH 34 0
BBX 34 34 0 -6
BITMAP
0000000000
0000000000
0000000000
0000000000
0000000000
0000E00000
0000E00000
0001F00000
0001F00000
0003300000
0003380000
0002380000
00061C0000
00061C0000
000C0E0000
000C0E0000
00080E0000
0018070000
0010070000
003FFF8000
0030038000
006001C000
006001C000
004001C000
00C000E000
00C000E000
01C000F000
0FF807FE00
0000000000
0000000000
0000000000
0000000000
0000000000
0000000000
ENDCHAR

STARTCHAR Ca3c2
ENCODING 41922
SWIDTH 1000 0
DWIDTH 34 0
BBX 34 34 0 -6
BITMAP
0000000000
0000000000
0000000000
0000000000
0000000000
01FFFC0000
003C0F0000
0038038000
003801C000
003801C000
003801C000
003801C000
003801C000
0038038000
0038070000
003FFC0000
00381E0000
0038038000
003800E000
003800E000
0038007000
0038007000
0038007000
0038007000
003800E000
003801E000
003C03C000
01FFFF0000
0000000000
0000000000
0000000000
0000000000
0000000000
0000000000
ENDCHAR

STARTCHAR Ca3c3
ENCODING 41923
SWIDTH 1000 0
DWIDTH 34 0
BBX 34 34 0 -6
BITMAP
0000000000
0000000000
0000000000
0000000000
0000000000
0007FC2000
000E0F6000
003801E000
007000E000
0070006000
00E0006000
00E0002000
01C0000000
01C0000000
01C0000000
01C0000000
0380000000
0380000000
01C0000000
01C0000000
01C0001000
01C0001000
01E0003000
00E0002000
0070006000
007800C000
003C018000
000F0F0000
0003FC0000
0000000000
0000000000
0000000000
0000000000
0000000000
ENDCHAR

STARTCHAR Ca3c4
ENCODING 41924
SWIDTH 1000 0
DWIDTH 34 0
BBX 34 34 0 -6
BITMAP
0000000000
0000000000
0000000000
0000000000
0000000000
03FFF00000
00F81E0000
0070070000
0070018000
007000C000
007000E000
0070006000
0070007000
0070007000
0070007000
0070007000
0070007800
0070007800
0070007000
0070007000
0070007000
0070007000
007000E000
007000E000
007001C000
0070038000
00700F0000
03FFFC0000
0000000000
0000000000
0000000000
0000000000
0000000000
0000000000
ENDCHAR

STARTCHAR Ca3c5
ENCODING 41925
SWIDTH 1000 0
DWIDTH 34 0
BBX 34 34 0 -6
BITMAP
0000000000
0000000000
0000000000
0000000000
0000000000
01FFFFE000
003C01E000
003800E000
0038006000
0038006000
0038002000
0038002000
0038040000
0038040000
0038040000
00381C0000
003FFC0000
00380C0000
0038040000
0038040000
0038000000
0038001000
0038003000
0038003000
0038003000
0038007000
003800F000
01FFFFF000
0000000000
0000000000
0000000000
0000000000
0000000000
0000000000
ENDCHAR

STARTCHAR Ca3c6
ENCODING 41926
SWIDTH 1000 0
DWIDTH 34 0
BBX 34 34 0 -6
BITMAP
0000000000
0000000000
0000000000
0000000000
0000000000
01FFFFE000
003E01E000
001C006000
001C006000
001C002000
001C002000
001C002000
001C000000
001C060000
001C060000
001C060000
001FFE0000
001C0E0000
001C060000
001C060000
001C020000
001C000000
001C000000
001C000000
001C000000
001C000000
003C000000
01FF800000
0000000000
0000000000
0000000000
0000000000
0000000000
0000000000
ENDCHAR

STARTCHAR Ca3c7
ENCODING 41927
SWIDTH 1000 0
DWIDTH 34 0
BBX 34 34 0 -6
BITMAP
0000000000
0000000000
0000000000
0000000000
0000000000
0007FC2000
000E076000
003801E000
007000E000
0060006000
00E0006000
01C0002000
01C0000000
01C0000000
01C0000000
0380000000
0380000000
038007FC00
038001F000
03C000E000
01C000E000
01C000E000
01C000E000
00E000E000
007001E000
007001E000
003C036000
000F1E6000
0003F80000
0000000000
0000000000
0000000000
0000000000
0000000000
ENDCHAR

STARTCHAR Ca3c8
ENCODING 41928
SWIDTH 1000 0
DWIDTH 34 0
BBX 34 34 0 -6
BITMAP
0000000000
0000000000
0000000000
0000000000
0000000000
03FC07F800
00F001E000
007000C000
006000C000
006000C000
006000C000
006000C000
006000C000
006000C000
006000C000
007FFFC000
006000C000
006000C000
006000C000
006000C000
006000C000
006000C000
006000C000
006000C000
006000C000
006000C000
00F001E000
03FC07F800
0000000000
0000000000
0000000000
0000000000
0000000000
0000000000
ENDCHAR

STARTCHAR Ca3c9
ENCODING 41929
SWIDTH 1000 0
DWIDTH 34 0
BBX 34 34 0 -6
BITMAP
0000000000
0000000000
0000000000
0000000000
0000000000
0007FC0000
0001F00000
0000E00000
0000E00000
0000E00000
0000E00000
0000E00000
0000E00000
0000E00000
0000E00000
0000E00000
0000E00000
0000E00000
0000E00000
0000E00000
0000E00000
0000E00000
0000E00000
0000E00000
0000E00000
0000E00000
0000E00000
0007FC0000
0000000000
0000000000
0000000000
0000000000
0000000000
0000000000
ENDCHAR

STARTCHAR Ca3ca
ENCODING 41930
SWIDTH 1000 0
DWIDTH 34 0
BBX 34 34 0 -6
BITMAP
0000000000
0000000000
0000000000
0000000000
0000000000
0001FF8000
00003C0000
0000380000
0000180000
0000180000
0000180000
0000180000
0000180000
0000180000
0000180000
0000180000
0000180000
0000180000
0000180000
0000180000
0000180000
0000180000
0000180000
0078180000
0078380000
0070380000
0030300000
0018E00000
000FC00000
0000000000
0000000000
0000000000
0000000000
0000000000
ENDCHAR

STARTCHAR Ca3cb
ENCODING 41931
SWIDTH 1000 0
DWIDTH 34 0
BBX 34 34 0 -6
BITMAP
0000000000
0000000000
0000000000
0000000000
0000000000
03FE3FF000
00F0078000
0070060000
00600C0000
00600C0000
0060180000
0060300000
0060600000
0060C00000
0061800000
0063C00000
0066E00000
006CF00000
0078780000
0070380000
00601C0000
00600E0000
00600F0000
0060078000
006003C000
007001E000
00F001F000
03FE0FFC00
0000000000
0000000000
0000000000
0000000000
0000000000
0000000000
ENDCHAR

STARTCHAR Ca3cc
ENCODING 41932
SWIDTH 1000 0
DWIDTH 34 0
BBX 34 34 0 -6
BITMAP
0000000000
0000000000
0000000000
0000000000
0000000000
00FF800000
003E000000
001C000000
001C000000
001C000000
001C000000
001C000000
001C000000
001C000000
001C000000
001C000000
001C000000
001C000000
001C000000
001C000000
001C000000
001C002000
001C002000
001C002000
001C006000
001C00E000
001C01E000
00FFFFE000
0000000000
0000000000
0000000000
0000000000
0000000000
0000000000
ENDCHAR

STARTCHAR Ca3cd
ENCODING 41933
SWIDTH 1000 0
DWIDTH 34 0
BBX 34 34 0 -6
BITMAP
0000000000
0000000000
0000000000
0000000000
0000000000
1FC0007F00
07C0007800
03C000F000
03E000F000
03E000B000
037001B000
0370013000
0338033000
0338033000
0318023000
031C063000
031C043000
030E0C3000
030E0C3000
0307083000
0307183000
0303903000
0303903000
0303B03000
0301E03000
0301E03000
0300C07800
1FE0C3FF00
0000000000
0000000000
0000000000
0000000000
0000000000
0000000000
ENDCHAR

STARTCHAR Ca3ce
ENCODING 41934
SWIDTH 1000 0
DWIDTH 34 0
BBX 34 34 0 -6
BITMAP
0000000000
0000000000
0000000000
0000000000
0000000000
07E003FC00
01F000F000
00F8006000
00FC006000
00DC006000
00CE006000
00CF006000
00C7806000
00C3806000
00C1C06000
00C1E06000
00C0F06000
00C0706000
00C0386000
00C03C6000
00C01E6000
00C00E6000
00C0076000
00C007E000
00C003E000
00C001E000
00C000E000
07F800E000
0000006000
0000000000
0000000000
0000000000
0000000000
0000000000
ENDCHAR

STARTCHAR Ca3cf
ENCODING 41935
SWIDTH 1000 0
DWIDTH 34 0
BBX 34 34 0 -6
BITMAP
0000000000
0000000000
0000000000
0000000000
0000000000
0003FC0000
000E0F0000
0038038000
007001C000
006000C000
00E000E000
00C0007000
01C0007000
01C0007000
01C0007000
01C0007000
0380007800
0380007800
01C0007000
01C0007000
01C0007000
01C0007000
00C0006000
00E000E000
006000C000
0030018000
0018038000
000E0E0000
0003F80000
0000000000
0000000000
0000000000
0000000000
0000000000
ENDCHAR

STARTCHAR Ca3d0
ENCODING 41936
SWIDTH 1000 0
DWIDTH 34 0
BBX 34 34 0 -6
BITMAP
0000000000
0000000000
0000000000
0000000000
0000000000
00FFFE0000
003E078000
001C01E000
001C00E000
001C007000
001C007000
001C007000
001C007000
001C007000
001C00E000
001C03C000
001C3F8000
001FC00000
001C000000
001C000000
001C000000
001C000000
001C000000
001C000000
001C000000
001C000000
001C000000
00FFC00000
0000000000
0000000000
0000000000
0000000000
0000000000
0000000000
ENDCHAR

STARTCHAR Ca3d1
ENCODING 41937
SWIDTH 1000 0
DWIDTH 34 0
BBX 34 34 0 -6
BITMAP
0000000000
0000000000
0000000000
0000000000
0000000000
0003F80000
000E0E0000
0018038000
003001C000
007000C000
00E000E000
00E0006000
01C0007000
01C0007000
01C0007000
03C0003800
0380003800
0380003800
03C0003800
01C0007800
01C0C07000
01C3F07000
01C3387000
00E61CE000
00661CE000
00760DC000
003A0F8000
000F0E0400
0003FF0C00
0000039800
000001F000
0000000000
0000000000
0000000000
ENDCHAR

STARTCHAR Ca3d2
ENCODING 41938
SWIDTH 1000 0
DWIDTH 34 0
BBX 34 34 0 -6
BITMAP
0000000000
0000000000
0000000000
0000000000
0000000000
01FFF80000
007C0F0000
0038038000
003801C000
003801C000
003801C000
003801C000
003801C000
003801C000
0038078000
00383F0000
003FF00000
0038700000
0038380000
00381C0000
00380E0000
00380E0000
0038070000
0038038000
003803C000
003801C000
003800E000
01FF00FC00
0000000000
0000000000
0000000000
0000000000
0000000000
0000000000
ENDCHAR

STARTCHAR Ca3d3
ENCODING 41939
SWIDTH 1000 0
DWIDTH 34 0
BBX 34 34 0 -6
BITMAP
0000000000
0000000000
0000000000
0000000000
0000000000
0003F88000
000E0F8000
0018078000
0018038000
0030018000
0030018000
0038008000
0038000000
001E000000
000F800000
0007F00000
0001FC0000
00007F0000
00000F8000
000003C000
002001C000
002000E000
003000E000
003000E000
003800E000
003C00C000
003E01C000
0037878000
0000FE0000
0000000000
0000000000
0000000000
0000000000
0000000000
ENDCHAR

STARTCHAR Ca3d4
ENCODING 41940
SWIDTH 1000 0
DWIDTH 34 0
BBX 34 34 0 -6
BITMAP
0000000000
0000000000
0000000000
0000000000
0000000000
01FFFFF000
01E0E0F000
0180E07000
0180E03000
0100E01000
0100E01000
0100E01000
0000E00000
0000E00000
0000E00000
0000E00000
0000E00000
0000E00000
0000E00000
0000E00000
0000E00000
0000E00000
0000E00000
0000E00000
0000E00000
0000E00000
0000E00000
0007FC0000
0000000000
0000000000
0000000000
0000000000
0000000000
0000000000
ENDCHAR

STARTCHAR Ca3d5
ENCODING 41941
SWIDTH 1000 0
DWIDTH 34 0
BBX 34 34 0 -6
BITMAP
0000000000
0000000000
0000000000
0000000000
0000000000
07FC03FC00
01F000F000
00E0006000
00E0006000
00E0006000
00E0006000
00E0006000
00E0006000
00E0006000
00E0006000
00E0006000
00E0006000
00E0006000
00E0006000
00E0006000
00E0006000
00E0006000
00E0006000
0060004000
007000C000
0038008000
003C038000
000F8E0000
0003F80000
0000000000
0000000000
0000000000
0000000000
0000000000
ENDCHAR

STARTCHAR Ca3d6
ENCODING 41942
SWIDTH 1000 0
DWIDTH 34 0
BBX 34 34 0 -6
BITMAP
0000000000
0000000000
0000000000
0000000000
0000000000
07FE03FC00
01F8007000
00F0006000
0070006000
0070004000
003800C000
003800C000
003C018000
001C018000
001C010000
000E030000
000E030000
000F060000
0007060000
0007040000
00038C0000
0003880000
0003D80000
0001D80000
0001D00000
0000F00000
0000E00000
0000E00000
0000600000
0000000000
0000000000
0000000000
0000000000
0000000000
ENDCHAR

STARTCHAR Ca3d7
ENCODING 41943
SWIDTH 1000 0
DWIDTH 34 0
BBX 34 34 0 -6
BITMAP
0000000000
0000000000
0000000000
0000000000
0000000000
3FC3FC3F00
1F01F00F00
0E00E00600
0600E00400
0700700C00
0700F00C00
0700F00800
0300B81800
0381B81800
0381B81000
0381181000
01831C3000
01C31C3000
01C21C2000
00C60E6000
00E60E6000
00E40E4000
00EC06C000
006C07C000
0078078000
0078038000
0078038000
0030030000
0030030000
0000000000
0000000000
0000000000
0000000000
0000000000
ENDCHAR

STARTCHAR Ca3d8
ENCODING 41944
SWIDTH 1000 0
DWIDTH 34 0
BBX 34 34 0 -6
BITMAP
0000000000
0000000000
0000000000
0000000000
0000000000
03FF0FF000
00F803C000
0078038000
0038030000
001C060000
000E0C0000
000F080000
0007180000
0003B00000
0001E00000
0001E00000
0000E00000
0001F00000
0003380000
00023C0000
00061C0000
000C0E0000
0018070000
0010078000
003003C000
006001E000
00E001F000
07FC0FFC00
0000000000
0000000000
0000000000
0000000000
0000000000
0000000000
ENDCHAR

STARTCHAR Ca3d9
ENCODING 41945
SWIDTH 1000 0
DWIDTH 34 0
BBX 34 34 0 -6
BITMAP
0000000000
0000000000
0000000000
0000000000
0000000000
07FE07F800
01F801E000
007000C000
0038018000
0038010000
001C030000
000E060000
000E060000
00070C0000
0003880000
0003980000
0001F00000
0000E00000
0000E00000
0000E00000
0000E00000
0000E00000
0000E00000
0000E00000
0000E00000
0000E00000
0000E00000
0007FC0000
0000000000
0000000000
0000000000
0000000000
0000000000
0000000000
ENDCHAR

STARTCHAR Ca3da
ENCODING 41946
SWIDTH 1000 0
DWIDTH 34 0
BBX 34 34 0 -6
BITMAP
0000000000
0000000000
0000000000
0000000000
0000000000
007FFFC000
007803C000
0070038000
0060070000
00400F0000
00400E0000
00001C0000
0000380000
0000780000
0000700000
0000E00000
0001E00000
0001C00000
0003800000
0007000000
000F000000
000E002000
001C002000
003C006000
0038006000
007000E000
00E003E000
00FFFFE000
0000000000
0000000000
0000000000
0000000000
0000000000
0000000000
ENDCHAR

STARTCHAR Ca3db
ENCODING 41947
SWIDTH 1000 0
DWIDTH 34 0
BBX 34 34 0 -6
BITMAP
0000000000
0000000000
0000000000
0000000000
0000000000
0000000000
0000000000
0000000000
0000000000
0000000000
0000000000
0000000000
0000000000
0000000000
0000000000
0000000000
0000000000
0000000000
0000000000
0000000000
0000000000
0000000000
0000000000
0000000000
0000000000
0000000000
0000000000
0000000000
0000000000
0000000000
0000000000
0000000000
0000000000
0000000000
ENDCHAR

STARTCHAR Ca3dc
ENCODING 41948
SWIDTH 1000 0
DWIDTH 34 0
BBX 34 34 0 -6
BITMAP
0000000000
0000000000
0000000000
0000000000
0000000000
0000000000
0000000000
0000000000
0000000000
0000000000
0000000000
0000000000
0000000000
0000000000
0000000000
0000000000
0000000000
0000000000
0000000000
0000000000
0000000000
0000000000
0000000000
0000000000
0000000000
0000000000
0000000000
0000000000
0000000000
0000000000
0000000000
0000000000
0000000000
0000000000
ENDCHAR

STARTCHAR Ca3dd
ENCODING 41949
SWIDTH 1000 0
DWIDTH 34 0
BBX 34 34 0 -6
BITMAP
0000000000
0000000000
0000000000
0000000000
0000000000
0000000000
0000000000
0000000000
0000000000
0000000000
0000000000
0000000000
0000000000
0000000000
0000000000
0000000000
0000000000
0000000000
0000000000
0000000000
0000000000
0000000000
0000000000
0000000000
0000000000
0000000000
0000000000
0000000000
0000000000
0000000000
0000000000
0000000000
0000000000
0000000000
ENDCHAR

STARTCHAR Ca3de
ENCODING 41950
SWIDTH 1000 0
DWIDTH 34 0
BBX 34 34 0 -6
BITMAP
0000000000
0000000000
0000000000
0000000000
0000000000
0000000000
0000000000
0000000000
0000000000
0000000000
0000000000
0000000000
0000000000
0000000000
0000000000
0000000000
0000000000
0000000000
0000000000
0000000000
0000000000
0000000000
0000000000
0000000000
0000000000
0000000000
0000000000
0000000000
0000000000
0000000000
0000000000
0000000000
0000000000
0000000000
ENDCHAR

STARTCHAR Ca3df
ENCODING 41951
SWIDTH 1000 0
DWIDTH 34 0
BBX 34 34 0 -6
BITMAP
0000000000
0000000000
0000000000
0000000000
0000000000
0000000000
0000000000
0000000000
0000000000
0000000000
0000000000
0000000000
0000000000
0000000000
0000000000
0000000000
0000000000
0000000000
0000000000
0000000000
0000000000
0000000000
0000000000
0000000000
0000000000
0000000000
0000000000
0000000000
0000000000
0000000000
0000000000
0000000000
0000000000
0000000000
ENDCHAR

STARTCHAR Ca3e0
ENCODING 41952
SWIDTH 1000 0
DWIDTH 34 0
BBX 34 34 0 -6
BITMAP
0000000000
0000000000
0000000000
0000000000
0000000000
0000000000
0000000000
0000000000
0000000000
0000000000
0000000000
0000000000
0000000000
0000000000
0000000000
0000000000
0000000000
0000000000
0000000000
0000000000
0000000000
0000000000
0000000000
0000000000
0000000000
0000000000
0000000000
0000000000
0000000000
0000000000
0000000000
0000000000
0000000000
0000000000
ENDCHAR

STARTCHAR Ca3e1
ENCODING 41953
SWIDTH 1000 0
DWIDTH 34 0
BBX 34 34 0 -6
BITMAP
0000000000
0000000000
0000000000
0000000000
0000000000
0000000000
0000000000
0000000000
0000000000
0000000000
0000000000
0000000000
0001F00000
00061C0000
000C0E0000
001C060000
001E060000
0004060000
0000060000
0001FE0000
0007860000
000E060000
001C060000
001C060000
0018060000
0018071000
001C0F2000
001FF3E000
0007C38000
0000000000
0000000000
0000000000
0000000000
0000000000
ENDCHAR

STARTCHAR Ca3e2
ENCODING 41954
SWIDTH 1000 0
DWIDTH 34 0
BBX 34 34 0 -6
BITMAP
0000000000
0000000000
0000000000
0000000000
0000000000
00F8000000
0078000000
0038000000
0038000000
0038000000
0038000000
0038000000
0038F80000
003BBC0000
003C0E0000
0038070000
0038038000
0038038000
0038038000
0038018000
0038018000
0038018000
0038038000
0038038000
0038038000
0038070000
003C0F0000
003F1E0000
0031F80000
0000000000
0000000000
0000000000
0000000000
0000000000
ENDCHAR

STARTCHAR Ca3e3
ENCODING 41955
SWIDTH 1000 0
DWIDTH 34 0
BBX 34 34 0 -6
BITMAP
0000000000
0000000000
0000000000
0000000000
0000000000
0000000000
0000000000
0000000000
0000000000
0000000000
0000000000
0000000000
0000F80000
00078E0000
000E070000
001C070000
0018070000
0038020000
0038000000
0038000000
0038000000
0038000000
0038000000
0038000000
001C008000
001E010000
000F030000
0007DE0000
0001F80000
0000000000
0000000000
0000000000
0000000000
0000000000
ENDCHAR

STARTCHAR Ca3e4
ENCODING 41956
SWIDTH 1000 0
DWIDTH 34 0
BBX 34 34 0 -6
BITMAP
0000000000
0000000000
0000000000
0000000000
0000000000
00001F0000
0000070000
0000030000
0000030000
0000030000
0000030000
0000030000
0001F30000
00071F0000
000E070000
001C030000
0018030000
0038030000
0038030000
0038030000
0030030000
0038030000
0038030000
0038030000
0038030000
001C070000
001C0F0000
000F1B8000
0003E3E000
0000000000
0000000000
0000000000
0000000000
0000000000
ENDCHAR

STARTCHAR Ca3e5
ENCODING 41957
SWIDTH 1000 0
DWIDTH 34 0
BBX 34 34 0 -6
BITMAP
0000000000
0000000000
0000000000
0000000000
0000000000
0000000000
0000000000
0000000000
0000000000
0000000000
0000000000
0000000000
0001F00000
00071C0000
000E060000
001C070000
0018030000
0038038000
0038018000
003FFF8000
0038000000
0038000000
0038000000
0038000000
001C008000
001C018000
000E030000
0007CE0000
0001F80000
0000000000
0000000000
0000000000
0000000000
0000000000
ENDCHAR

STARTCHAR Ca3e6
ENCODING 41958
SWIDTH 1000 0
DWIDTH 34 0
BBX 34 34 0 -6
BITMAP
0000000000
0000000000
0000000000
0000000000
0000000000
00007E0000
0000E70000
0001C70000
0001830000
0001800000
0001800000
0001800000
0001800000
001FFC0000
0001800000
0001800000
0001800000
0001800000
0001800000
0001800000
0001800000
0001800000
0001800000
0001800000
0001800000
0001800000
0001C00000
000FF00000
0000000000
0000000000
0000000000
0000000000
0000000000
0000000000
ENDCHAR

STARTCHAR Ca3e7
ENCODING 41959
SWIDTH 1000 0
DWIDTH 34 0
BBX 34 34 0 -6
BITMAP
0000000000
0000000000
0000000000
0000000000
0000000000
0000000000
0000000000
0000000000
0000000000
0000000000
0000000000
0000000000
0001F1C000
00071FE000
000C0EE000
001C060000
0018060000
0018060000
001C060000
000C0E0000
000E1C0000
0003F80000
000C000000
001C000000
001FF00000
000FFF0000
001C1F8000
003801C000
003000C000
003000C000
003801C000
001C078000
0007FE0000
0000000000
ENDCHAR

STARTCHAR Ca3e8
ENCODING 41960
SWIDTH 1000 0
DWIDTH 34 0
BBX 34 34 0 -6
BITMAP
0000000000
0000000000
0000000000
0000000000
0000000000
00F8000000
0038000000
0018000000
0018000000
0018000000
0018000000
0018000000
0018F80000
0019DE0000
001E060000
001C070000
0018030000
0018030000
0018030000
0018030000
0018030000
0018030000
0018030000
0018030000
0018030000
0018030000
003C038000
00FF1FE000
0000000000
0000000000
0000000000
0000000000
0000000000
0000000000
ENDCHAR

STARTCHAR Ca3e9
ENCODING 41961
SWIDTH 1000 0
DWIDTH 34 0
BBX 34 34 0 -6
BITMAP
0000000000
0000000000
0000000000
0000000000
0000000000
0000E00000
0000E00000
0000E00000
0000000000
0000000000
0000000000
0000000000
0000600000
0003E00000
0000E00000
0000E00000
0000E00000
0000E00000
0000E00000
0000E00000
0000E00000
0000E00000
0000E00000
0000E00000
0000E00000
0000E00000
0000E00000
0003F80000
0000000000
0000000000
0000000000
0000000000
0000000000
0000000000
ENDCHAR

STARTCHAR Ca3ea
ENCODING 41962
SWIDTH 1000 0
DWIDTH 34 0
BBX 34 34 0 -6
BITMAP
0000000000
0000000000
0000000000
0000000000
0000000000
0000700000
0000780000
0000700000
0000000000
0000000000
0000000000
0000000000
0000300000
0001F00000
0000700000
0000300000
0000300000
0000300000
0000300000
0000300000
0000300000
0000300000
0000300000
0000300000
0000300000
0000300000
0000300000
0000300000
0018300000
003C300000
001C700000
0018600000
000FC00000
0000000000
ENDCHAR

STARTCHAR Ca3eb
ENCODING 41963
SWIDTH 1000 0
DWIDTH 34 0
BBX 34 34 0 -6
BITMAP
0000000000
0000000000
0000000000
0000000000
0000000000
00FC000000
003C000000
001C000000
001C000000
001C000000
001C000000
001C000000
001C408000
001C3F8000
001C0C0000
001C180000
001C300000
001C600000
001CC00000
001DC00000
001EE00000
001C700000
001C380000
001C1C0000
001C1C0000
001C0E0000
001C0F0000
00FF1FE000
0000000000
0000000000
0000000000
0000000000
0000000000
0000000000
ENDCHAR

STARTCHAR Ca3ec
ENCODING 41964
SWIDTH 1000 0
DWIDTH 34 0
BBX 34 34 0 -6
BITMAP
0000000000
0000000000
0000000000
0000000000
0000000000
0003E00000
0001E00000
0000E00000
0000E00000
0000E00000
0000E00000
0000E00000
0000E00000
0000E00000
0000E00000
0000E00000
0000E00000
0000E00000
0000E00000
0000E00000
0000E00000
0000E00000
0000E00000
0000E00000
0000E00000
0000E00000
0000E00000
0003FC0000
0000000000
0000000000
0000000000
0000000000
0000000000
0000000000
ENDCHAR

STARTCHAR Ca3ed
ENCODING 41965
SWIDTH 1000 0
DWIDTH 34 0
BBX 34 34 0 -6
BITMAP
0000000000
0000000000
0000000000
0000000000
0000000000
0000000000
0000000000
0000000000
0000000000
0000000000
0000000000
0000000000
018F078000
0FBF9FC000
01E1F0E000
01C0E07000
01C0E07000
0180E07000
0180E07000
0180E07000
0180E07000
0180E07000
0180E07000
0180E07000
0180E07000
0180E07000
01C0E07000
0FF3F9FE00
0000000000
0000000000
0000000000
0000000000
0000000000
0000000000
ENDCHAR

STARTCHAR Ca3ee
ENCODING 41966
SWIDTH 1000 0
DWIDTH 34 0
BBX 34 34 0 -6
BITMAP
0000000000
0000000000
0000000000
0000000000
0000000000
0000000000
0000000000
0000000000
0000000000
0000000000
0000000000
0000000000
0018F80000
00FBFC0000
001E0E0000
001C070000
0018030000
0018030000
0018030000
0018030000
0018030000
0018030000
0018030000
0018030000
0018030000
0018030000
001C038000
00FF1FE000
0000000000
0000000000
0000000000
0000000000
0000000000
0000000000
ENDCHAR

STARTCHAR Ca3ef
ENCODING 41967
SWIDTH 1000 0
DWIDTH 34 0
BBX 34 34 0 -6
BITMAP
0000000000
0000000000
0000000000
0000000000
0000000000
0000000000
0000000000
0000000000
0000000000
0000000000
0000000000
0000000000
0001F00000
00071C0000
000C060000
001C070000
0038038000
0038038000
0038038000
007001C000
007001C000
007001C000
0038038000
0038038000
0038038000
001C070000
000C070000
00071E0000
0003F80000
0000000000
0000000000
0000000000
0000000000
0000000000
ENDCHAR

STARTCHAR Ca3f0
ENCODING 41968
SWIDTH 1000 0
DWIDTH 34 0
BBX 34 34 0 -6
BITMAP
0000000000
0000000000
0000000000
0000000000
0000000000
0000000000
0000000000
0000000000
0000000000
0000000000
0000000000
0000000000
0018F80000
00FBFC0000
003C0E0000
0038070000
0038038000
0038038000
0038018000
0038018000
0038018000
0038038000
0038038000
0038038000
003C070000
003E0E0000
003BFC0000
0038200000
0038000000
0038000000
0038000000
0038000000
00FF000000
0000000000
ENDCHAR

STARTCHAR Ca3f1
ENCODING 41969
SWIDTH 1000 0
DWIDTH 34 0
BBX 34 34 0 -6
BITMAP
0000000000
0000000000
0000000000
0000000000
0000000000
0000000000
0000000000
0000000000
0000000000
0000000000
0000000000
0000000000
0001F08000
00078D8000
000E038000
001C038000
0018038000
0038038000
0038038000
0038038000
0038038000
0038038000
0038038000
001C038000
001E038000
000F0F8000
0007FB8000
0000038000
0000038000
0000038000
0000038000
0000038000
00001FF000
0000000000
ENDCHAR

STARTCHAR Ca3f2
ENCODING 41970
SWIDTH 1000 0
DWIDTH 34 0
BBX 34 34 0 -6
BITMAP
0000000000
0000000000
0000000000
0000000000
0000000000
0000000000
0000000000
0000000000
0000000000
0000000000
0000000000
0000000000
00010F8000
001FBBC000
0003E3C000
0003C18000
0001800000
0001800000
0001800000
0001800000
0001800000
0001800000
0001800000
0001800000
0001800000
0001800000
0003800000
000FF00000
0000000000
0000000000
0000000000
0000000000
0000000000
0000000000
ENDCHAR

STARTCHAR Ca3f3
ENCODING 41971
SWIDTH 1000 0
DWIDTH 34 0
BBX 34 34 0 -6
BITMAP
0000000000
0000000000
0000000000
0000000000
0000000000
0000000000
0000000000
0000000000
0000000000
0000000000
0000000000
0000000000
0003E00000
00071A0000
000C0E0000
001C060000
001C020000
001E020000
000F000000
0007E00000
0003F80000
00007E0000
00000F0000
0010070000
0018030000
0018030000
001C070000
001F0E0000
0011FC0000
0000000000
0000000000
0000000000
0000000000
0000000000
ENDCHAR

STARTCHAR Ca3f4
ENCODING 41972
SWIDTH 1000 0
DWIDTH 34 0
BBX 34 34 0 -6
BITMAP
0000000000
0000000000
0000000000
0000000000
0000000000
0000000000
0000000000
0000000000
0001000000
0003000000
0003000000
0007000000
001F000000
003FFC0000
0003000000
0003000000
0003000000
0003000000
0003000000
0003000000
0003000000
0003000000
0003000000
0003000000
0003000000
0003020000
0003060000
0003FC0000
0001F00000
0000000000
0000000000
0000000000
0000000000
0000000000
ENDCHAR

STARTCHAR Ca3f5
ENCODING 41973
SWIDTH 1000 0
DWIDTH 34 0
BBX 34 34 0 -6
BITMAP
0000000000
0000000000
0000000000
0000000000
0000000000
0000000000
0000000000
0000000000
0000000000
0000000000
0000000000
0000000000
0080100000
00780F0000
0018030000
0018030000
0018030000
0018030000
0018030000
0018030000
0018030000
0018030000
0018030000
0018030000
0018030000
0018070000
001C0F0000
000FFBE000
0007E38000
0000000000
0000000000
0000000000
0000000000
0000000000
ENDCHAR

STARTCHAR Ca3f6
ENCODING 41974
SWIDTH 1000 0
DWIDTH 34 0
BBX 34 34 0 -6
BITMAP
0000000000
0000000000
0000000000
0000000000
0000000000
0000000000
0000000000
0000000000
0000000000
0000000000
0000000000
0000000000
00FF082000
00FE07C000
0038038000
001C030000
001C030000
000C020000
000E060000
0006040000
00070C0000
0003080000
0003980000
0001900000
0001F00000
0001F00000
0000E00000
0000E00000
0000400000
0000000000
0000000000
0000000000
0000000000
0000000000
ENDCHAR

STARTCHAR Ca3f7
ENCODING 41975
SWIDTH 1000 0
DWIDTH 34 0
BBX 34 34 0 -6
BITMAP
0000000000
0000000000
0000000000
0000000000
0000000000
0000000000
0000000000
0000000000
0000000000
0000000000
0000000000
0000000000
0000008200
07F1F87C00
01C0603000
00C0703000
00E0702000
00E0702000
0060F86000
0070B84000
003198C000
00319CC000
00390C8000
001B0D8000
001E0F0000
001E070000
000E070000
000C060000
0004020000
0000000000
0000000000
0000000000
0000000000
0000000000
ENDCHAR

STARTCHAR Ca3f8
ENCODING 41976
SWIDTH 1000 0
DWIDTH 34 0
BBX 34 34 0 -6
BITMAP
0000000000
0000000000
0000000000
0000000000
0000000000
0000000000
0000000000
0000000000
0000000000
0000000000
0000000000
0000000000
0081104000
00FE0F8000
001C060000
000E0C0000
0007080000
0003980000
0001F00000
0001E00000
0000E00000
0001F00000
0003380000
00061C0000
000C0E0000
0018070000
0038078000
01FE1FF000
0000000000
0000000000
0000000000
0000000000
0000000000
0000000000
ENDCHAR

STARTCHAR Ca3f9
ENCODING 41977
SWIDTH 1000 0
DWIDTH 34 0
BBX 34 34 0 -6
BITMAP
0000000000
0000000000
0000000000
0000000000
0000000000
0000000000
0000000000
0000000000
0000000000
0000000000
0000000000
0000000000
01FF102000
00FE0FC000
0038030000
0038030000
001C060000
000C060000
000E040000
00070C0000
0007080000
0003980000
0001900000
0001F00000
0000F00000
0000E00000
0000600000
0000400000
0000C00000
0031800000
0079000000
007B000000
003E000000
0000000000
ENDCHAR

STARTCHAR Ca3fa
ENCODING 41978
SWIDTH 1000 0
DWIDTH 34 0
BBX 34 34 0 -6
BITMAP
0000000000
0000000000
0000000000
0000000000
0000000000
0000000000
0000000000
0000000000
0000000000
0000000000
0000000000
0000000000
0000000000
001FFF0000
001C0E0000
00180E0000
00101C0000
0010380000
0000700000
0000700000
0000E00000
0001C00000
0003808000
0003808000
0007008000
000E018000
001C038000
001FFF8000
0000000000
0000000000
0000000000
0000000000
0000000000
0000000000
ENDCHAR

STARTCHAR Ca4a1
ENCODING 42145
SWIDTH 1000 0
DWIDTH 34 0
BBX 34 34 0 -6
BITMAP
0000000000
0000000000
0000000000
0000000000
0000000000
0000000000
0000000000
0000000000
0003000000
0003800000
0001800000
0001860000
00419E0000
0063FC0000
003FC00000
0003100000
0003180000
0003FF0000
00079DC000
000F18E000
003B187000
0073303800
00E3703800
00C3603800
0183C03800
0183803800
0383007000
038F806000
01FB80E000
01E3038000
00004F0000
0000380000
0000000000
0000000000
ENDCHAR

STARTCHAR Ca4a2
ENCODING 42146
SWIDTH 1000 0
DWIDTH 34 0
BBX 34 34 0 -6
BITMAP
0000000000
0000000000
0000000000
0000000000
0007800000
0003800000
0003800000
0003870000
00839F0000
0083FE0000
00FFF00000
001F000000
0003180000
00030C0000
0003FF8000
00078CE000
001F0C7800
003B1C1800
0063181C00
00C3300C00
0183700E00
0383600E00
0703C00E00
0703800C00
0603001C00
060F001C00
061F003800
07F3007000
03C301E000
0001078000
00003E0000
0000000000
0000000000
0000000000
ENDCHAR

STARTCHAR Ca4a3
ENCODING 42147
SWIDTH 1000 0
DWIDTH 34 0
BBX 34 34 0 -6
BITMAP
0000000000
0000000000
0000000000
0000000000
0000000000
0000000000
0000000000
0000000000
0000000000
0000000000
0000000000
0000000000
0380000000
01C0030000
01C001C000
01C000E000
01C0007000
01C0003000
0180003800
0180003C00
0181001C00
0082001C00
00C6001C00
00C4000800
00CC000000
007C000000
007C000000
003C000000
001C000000
0008000000
0000000000
0000000000
0000000000
0000000000
ENDCHAR

STARTCHAR Ca4a4
ENCODING 42148
SWIDTH 1000 0
DWIDTH 34 0
BBX 34 34 0 -6
BITMAP
0000000000
0000000000
0000000000
0000000000
0000000000
0000000000
0000000000
0000000000
0E00020000
0700018000
078000C000
0380006000
0300003800
0300003800
0300001C00
0300001E00
0300000E00
0302000F00
0302000F00
0306000700
030C000700
030C000200
0198000000
0198000000
01F8000000
00F8000000
0078000000
0038000000
0008000000
0000000000
0000000000
0000000000
0000000000
0000000000
ENDCHAR

STARTCHAR Ca4a5
ENCODING 42149
SWIDTH 1000 0
DWIDTH 34 0
BBX 34 34 0 -6
BITMAP
0000000000
0000000000
0000000000
0000000000
0000000000
0000000000
0000000000
0000000000
0004000000
0006000000
0003F80000
0000FC0000
0001880000
0002000000
0000000000
00007C0000
0007EE0000
007F070000
007C030000
0030038000
0000038000
0000038000
0000038000
0000038000
0000038000
0000070000
0000070000
00000E0000
00001C0000
0000780000
0001E00000
000F000000
0000000000
0000000000
ENDCHAR

STARTCHAR Ca4a6
ENCODING 42150
SWIDTH 1000 0
DWIDTH 34 0
BBX 34 34 0 -6
BITMAP
0000000000
0000000000
0000000000
0000000000
000C000000
0007000000
0003FC0000
0001FC0000
0003800000
0004000000
0000000000
0000000000
0001FE0000
008F870000
00FE038000
00F801C000
00E001C000
000001C000
000000C000
000000C000
000001C000
000001C000
000001C000
0000038000
0000038000
0000070000
00000E0000
00001C0000
0000780000
0001E00000
000F000000
0008000000
0000000000
0000000000
ENDCHAR

STARTCHAR Ca4a7
ENCODING 42151
SWIDTH 1000 0
DWIDTH 34 0
BBX 34 34 0 -6
BITMAP
0000000000
0000000000
0000000000
0000000000
0000000000
0000000000
0000000000
0000000000
0004000000
0006000000
0003FC0000
0000FC0000
0003DC0000
0002000000
0000040000
00003E0000
0037FF0000
003F1E0000
001C380000
0000700000
0000E00000
0001C00000
0003C00000
0007F80000
000E180000
001C180000
00380C0000
00700C0000
00E00C0000
01C00FF000
01C007F800
008000E000
0000000000
0000000000
ENDCHAR

STARTCHAR Ca4a8
ENCODING 42152
SWIDTH 1000 0
DWIDTH 34 0
BBX 34 34 0 -6
BITMAP
0000000000
0000000000
0000000000
000C000000
0004000000
0003800000
0001FE0000
0000FE0000
0003840000
0002000000
0000000000
00000F0000
0040FF8000
007FC78000
007E0E0000
00381C0000
0000300000
0000600000
0001C00000
0003800000
0007F00000
000F980000
001E0C0000
00380C0000
00700C0000
00E00C0000
01C00E0000
03C0060000
038007FC00
030003FE00
0200007800
0000000000
0000000000
0000000000
ENDCHAR

STARTCHAR Ca4a9
ENCODING 42153
SWIDTH 1000 0
DWIDTH 34 0
BBX 34 34 0 -6
BITMAP
0000000000
0000000000
0000000000
0000000000
0000000000
0000000000
0000000000
0000000000
0000000000
0018000000
001C000000
000E038000
000C00E000
000C007000
000CE03800
010FE03800
01FF001800
000C000000
000C000000
000C0C0000
000CFF8000
000F81C000
001C00E000
007C007000
00CC007000
018C007000
010C006000
018C00E000
00CC41C000
007C7F8000
0038000000
0000000000
0000000000
0000000000
ENDCHAR

STARTCHAR Ca4aa
ENCODING 42154
SWIDTH 1000 0
DWIDTH 34 0
BBX 34 34 0 -6
BITMAP
0000000000
0000000000
0000000000
0000000000
0040000000
0038000000
001C010000
001C00E000
001C007800
001C003C00
001CE01C00
041BE00E00
073F800E00
03FC000400
0018000000
0018000000
0018000000
0018FFC000
001BE1E000
001E007000
0078003800
00F8003800
0398003800
0618003800
0618003800
0618003800
0318007000
03D863E000
01F83F8000
0070000000
0000000000
0000000000
0000000000
0000000000
ENDCHAR

STARTCHAR Ca4ab
ENCODING 42155
SWIDTH 1000 0
DWIDTH 34 0
BBX 34 34 0 -6
BITMAP
0000000000
0000000000
0000000000
0000000000
001C000000
000E000000
0006000000
0006000000
0006000000
000E018000
000C00E000
040FE03000
0DFC701800
0FEC301C00
0718180E00
0018180600
0038180700
0030180700
0030181F00
006038FF00
0060380700
00E0380300
01C0300000
01D0700000
0398700000
038EE00000
0707E00000
0F03C00000
0E03800000
0403000000
0000000000
0000000000
0000000000
0000000000
ENDCHAR

STARTCHAR Ca4ac
ENCODING 42156
SWIDTH 1000 0
DWIDTH 34 0
BBX 34 34 0 -6
BITMAP
0000000000
0000000400
0000000700
0000000300
001C003100
000E001D00
0006000C00
0006000C00
0006000000
000E018000
000C00E000
040FE03000
0DFC701800
0FEC301C00
0718180E00
0018180600
0038180700
0030180700
0030181F00
006038FF00
0060380700
00E0380300
01C0300000
01D0700000
0398700000
038EE00000
0707E00000
0F03C00000
0E03800000
0403000000
0000000000
0000000000
0000000000
0000000000
ENDCHAR

STARTCHAR Ca4ad
ENCODING 42157
SWIDTH 1000 0
DWIDTH 34 0
BBX 34 34 0 -6
BITMAP
0000000000
0000000000
0000000000
0007800000
0003C00000
0001C00000
0000C78000
0000EF0000
00007C0000
00C1F00000
007FB00000
0000303800
0000187800
000019F000
01000FC000
01C07E0000
007FF60000
001E060000
0000030000
0000038000
0000018000
000FFFC000
003807C000
0060018000
00C0000000
00C0000000
00C0000000
00E0000000
0070000000
007FFF8000
001FFF8000
0000F00000
0000000000
0000000000
ENDCHAR

STARTCHAR Ca4ae
ENCODING 42158
SWIDTH 1000 0
DWIDTH 34 0
BBX 34 34 0 -6
BITMAP
0000000000
0000000400
0000000700
0007800300
0003C03100
0001C01D00
0000C78C00
0000EF0C00
00007C0000
00C1F00000
007FB00000
0000303800
0000187800
000019F000
01000FC000
01C07E0000
007FF60000
001E060000
0000030000
0000038000
0000018000
000FFFC000
003807C000
0060018000
00C0000000
00C0000000
00C0000000
00E0000000
0070000000
007FFF8000
001FFF8000
0001F80000
0000000000
0000000000
ENDCHAR

STARTCHAR Ca4af
ENCODING 42159
SWIDTH 1000 0
DWIDTH 34 0
BBX 34 34 0 -6
BITMAP
0000000000
0000000000
0000000000
0000000000
00000C0000
00000E0000
00001E0000
00003E0000
0000780000
0000F00000
0003C00000
0007000000
000E000000
0018000000
0030000000
0060000000
00C0000000
00E0000000
0070000000
003C000000
000E000000
0007800000
0003C00000
0000E00000
0000780000
00003C0000
00001E0000
00001F0000
00000F0000
0000078000
0000038000
0000030000
0000000000
0000000000
ENDCHAR

STARTCHAR Ca4b0
ENCODING 42160
SWIDTH 1000 0
DWIDTH 34 0
BBX 34 34 0 -6
BITMAP
0000000000
0000000000
0000000000
0000000000
00000C0000
00000E0000
00001E0000
00003E0000
0000780000
0000F04000
0003C07000
0007003800
000E031C00
001801CC00
003000E000
006000E000
00C0004000
00E0000000
0070000000
003C000000
000E000000
0007800000
0003C00000
0000E00000
0000780000
00003C0000
00001E0000
00001F0000
00000F0000
0000078000
0000038000
0000030000
0000000000
0000000000
ENDCHAR

STARTCHAR Ca4b1
ENCODING 42161
SWIDTH 1000 0
DWIDTH 34 0
BBX 34 34 0 -6
BITMAP
0000000000
0000000000
0000000000
0000070000
0100038000
01C001C000
00C001C000
00C001C000
00C001C000
01C001C000
01C001CC00
01C600FE00
01838FFC00
0181FFC000
018000C000
038000C000
030000C000
030000C000
030000C000
031001C000
033001C000
032001C000
036001C000
0360018000
03C0018000
03C0038000
01C0030000
01C0070000
01C00E0000
00C01C0000
00C0380000
0000600000
0000400000
0000000000
ENDCHAR

STARTCHAR Ca4b2
ENCODING 42162
SWIDTH 1000 0
DWIDTH 34 0
BBX 34 34 0 -6
BITMAP
0000000000
0000000400
0000000300
0000072100
0100039940
01C001DC40
00C001CE00
00C001CE00
00C001C000
01C001C000
01C001CC00
01C600FE00
01838FFC00
0181FFC000
018000C000
038000C000
030000C000
030000C000
030000C000
031001C000
033001C000
032001C000
036001C000
0360018000
03C0018000
03C0038000
01C0030000
01C0070000
01C00E0000
00C01C0000
00C0380000
0000600000
0000400000
0000000000
ENDCHAR

STARTCHAR Ca4b3
ENCODING 42163
SWIDTH 1000 0
DWIDTH 34 0
BBX 34 34 0 -6
BITMAP
0000000000
0000000000
0000000000
0000000000
0000000000
0000000000
0020000000
0038FF8000
000FFF8000
00003C0000
0000600000
0000800000
0001000000
0000000000
0000000000
0000000000
0000000000
0000000000
0000000000
0000000000
0200000000
0300000000
0100000000
0100000000
0180000000
00E0006000
007E1FF000
003FFFF000
0003FF0000
0000000000
0000000000
0000000000
0000000000
0000000000
ENDCHAR

STARTCHAR Ca4b4
ENCODING 42164
SWIDTH 1000 0
DWIDTH 34 0
BBX 34 34 0 -6
BITMAP
0000000000
0000000400
0000000600
0000000300
0000003100
0000001900
0020001C00
0038FF8C00
000FFF8000
00003C0000
0000600000
0000800000
0001000000
0000000000
0000000000
0000000000
0000000000
0000000000
0000000000
0000000000
0200000000
0300000000
0100000000
0100000000
0180000000
00E0006000
007E1FF000
003FFFF000
0003FF0000
0000000000
0000000000
0000000000
0000000000
0000000000
ENDCHAR

STARTCHAR Ca4b5
ENCODING 42165
SWIDTH 1000 0
DWIDTH 34 0
BBX 34 34 0 -6
BITMAP
0000000000
0000000000
0000000000
0000000000
000F800000
000FC00000
0001C00000
0000C06000
0000E1F000
000067E000
00007F8000
0200FC0000
0187F80000
00FF980000
00001C0000
00000C0000
00000E0000
0000070000
0000030000
0003C38000
001C3FC000
003007C000
0060018000
00C0000000
00C0000000
00C0000000
00C0000000
0070000000
003E1F8000
001FFF8000
0003FC0000
0000000000
0000000000
0000000000
ENDCHAR

STARTCHAR Ca4b6
ENCODING 42166
SWIDTH 1000 0
DWIDTH 34 0
BBX 34 34 0 -6
BITMAP
0000000000
0000000400
0000000300
0000002100
000F801940
000FC01C00
0001C00E00
0000C06E00
0000E1F000
000067E000
00007F8000
0200FC0000
0187F80000
00FF980000
00001C0000
00000C0000
00000E0000
0000070000
0000030000
0003C38000
001C3FC000
003007C000
0060018000
00C0000000
00C0000000
00C0000000
00C0000000
0070000000
003E1F8000
001FFF8000
0003FC0000
0000000000
0000000000
0000000000
ENDCHAR

STARTCHAR Ca4b7
ENCODING 42167
SWIDTH 1000 0
DWIDTH 34 0
BBX 34 34 0 -6
BITMAP
0000000000
0000000000
0000000000
0080000000
00E0000000
0070000000
0038000000
0038000000
0030000000
0070000000
0070000000
0070000000
0070000000
0070000000
0060000000
0060000000
0060000000
0060000000
0060000400
0060000800
0060000800
0060001800
0060003000
0060003000
0060006000
007000C000
0030038000
0038070000
001FFE0000
000FFC0000
0001E00000
0000000000
0000000000
0000000000
ENDCHAR

STARTCHAR Ca4b8
ENCODING 42168
SWIDTH 1000 0
DWIDTH 34 0
BBX 34 34 0 -6
BITMAP
0000000000
0000000000
0000000000
0080000000
00E0000000
0070000000
0038000000
0038030000
003001C000
007018E000
00700EE000
0070060000
0070070000
0070020000
0060000000
0060000000
0060000000
0060000000
0060000400
0060000800
0060000800
0060001800
0060003000
0060003000
0060006000
007000C000
0030038000
0038070000
001FFE0000
000FFC0000
0001E00000
0000000000
0000000000
0000000000
ENDCHAR

STARTCHAR Ca4b9
ENCODING 42169
SWIDTH 1000 0
DWIDTH 34 0
BBX 34 34 0 -6
BITMAP
0000000000
0000000000
0000000000
0000F00000
0000380000
0000380000
0000380000
0000300000
0000300000
10003FFE00
1FFFFFFF00
0FF8300000
0F00300000
0000300000
0000F00000
0003F00000
0006380000
0006180000
000C1C0000
000C1C0000
000C1C0000
000E3C0000
00077C0000
0003DC0000
0000180000
0000180000
0000380000
0000300000
0000700000
0000600000
0000C00000
0001800000
0001000000
0000000000
ENDCHAR

STARTCHAR Ca4ba
ENCODING 42170
SWIDTH 1000 0
DWIDTH 34 0
BBX 34 34 0 -6
BITMAP
0000000000
0000000400
0000000300
0000F02300
0000383940
0000381C00
0000380C00
0000300C00
0000300000
10003FFE00
1FFFFFFF00
0FF8300000
0F00300000
0000300000
0000F00000
0003F00000
0006380000
0006180000
000C1C0000
000C1C0000
000C1C0000
000E3C0000
00077C0000
0003DC0000
0000180000
0000180000
0000380000
0000300000
0000700000
0000600000
0000C00000
0001800000
0001000000
0000000000
ENDCHAR

STARTCHAR Ca4bb
ENCODING 42171
SWIDTH 1000 0
DWIDTH 34 0
BBX 34 34 0 -6
BITMAP
0000000000
0000000000
0000000000
0000000000
0000030000
0000018000
00E001C000
0070018000
0070018000
0070018000
0030018000
0030018000
003003FF00
203FFFFF00
3FFF838000
3FF0030000
1C30030000
0030030000
0030430000
00303B0000
00301F0000
00300E0000
0030060000
0030040000
0030000000
0038000000
0018000000
001E00F000
000FFFF800
0003FFF000
0000000000
0000000000
0000000000
0000000000
ENDCHAR

STARTCHAR Ca4bc
ENCODING 42172
SWIDTH 1000 0
DWIDTH 34 0
BBX 34 34 0 -6
BITMAP
0000000000
0000000400
0000000300
0000002100
0000031940
0000018C40
00E001CE00
0070018E00
0070018000
0070018000
0030018000
0030018000
003003FF00
203FFFFF00
3FFF838000
3FF0030000
1C30030000
0030030000
0030430000
00303B0000
00301F0000
00300E0000
0030060000
0030040000
0030000000
0038000000
0018000000
001E00F000
000FFFF800
0003FFF000
0000000000
0000000000
0000000000
0000000000
ENDCHAR

STARTCHAR Ca4bd
ENCODING 42173
SWIDTH 1000 0
DWIDTH 34 0
BBX 34 34 0 -6
BITMAP
0000000000
0000000000
0000000000
0000000000
0000020000
00201F0000
003FFF8000
003F8F8000
001C1E0000
0000380000
0000F00000
0001C00000
0003800000
0006001800
001C1FFC00
0437FFFC00
0FFE300000
07E0600000
0300C00000
0001800000
0003000000
0003000000
0007000000
0006000000
0007000000
0007000000
0003000000
0003800000
0001F30000
0000FF8000
00003F8000
0000000000
0000000000
0000000000
ENDCHAR

STARTCHAR Ca4be
ENCODING 42174
SWIDTH 1000 0
DWIDTH 34 0
BBX 34 34 0 -6
BITMAP
0000000000
0000000400
0000000700
0000002300
0000023100
00201F1D00
003FFF8C00
003F8F8C00
001C1E0000
0000380000
0000F00000
0001C00000
0003800000
0006001800
001C1FFC00
0437FFFC00
0FFE300000
07E0600000
0300C00000
0001800000
0003000000
0003000000
0007000000
0006000000
0007000000
0007000000
0003000000
0003800000
0001F30000
0000FF8000
00003F8000
0000000000
0000000000
0000000000
ENDCHAR

STARTCHAR Ca4bf
ENCODING 42175
SWIDTH 1000 0
DWIDTH 34 0
BBX 34 34 0 -6
BITMAP
0000000000
0000000000
0000000000
0000000000
0007000000
0003800000
0003800000
0003000000
0007000000
0006700000
0607F80000
039FE00000
01FE000000
000C000000
001800E000
00180FF800
00383FF000
0030438000
0070060000
0060000000
0060000000
00E0000000
00C0000000
01C0000000
0380800000
0380C00000
0700600000
07003C7C00
0E001FFE00
060003FC00
0000000000
0000000000
0000000000
0000000000
ENDCHAR

STARTCHAR Ca4c0
ENCODING 42176
SWIDTH 1000 0
DWIDTH 34 0
BBX 34 34 0 -6
BITMAP
0000000000
0000000000
0000000000
0000003800
0007000C00
0003818E00
000380E600
0003007000
0007007000
0006702000
0607F80000
039FE00000
01FE000000
000C000000
001800E000
00180FF800
00383FF000
0030438000
0070060000
0060000000
0060000000
00E0000000
00C0000000
01C0000000
0380800000
0380C00000
0700600000
07003C7C00
0E001FFE00
060003FC00
0000000000
0000000000
0000000000
0000000000
ENDCHAR

STARTCHAR Ca4c1
ENCODING 42177
SWIDTH 1000 0
DWIDTH 34 0
BBX 34 34 0 -6
BITMAP
0000000000
0000000000
0000000000
0000000000
001C000000
000E000000
000E000000
000E000000
000C380000
040CF80000
061FF00000
03FF000000
01F8000000
0018000000
0038000000
0030000000
0030000000
00303FC000
0031E0E000
0037007000
003E003800
003C003800
0038003800
0030003800
0000007000
0000007000
000000E000
000003C000
00000F0000
0000FC0000
0003800000
0000000000
0000000000
0000000000
ENDCHAR

STARTCHAR Ca4c2
ENCODING 42178
SWIDTH 1000 0
DWIDTH 34 0
BBX 34 34 0 -6
BITMAP
0000000000
0000000000
0000006000
0000003800
001C031800
000E019800
000E01C000
000E00C000
000C384000
040CF80000
061FF00000
03FF000000
01F8000000
0018000000
0038000000
0030000000
0030000000
00303FC000
0031E0E000
0037007000
003E003800
003C003800
0038003800
0030003800
0000007000
0000007000
000000E000
000003C000
00000F0000
0000FC0000
0003800000
0000000000
0000000000
0000000000
ENDCHAR

STARTCHAR Ca4c3
ENCODING 42179
SWIDTH 1000 0
DWIDTH 34 0
BBX 34 34 0 -6
BITMAP
0000000000
0000000000
0000000000
0000000000
0000000000
0000000000
0000000000
0000000000
0000000000
0000000000
0000000000
0000000000
0000000000
0000FF8000
0007E3C000
003F00E000
03F8007000
01F0003000
00C0003800
0000003800
0000003800
0000003000
0000007000
000000E000
000001E000
000003C000
00000F0000
00047C0000
0007C00000
0000000000
0000000000
0000000000
0000000000
0000000000
ENDCHAR

STARTCHAR Ca4c4
ENCODING 42180
SWIDTH 1000 0
DWIDTH 34 0
BBX 34 34 0 -6
BITMAP
0000000000
0000000000
0000000000
0000000000
0000000000
0000000000
0000000000
0000000000
0000000000
00007F8000
0007FFE000
003F007000
08FC003800
0FF0001C00
07C0001C00
0300000C00
0000000E00
0000000C00
0000001C00
0000001C00
0000003C00
0000003800
0000007000
000001E000
000007C000
00001F0000
0001F80000
0007000000
0000000000
0000000000
0000000000
0000000000
0000000000
0000000000
ENDCHAR

STARTCHAR Ca4c5
ENCODING 42181
SWIDTH 1000 0
DWIDTH 34 0
BBX 34 34 0 -6
BITMAP
0000000000
0000000400
0000000700
0000002300
0000003100
0000001D00
0000001C00
0000000C00
0000000000
00007F8000
0007FFE000
001F007000
08FC003800
0FF0001C00
07C0001C00
0300000C00
0000000E00
0000000C00
0000001C00
0000001C00
0000003C00
0000003800
0000007000
000001E000
000007C000
00001F0000
0001F80000
0007000000
0000000000
0000000000
0000000000
0000000000
0000000000
0000000000
ENDCHAR

STARTCHAR Ca4c6
ENCODING 42182
SWIDTH 1000 0
DWIDTH 34 0
BBX 34 34 0 -6
BITMAP
0000000000
0000000000
0000000000
0000000000
0000000000
0000000000
000007F800
0001FFFC00
183FCC0000
0FFC300000
0FE0600000
0700C00000
0000800000
0001800000
0003000000
0003000000
0003000000
0006000000
0006000000
0006000000
0006000000
0006000000
0006000000
0007000000
0003000000
0003800000
0001E00000
0000FFE000
00007FE000
00000FE000
0000000000
0000000000
0000000000
0000000000
ENDCHAR

STARTCHAR Ca4c7
ENCODING 42183
SWIDTH 1000 0
DWIDTH 34 0
BBX 34 34 0 -6
BITMAP
0000000000
0000000000
0000000000
0000000000
0000000000
0000000000
000007F800
0001FFFC00
183FCC0000
0FFC300000
0FE0600000
0700C00800
0000800E00
0001804700
0003007300
0003003900
0003001800
0006001800
0006000000
0006000000
0006000000
0006000000
0006000000
0007000000
0003000000
0003800000
0001E00000
0000FFE000
00007FE000
00000FE000
0000000000
0000000000
0000000000
0000000000
ENDCHAR

STARTCHAR Ca4c8
ENCODING 42184
SWIDTH 1000 0
DWIDTH 34 0
BBX 34 34 0 -6
BITMAP
0000000000
0000000000
0000000000
0000000000
0038000000
001E000000
000E000000
000E000000
000E000000
000E010000
000E018000
000E01C000
000607C000
00060FC000
00063E0000
0007F80000
0003E00000
0007800000
000E000000
0038000000
0070000000
0060000000
00C0000000
00C0000000
00C0000000
00C0000000
00E0000000
007C07F000
003FFFF000
0007FF8000
0000000000
0000000000
0000000000
0000000000
ENDCHAR

STARTCHAR Ca4c9
ENCODING 42185
SWIDTH 1000 0
DWIDTH 34 0
BBX 34 34 0 -6
BITMAP
0000000000
0000000000
0000000800
0000000E00
0038008700
001E006300
000E003300
000E003800
000E001800
000E010000
000E018000
000E01C000
000607C000
00060FC000
00063E0000
0007F80000
0003E00000
0007800000
000E000000
0038000000
0070000000
0060000000
00C0000000
00C0000000
00C0000000
00C0000000
00E0000000
007C07F000
003FFFF000
0007FF8000
0000000000
0000000000
0000000000
0000000000
ENDCHAR

STARTCHAR Ca4ca
ENCODING 42186
SWIDTH 1000 0
DWIDTH 34 0
BBX 34 34 0 -6
BITMAP
0000000000
0000000000
0000000000
000C000000
0007000000
0007000000
0007000000
0006600000
0207F00000
031FE08000
01FE00F000
001C003800
0018001C00
003800FC00
0030033C00
0070060000
00600C0000
00E00C0000
01C00C0000
03800C0000
03800C0000
07000E0000
07000E0000
0603FE0000
000F3FC000
001807F000
0018067800
00180E3C00
000C1E1C00
0007FC0000
0001F00000
0000000000
0000000000
0000000000
ENDCHAR

STARTCHAR Ca4cb
ENCODING 42187
SWIDTH 1000 0
DWIDTH 34 0
BBX 34 34 0 -6
BITMAP
0000000000
0000000000
0000000000
0000000000
0000000000
0180000000
00C0000000
00E080F000
00E0FFF000
00C03FF000
01C0060000
01C00C0000
0180100000
0180000000
0380000000
0300000000
0300000000
0300000000
0300000000
0310000000
0220000000
0260000000
0361000000
03C1800000
03C0C00000
03C07FFC00
01C03FFE00
01C007F800
01C0000000
00C0000000
0000000000
0000000000
0000000000
0000000000
ENDCHAR

STARTCHAR Ca4cc
ENCODING 42188
SWIDTH 1000 0
DWIDTH 34 0
BBX 34 34 0 -6
BITMAP
0000000000
0000000000
0000000000
0001000000
0001C00000
0020E00000
0060E00000
0060E00000
0060E00000
0061FF0000
0077C7C000
007CC0E000
0070C07000
0071803800
00F1803800
01B1801C00
0331801C00
0333001C00
0633001C00
0632001C00
0E36001C00
0E1C001C00
0C1C07DC00
0C1C1FF800
0C1C303C00
0E3E307E00
0E6E39EF00
07C41FC700
0380000300
0000000000
0000000000
0000000000
0000000000
0000000000
ENDCHAR

STARTCHAR Ca4cd
ENCODING 42189
SWIDTH 1000 0
DWIDTH 34 0
BBX 34 34 0 -6
BITMAP
0000000000
0000000000
0000000000
0020000000
003C000000
001C000000
000C000000
000C000000
000C000000
000C000000
001E0FC000
06FE1CE000
07EE607000
038CC03000
000D803800
001A001800
003C001800
0038001C00
0078001C00
00F8001C00
01D8001C00
0398001C00
0718001800
0FD81FF800
0E5C30F800
1C7C603E00
0C3C607F00
003C31E700
001C1FC300
0018000300
0018000000
0000000000
0000000000
0000000000
ENDCHAR

STARTCHAR Ca4ce
ENCODING 42190
SWIDTH 1000 0
DWIDTH 34 0
BBX 34 34 0 -6
BITMAP
0000000000
0000000000
0000000000
0000000000
0000000000
0000000000
0001FE0000
000FC78000
0038C1E000
0070C07000
00E0C03800
01C0C01800
0381C01C00
0301C00C00
0701C00E00
0601800E00
0E01800E00
0E03800E00
0C03000E00
0C03000E00
0C06000E00
0C06000E00
0C0C001C00
0E1C001C00
0E38003800
0770007000
07E000E000
0180078000
00007E0000
0000000000
0000000000
0000000000
0000000000
0000000000
ENDCHAR

STARTCHAR Ca4cf
ENCODING 42191
SWIDTH 1000 0
DWIDTH 34 0
BBX 34 34 0 -6
BITMAP
0000000000
0000000000
0000000000
0000000000
03000F0000
0180038000
01C0038000
01C0038000
01C0038000
0180038000
0380039C00
038603FC00
0303FFF800
0301FF8000
0700038000
0600038000
0600038000
0600038000
0600018000
0620018000
0640018000
06C0018000
06C0018000
0781FFC000
078383F800
070601BE00
0706018F00
0706038700
0303878100
0301FF0000
0300380000
0000000000
0000000000
0000000000
ENDCHAR

STARTCHAR Ca4d0
ENCODING 42192
SWIDTH 1000 0
DWIDTH 34 0
BBX 34 34 0 -6
BITMAP
0000000000
0000000800
0000000600
0000004300
03000F3300
018003B900
01C0039C00
01C0039C00
01C0038000
0180038000
0380039C00
038603FC00
0303FFF800
0301FF8000
0700038000
0600038000
0600038000
0600038000
0600018000
0620018000
0640018000
06C0018000
06C0018000
0781FFC000
078383F800
070601BE00
0706018F00
0706038700
0303878100
0301FF0000
0300380000
0000000000
0000000000
0000000000
ENDCHAR

STARTCHAR Ca4d1
ENCODING 42193
SWIDTH 1000 0
DWIDTH 34 0
BBX 34 34 0 -6
BITMAP
0000000000
0000000E00
0000001B00
0000001100
03000F1000
0180039100
01C0039F00
01C0038000
01C0038000
0180038000
0380039C00
038603FC00
0303FFF800
0301FF8000
0700038000
0600038000
0600038000
0600038000
0600018000
0620018000
0640018000
06C0018000
06C0018000
0781FFC000
078383F800
070601BE00
0706018F00
0706038700
0303878100
0301FF0000
0300380000
0000000000
0000000000
0000000000
ENDCHAR

STARTCHAR Ca4d2
ENCODING 42194
SWIDTH 1000 0
DWIDTH 34 0
BBX 34 34 0 -6
BITMAP
0000000000
0000000000
0000000000
0000000000
0000070000
0007078000
001F838000
087F038000
0DEE03C000
07CC01E000
0718017000
0038013000
003001B800
0060019E00
0060018E00
00C0018F00
0080018600
0180018000
0180018000
0100018000
0100018000
0300018000
0300038000
0300030000
0180070000
0180070000
01C00E0000
00F03C0000
007FF80000
003FE00000
0003000000
0000000000
0000000000
0000000000
ENDCHAR

STARTCHAR Ca4d3
ENCODING 42195
SWIDTH 1000 0
DWIDTH 34 0
BBX 34 34 0 -6
BITMAP
0000000000
0000000400
0000000700
0000002300
0000073940
0007079D00
000F838C00
087F038C00
0DEE03C000
07CC01E000
0718017000
0038013000
003001B800
0060019E00
0060018E00
00C0018F00
0080018600
0180018000
0180018000
0100018000
0100018000
0300018000
0300038000
0300030000
0180070000
0180070000
01C00E0000
00F03C0000
007FF80000
003FE00000
0003000000
0000000000
0000000000
0000000000
ENDCHAR

STARTCHAR Ca4d4
ENCODING 42196
SWIDTH 1000 0
DWIDTH 34 0
BBX 34 34 0 -6
BITMAP
0000000000
0000000600
0000000F00
0000001800
0000071000
0007079800
001F838F00
087F038200
0DEE03C000
07CC01E000
0718017000
0038013000
003001B800
0060019E00
0060018E00
00C0018F00
0080018600
0180018000
0180018000
0100018000
0100018000
0300018000
0300038000
0300030000
0180070000
0180070000
01C00E0000
00F03C0000
007FF80000
003FE00000
0003000000
0000000000
0000000000
0000000000
ENDCHAR

STARTCHAR Ca4d5
ENCODING 42197
SWIDTH 1000 0
DWIDTH 34 0
BBX 34 34 0 -6
BITMAP
0000000000
0000000000
0000000000
0000000000
0004000000
0003000000
0001F80000
00007C0000
0000FC0000
0001800000
0003000000
0006000000
0004000000
0006000000
0003000000
0001800000
0001CF0000
0000FFE000
0003F07800
000F381E00
003C1C0F00
00781C0700
01E00C0700
1FC00E0300
1F800E0000
0E000E0000
0C000E0000
001C1C0000
0007FC0000
0001F80000
0000000000
0000000000
0000000000
0000000000
ENDCHAR

STARTCHAR Ca4d6
ENCODING 42198
SWIDTH 1000 0
DWIDTH 34 0
BBX 34 34 0 -6
BITMAP
0000000000
0000000000
0000000000
0000000000
0004003000
0003001C00
0001F98E00
00007CC600
0000FC6600
0001807000
0003003000
0006000000
0004000000
0006000000
0003000000
0001800000
0001CF0000
0000FFE000
0003F07800
000F381E00
003C1C0F00
00781C0700
01E00C0700
1FC00E0300
1F800E0000
0E000E0000
0C000E0000
001C1C0000
0007FC0000
0001F80000
0000000000
0000000000
0000000000
0000000000
ENDCHAR

STARTCHAR Ca4d7
ENCODING 42199
SWIDTH 1000 0
DWIDTH 34 0
BBX 34 34 0 -6
BITMAP
0000000000
0000000000
0000000000
0000000000
0004000000
0003007C00
0001F8C400
00007C8400
0000FCC400
0001806C00
0003003000
0006000000
0004000000
0006000000
0003000000
0001800000
0001CF0000
0000FFE000
0003F07800
000F381E00
003C1C0F00
00781C0700
01E00C0700
1FC00E0300
1F800E0000
0E000E0000
0C000E0000
001C1C0000
0007FC0000
0001F80000
0000000000
0000000000
0000000000
0000000000
ENDCHAR

STARTCHAR Ca4d8
ENCODING 42200
SWIDTH 1000 0
DWIDTH 34 0
BBX 34 34 0 -6
BITMAP
0000000000
0000000000
0000000000
0000000000
0000000000
0000000000
0000000000
0000000000
0000000000
0003000000
000F800000
000DC00000
0018E00000
0038700000
0070380000
00E01C0000
00E00E0000
01C0070000
0B8003C000
0F8001E000
0F0000F000
0700007C00
0000003E00
0000001E00
0000000F00
0000000000
0000000000
0000000000
0000000000
0000000000
0000000000
0000000000
0000000000
0000000000
ENDCHAR

STARTCHAR Ca4d9
ENCODING 42201
SWIDTH 1000 0
DWIDTH 34 0
BBX 34 34 0 -6
BITMAP
0000000000
0000000000
0000000000
0000000000
0000000000
000000C000
0000007000
0000063800
0000033800
0003018000
000F818000
000DC08000
0018E00000
0038700000
0070380000
00E01C0000
00E00E0000
01C0070000
0B8003C000
0F8001E000
0F0000F000
0700007C00
0000003E00
0000001E00
0000000F00
0000000000
0000000000
0000000000
0000000000
0000000000
0000000000
0000000000
0000000000
0000000000
ENDCHAR

STARTCHAR Ca4da
ENCODING 42202
SWIDTH 1000 0
DWIDTH 34 0
BBX 34 34 0 -6
BITMAP
0000000000
0000000000
0000000000
0000000000
000000C000
000001F000
0000031000
0000021000
0000031000
000301F000
000F80C000
000DC00000
0018E00000
0038700000
0070380000
00E01C0000
00E00E0000
01C0070000
0B8003C000
0F8001E000
0F0000F000
0700007C00
0000003E00
0000001E00
0000000F00
0000000000
0000000000
0000000000
0000000000
0000000000
0000000000
0000000000
0000000000
0000000000
ENDCHAR

STARTCHAR Ca4db
ENCODING 42203
SWIDTH 1000 0
DWIDTH 34 0
BBX 34 34 0 -6
BITMAP
0000000000
0000000000
0000000000
0000000000
0100000000
0183003000
01C101F800
01C1FFF000
01C0030000
01C0030000
01C0030000
0180030000
0380030000
0382039E00
0303CFFE00
0301FFF000
0300038000
0300038000
0700018000
0600018000
0620018000
0660018000
06407F8000
06C1FFE000
078301FC00
038601BF00
0386018F00
0387038300
0383FF0000
0180FE0000
0100000000
0000000000
0000000000
0000000000
ENDCHAR

STARTCHAR Ca4dc
ENCODING 42204
SWIDTH 1000 0
DWIDTH 34 0
BBX 34 34 0 -6
BITMAP
0000000000
0000000400
0000000300
0000003100
0100001940
0183000C00
01C103EE00
01C1FFE600
01C0030000
01C0030000
01C0030000
0180030000
0380030000
0382039E00
0303CFFE00
0301FFF000
0300038000
0300038000
0700018000
0600018000
0620018000
0660018000
06407F8000
06C1FFE000
078301FC00
038601BF00
0386018F00
0387038300
0383FF8000
0180FE0000
0100000000
0000000000
0000000000
0000000000
ENDCHAR

STARTCHAR Ca4dd
ENCODING 42205
SWIDTH 1000 0
DWIDTH 34 0
BBX 34 34 0 -6
BITMAP
0000000000
0000000300
0000000D00
0000000840
0100000840
0183000840
01C103EF00
01C1FFE000
01C0030000
01C0030000
01C0030000
0180030000
0380030000
0382039E00
0303CFFE00
0301FFF000
0300038000
0300038000
0700018000
0600018000
0620018000
0660018000
06407F8000
06C1FFE000
078301FC00
038601BF00
0386018F00
0387038300
0383FF8000
0180FE0000
0100000000
0000000000
0000000000
0000000000
ENDCHAR

STARTCHAR Ca4de
ENCODING 42206
SWIDTH 1000 0
DWIDTH 34 0
BBX 34 34 0 -6
BITMAP
0000000000
0000000000
0000000000
0000C00000
0000F00000
0000700000
0000700000
0000700000
000070E000
01807FF000
00FFFFE000
003FF00000
0000700000
0000700000
0000700000
00C071E000
0070FFE000
003FFF0000
0000300000
0000300000
0000300000
0000300000
0000300000
007FF80000
00E07F0000
018037E000
018031F800
0180307800
00C0703800
007FE00000
001FC00000
0000000000
0000000000
0000000000
ENDCHAR

STARTCHAR Ca4df
ENCODING 42207
SWIDTH 1000 0
DWIDTH 34 0
BBX 34 34 0 -6
BITMAP
0000000000
0000000000
0000000000
0000000000
0000000000
0020300000
0067F80000
003FB80000
003C380000
0000700000
0000600000
0000E00000
0000C00000
0000C0F000
0001803000
0001803000
000F003000
00FFF83000
03863E3000
070E07F000
060C01F000
0C18007800
0C38007E00
1C3000EF00
1C6000C700
0CC001C300
0F80018000
0000030000
0000060000
00001C0000
0000700000
0000000000
0000000000
0000000000
ENDCHAR

STARTCHAR Ca4e0
ENCODING 42208
SWIDTH 1000 0
DWIDTH 34 0
BBX 34 34 0 -6
BITMAP
0000000000
0000000000
0000000000
0038000000
001C000000
000C000000
000C000000
001C000000
001DC04000
0C1FE02000
07FF803800
01F8001800
0018000C00
0018000E00
00F8000E00
039800FE00
0318001E00
0618000E00
0618000400
0C18000000
0C38010000
0E70018000
07F0018000
0330018000
0030008000
006000C000
006000E000
006000F000
007003E000
003FFFC000
001FFF0000
0000000000
0000000000
0000000000
ENDCHAR

STARTCHAR Ca4e1
ENCODING 42209
SWIDTH 1000 0
DWIDTH 34 0
BBX 34 34 0 -6
BITMAP
0000000000
0000000000
0000000000
0000C00000
0000700000
0000700000
0040700000
0040700000
0060700000
0061FF0000
006F61C000
0078607000
0070603800
00F0E01800
01F0C01C00
03B0C00E00
0331800E00
0731800E00
0631800E00
061B000E00
0E1B000E00
0E1E000E00
0C0C000E00
0C0E001C00
0C1F001C00
0E37003800
0FE3007000
07C000E000
000003C000
00001F0000
0000F00000
0000000000
0000000000
0000000000
ENDCHAR

STARTCHAR Ca4e2
ENCODING 42210
SWIDTH 1000 0
DWIDTH 34 0
BBX 34 34 0 -6
BITMAP
0000000000
0000000000
0000000000
000C000000
0007000000
0007000000
0007000000
0007000000
0007000000
0006000000
06067C0000
03FFFC0000
01FFC00000
000C000000
000C000000
001C000000
0018000000
0218104000
0399F86000
01FFF82000
0018002000
0038003000
0030003000
0030003000
0038003000
0018006000
0018006000
001C01E000
000F07C000
0007FF8000
0001FE0000
0000000000
0000000000
0000000000
ENDCHAR

STARTCHAR Ca4e3
ENCODING 42211
SWIDTH 1000 0
DWIDTH 34 0
BBX 34 34 0 -6
BITMAP
0000000000
0000000000
0000000000
0000000000
0000000000
0000000000
0000000000
0000000000
0003800000
0000E00000
0000700000
00F0300000
00F0100000
0038078000
00183FE000
0019E03800
000F801800
001E001C00
047E001C00
03F6001C00
03C3003800
0003107800
00030FE000
0001838000
0001800000
0001C00000
0000C00000
0000C00000
0000E00000
0000E00000
0000600000
0000600000
0000200000
0000000000
ENDCHAR

STARTCHAR Ca4e4
ENCODING 42212
SWIDTH 1000 0
DWIDTH 34 0
BBX 34 34 0 -6
BITMAP
0000000000
0000000000
0000000000
0003000000
0001E00000
0000F00000
0040780000
03E0380000
00E0000000
007001C000
00301FF800
0030F83C00
001BC00E00
001F000600
003C000700
00FC000700
1FEE000600
0F86000E00
0706101E00
00031C7C00
000307F000
0003800000
0001800000
0001800000
0001C00000
0000C00000
0000E00000
0000E00000
0000E00000
0000700000
0000700000
0000600000
0000000000
0000000000
ENDCHAR

STARTCHAR Ca4e5
ENCODING 42213
SWIDTH 1000 0
DWIDTH 34 0
BBX 34 34 0 -6
BITMAP
0000000000
0000000000
0000000000
0000000000
0000000000
0000000000
0000000000
0000000000
0000700000
0000380000
0100180000
01C0180000
01C01F0000
01C07FC000
01C0D8E000
0183187000
0186183800
018C183800
0188183800
0198183800
01B0183800
01B0183800
01E0183000
01E3187000
01E118E000
01E0F9C000
00C07F8000
00C03E0000
0040600000
0000E00000
0000C00000
0003000000
0000000000
0000000000
ENDCHAR

STARTCHAR Ca4e6
ENCODING 42214
SWIDTH 1000 0
DWIDTH 34 0
BBX 34 34 0 -6
BITMAP
0000000000
0000000000
0000000000
0000700000
0000380000
0000180000
0600180000
03001C0000
03801F8000
03803FE000
0300DC7800
03031C3800
03060C1C00
070C0C0E00
06180C0E00
06100C0E00
06300C0E00
06600C0E00
06600C0E00
06C01C0C00
06C01C1C00
07C21C3800
0783183800
038198F000
0380FFE000
03803F8000
0180300000
0080600000
0000C00000
0000800000
0003000000
0002000000
0000000000
0000000000
ENDCHAR

STARTCHAR Ca4e7
ENCODING 42215
SWIDTH 1000 0
DWIDTH 34 0
BBX 34 34 0 -6
BITMAP
0000000000
0000000000
0000000000
0000000000
0000000000
0000000000
0000000000
0000000000
0001C00000
0000E00000
0000E00000
0000E00000
0000E00000
0000E00000
0000E1C000
0000FFC000
0000FF0000
0000600000
0000600000
0000600000
0000600000
0000600000
0000600000
0000600000
000F600000
007FF80000
00C07F0000
00806FC000
00C061E000
00E0E0E000
007FC00000
000F000000
0000000000
0000000000
ENDCHAR

STARTCHAR Ca4e8
ENCODING 42216
SWIDTH 1000 0
DWIDTH 34 0
BBX 34 34 0 -6
BITMAP
0000000000
0000000000
0000000000
0003800000
0001E00000
0000E00000
0000E00000
0000E00000
0000E00000
0000E00000
0000E06000
0000E3F000
00007FE000
00007E0000
0000600000
0000600000
0000600000
0000600000
0000600000
0000600000
0000600000
0000600000
000E600000
00FFF80000
01C0FF0000
01006FC000
030063F000
030060F000
01C0E03000
00FFC00000
003F000000
0000000000
0000000000
0000000000
ENDCHAR

STARTCHAR Ca4e9
ENCODING 42217
SWIDTH 1000 0
DWIDTH 34 0
BBX 34 34 0 -6
BITMAP
0000000000
0000000000
0000000000
0020000000
0018000000
000FC00000
0007E00000
0007E00000
0018000000
0010000000
0020000000
0030000000
0070000000
0070000000
0060000000
0060000000
00600E0000
00C07FC000
00C380E000
00C7007000
00DC003000
00F8003800
00F0003800
00E0003800
0040007000
0000007000
000000E000
000003C000
00000F0000
0000FC0000
0003C00000
0000000000
0000000000
0000000000
ENDCHAR

STARTCHAR Ca4ea
ENCODING 42218
SWIDTH 1000 0
DWIDTH 34 0
BBX 34 34 0 -6
BITMAP
0000000000
0000000000
0000000000
0000000000
0000060000
00300F0000
0038030000
0018038000
0038038000
0038038000
0038018000
0030018000
0030018000
006001C000
006401C000
006C01C000
006801C000
007801C000
0078018000
0070018000
0070038000
0030038000
0030038000
0000030000
0000070000
0000060000
00000E0000
00001C0000
0000380000
0000E00000
0007800000
0004000000
0000000000
0000000000
ENDCHAR

STARTCHAR Ca4eb
ENCODING 42219
SWIDTH 1000 0
DWIDTH 34 0
BBX 34 34 0 -6
BITMAP
0000000000
0000000000
0000000000
0000000000
00000C0000
00007E0000
0067EE0000
003F9E0000
003C380000
0000700000
0000E00000
0001C00000
0003800000
0007000000
000E000000
001C7E0000
003B8F8000
007C01C000
00F000E000
01E0007000
03C0007000
0380007000
0300007000
021F007000
0031807000
0030C0E000
0030E1E000
001863C000
000F7F0000
0007FE0000
0000000000
0000000000
0000000000
0000000000
ENDCHAR

STARTCHAR Ca4ec
ENCODING 42220
SWIDTH 1000 0
DWIDTH 34 0
BBX 34 34 0 -6
BITMAP
0000000000
0000000000
0000000000
0040000000
003C000000
001C000000
001C000000
001C000000
0018038000
00180FE000
001C1CE000
04FE307000
07DE407000
071D807000
001B007000
001E007000
003C006000
0078006000
00F8006000
01D8006000
019800E000
039800E000
071800E100
0E9800E100
1CD800E300
1C78006700
1878007E00
0038003C00
0038000000
0038000000
0010000000
0000000000
0000000000
0000000000
ENDCHAR

STARTCHAR Ca4ed
ENCODING 42221
SWIDTH 1000 0
DWIDTH 34 0
BBX 34 34 0 -6
BITMAP
0000000000
0000000000
0000000000
0000000000
00000C0000
00003E0000
0067FF0000
003F9E0000
003C3C0000
0000700000
0000E00000
0001C00000
0003800000
0007000000
000E000000
001C1C0000
0039FF8000
007601E000
00F8007000
01E0007000
03C0003800
0380003800
0300003800
0200003800
0000007000
0000007000
000000E000
000003C000
00001F0000
0001FC0000
0006000000
0000000000
0000000000
0000000000
ENDCHAR

STARTCHAR Ca4ee
ENCODING 42222
SWIDTH 1000 0
DWIDTH 34 0
BBX 34 34 0 -6
BITMAP
0000000000
0000000000
0000000000
0000000000
0000000000
0000000000
0000000000
0000000000
0018000000
000E000000
000E000000
000E000000
000E000000
000C000000
011E0FC000
01FF39E000
01EE607000
008D803800
000F003800
001E001800
003C001C00
003C001C00
006C001800
00CC001800
01CC003800
03AC003000
072C007000
031C01E000
021C1F8000
001C000000
000C000000
0008000000
0000000000
0000000000
ENDCHAR

STARTCHAR Ca4ef
ENCODING 42223
SWIDTH 1000 0
DWIDTH 34 0
BBX 34 34 0 -6
BITMAP
0000000000
0000000000
0000000000
0000000000
003C000000
001C000000
000C000000
000C000000
000C000000
000C000000
001E07C000
06FE1FF000
07EE703800
038CC01C00
0009800E00
001A000E00
003C000600
0038000600
0078000700
00D8000600
01D8000600
0398000E00
0718000E00
0FD8001C00
0E58003C00
1C7C007800
0C3C01E000
003C1F8000
001C000000
0018000000
0018000000
0000000000
0000000000
0000000000
ENDCHAR

STARTCHAR Ca4f0
ENCODING 42224
SWIDTH 1000 0
DWIDTH 34 0
BBX 34 34 0 -6
BITMAP
0000000000
0000000000
0000000000
0000000000
0020700000
0067F00000
003F780000
003C700000
0000700000
0000600000
0000E00000
0000E00000
0000DC0000
0003FF8000
000FC0E000
0039807000
0073803800
00C3001C00
0183001C00
0387001C00
0706000E00
060E000E00
0E0C001C00
0E18FC1C00
0C398E1C00
0C31873800
0E61837800
07C1C3F000
0300FFE000
00007F8000
0000000000
0000000000
0000000000
0000000000
ENDCHAR

STARTCHAR Ca4f1
ENCODING 42225
SWIDTH 1000 0
DWIDTH 34 0
BBX 34 34 0 -6
BITMAP
0000000000
0000000000
0000000000
0000000000
00103C0000
003FFE0000
001F3C0000
000C700000
0001E00000
0003800000
0007000000
000CFF8000
003F01C000
007C00E000
00F000E000
01EF80E000
01C9C0E000
0018E1C000
000CE78000
0007FF0000
0003FC0000
0007000000
001C000000
003001C000
00C0067000
01FE1C3800
07C3381C00
0F01F00E00
1E01F00E00
1C00F00600
0000200600
0000000000
0000000000
0000000000
ENDCHAR

STARTCHAR Ca4f2
ENCODING 42226
SWIDTH 1000 0
DWIDTH 34 0
BBX 34 34 0 -6
BITMAP
0000000000
0000000000
0000000000
0002000000
0007800000
0003800000
0003000000
00031C0000
00067C0000
0107F00000
00FF800000
000C000000
0018000000
0018004000
0030007000
003780F000
0078C3F000
00F06F8000
00E07E0000
00C0780000
00C1F00000
0003B80000
0007380000
000E380000
000C300000
0018000000
0018000000
000C000000
000F01E000
0007FFE000
0000FFC000
0000000000
0000000000
0000000000
ENDCHAR

STARTCHAR Ca4f3
ENCODING 42227
SWIDTH 1000 0
DWIDTH 34 0
BBX 34 34 0 -6
BITMAP
0000000000
0000000000
0000000000
0000000000
0001000000
0001C00000
0000C00000
0000E00000
0001C00000
0001C00000
0003800000
0007000000
0006000000
000E000000
000C000000
0018000000
0039800000
0037E00000
006CE00200
0078700200
00F0700600
00E0700400
01C0700C00
03C0700C00
0380701800
0700303800
0700387000
0E001FE000
06000FC000
0600000000
0000000000
0000000000
0000000000
0000000000
ENDCHAR

STARTCHAR Ca5a1
ENCODING 42401
SWIDTH 1000 0
DWIDTH 34 0
BBX 34 34 0 -6
BITMAP
0000000000
0000000000
0000000000
0000000000
0000000000
0000000000
0000000000
0000000000
0000000000
0000000000
010000E000
01FFFFF000
00FFC0F000
007001C000
0000038000
0000070000
00010E0000
0001F80000
0000E00000
0000E00000
0000E00000
0000E00000
0000E00000
0000C00000
0000C00000
0001C00000
0001800000
0003800000
0003000000
0006000000
001C000000
0030000000
0000000000
0000000000
ENDCHAR

STARTCHAR Ca5a2
ENCODING 42402
SWIDTH 1000 0
DWIDTH 34 0
BBX 34 34 0 -6
BITMAP
0000000000
0000000000
0000000000
0000000000
0000000000
0000001000
060007FC00
07FFFFFC00
03FE007800
00C000F000
000001E000
000003C000
0000070000
00038E0000
0000F80000
0000E00000
0000E00000
0000E00000
0000E00000
0000E00000
0000C00000
0000C00000
0001C00000
0001800000
0001800000
0003000000
0003000000
0006000000
000C000000
0018000000
0060000000
0080000000
0000000000
0000000000
ENDCHAR

STARTCHAR Ca5a3
ENCODING 42403
SWIDTH 1000 0
DWIDTH 34 0
BBX 34 34 0 -6
BITMAP
0000000000
0000000000
0000000000
0000000000
0000000000
0000000000
0000000000
0000000000
0000000000
0000030000
0000038000
000003C000
0000078000
00000F0000
00001C0000
0000380000
0000700000
0001E00000
0003E00000
000E600000
0038600000
00E0600000
0300600000
0000600000
0000600000
0000600000
0000600000
0000600000
0000600000
0000700000
0000700000
0000600000
0000200000
0000000000
ENDCHAR

STARTCHAR Ca5a4
ENCODING 42404
SWIDTH 1000 0
DWIDTH 34 0
BBX 34 34 0 -6
BITMAP
0000000000
0000000000
0000000000
0000000000
0000030000
000001C000
000001E000
000001E000
000003C000
0000078000
00000F0000
00001C0000
0000380000
0000F00000
0001E00000
0007E00000
000E600000
0038600000
01E0600000
0700600000
0800600000
0000600000
0000700000
0000700000
0000700000
0000700000
0000700000
0000700000
0000700000
0000700000
0000700000
0000600000
0000000000
0000000000
ENDCHAR

STARTCHAR Ca5a5
ENCODING 42405
SWIDTH 1000 0
DWIDTH 34 0
BBX 34 34 0 -6
BITMAP
0000000000
0000000000
0000000000
0000000000
0000000000
0000000000
0000000000
0000000000
0001C00000
0000E00000
0000E00000
0000E00000
0000E04000
00E0E7E000
007FFFE000
007000E000
007000C000
007000C000
007001C000
007001C000
0070018000
0070038000
0030030000
0000070000
0000060000
00000E0000
00001C0000
0000380000
0000700000
0000C00000
0003800000
0006000000
0000000000
0000000000
ENDCHAR

STARTCHAR Ca5a6
ENCODING 42406
SWIDTH 1000 0
DWIDTH 34 0
BBX 34 34 0 -6
BITMAP
0000000000
0000000000
0000000000
0002000000
0001E00000
0000E00000
0000E00000
0000E00000
0000E02000
0380E0F000
01FFFFF800
00F8007000
00C0007000
00C0007000
00C0006000
00E000E000
00E000E000
00E000E000
00E000C000
00E001C000
00C0018000
0000038000
0000030000
0000060000
00000E0000
00001C0000
0000380000
0000600000
0000C00000
0003000000
000E000000
0000000000
0000000000
0000000000
ENDCHAR

STARTCHAR Ca5a7
ENCODING 42407
SWIDTH 1000 0
DWIDTH 34 0
BBX 34 34 0 -6
BITMAP
0000000000
0000000000
0000000000
0000000000
0000000000
0000000000
0000000000
0000000000
0000000000
0000000000
0000000000
0000000000
00C003C000
007FFFE000
007FE00000
0000E00000
0000E00000
0000E00000
0000E00000
0000E00000
0000E00000
0000E00000
0000E00000
0000E00000
0400E03800
0300EFFC00
03FFFFFC00
01F8000000
0000000000
0000000000
0000000000
0000000000
0000000000
0000000000
ENDCHAR

STARTCHAR Ca5a8
ENCODING 42408
SWIDTH 1000 0
DWIDTH 34 0
BBX 34 34 0 -6
BITMAP
0000000000
0000000000
0000000000
0000000000
0000000000
0000000000
0000000000
0000000000
010001F000
01FFFFF800
00FFE00000
0000E00000
0000E00000
0000E00000
0000E00000
0000E00000
0000E00000
0000E00000
0000E00000
0000E00000
0000E00000
0000E00000
1000E00C00
0800E0FF00
0FFFFFFF00
07FE000000
0000000000
0000000000
0000000000
0000000000
0000000000
0000000000
0000000000
0000000000
ENDCHAR

STARTCHAR Ca5a9
ENCODING 42409
SWIDTH 1000 0
DWIDTH 34 0
BBX 34 34 0 -6
BITMAP
0000000000
0000000000
0000000000
0000000000
0000000000
0000000000
0000000000
0000000000
0000380000
00001C0000
00000C0000
00000C0000
00000C0000
00000C0000
01000DFC00
00FFFFFC00
00FF7C0000
00006C0000
0000EC0000
0000CC0000
0001CC0000
00038C0000
00030C0000
00060C0000
000C0C0000
00180E0000
00300E0000
0060CE0000
01C03E0000
07001E0000
02000E0000
0000040000
0000000000
0000000000
ENDCHAR

STARTCHAR Ca5aa
ENCODING 42410
SWIDTH 1000 0
DWIDTH 34 0
BBX 34 34 0 -6
BITMAP
0000000000
0000000000
0000000000
0000380000
00001E0000
00000E0000
00000E0000
00000E0000
00000E0000
00000E0000
0600063E00
0383FFFF00
03FFFFFE00
01F0760000
0000660000
0000E60000
0000C60000
0001C60000
0003860000
0007060000
0006060000
000E060000
001C060000
0038060000
0070060000
00C0860000
0180F60000
07003F0000
1C000F0000
10000E0000
0000060000
0000000000
0000000000
0000000000
ENDCHAR

STARTCHAR Ca5ab
ENCODING 42411
SWIDTH 1000 0
DWIDTH 34 0
BBX 34 34 0 -6
BITMAP
0000000000
0000000000
0000000000
0001000000
0000E00000
0000700000
0000700000
0000700000
0000600000
0000600000
0000E03800
0300FFFC00
01FFFE1C00
00FEC01800
0001C03800
0001803800
0001803800
0003803000
0003003000
0003003000
0007007000
0006006000
000C006000
000C00E000
001830E000
003019C000
00700FC000
00E0078000
0180070000
0300070000
0600000000
0000000000
0000000000
0000000000
ENDCHAR

STARTCHAR Ca5ac
ENCODING 42412
SWIDTH 1000 0
DWIDTH 34 0
BBX 34 34 0 -6
BITMAP
0000000000
0000000400
0000000300
0001002100
0000E01940
0000701C00
0000700E00
0000700E00
0000600000
0000600000
0000E03800
0300FFFC00
01FFFE1C00
00FEC01800
0001C03800
0001803800
0001803800
0003803000
0003003000
0003003000
0007007000
0006006000
000C006000
000C00E000
001830E000
003019C000
00700FC000
00E0078000
0180070000
0300070000
0600000000
0000000000
0000000000
0000000000
ENDCHAR

STARTCHAR Ca5ad
ENCODING 42413
SWIDTH 1000 0
DWIDTH 34 0
BBX 34 34 0 -6
BITMAP
0000000000
0000000000
0000000000
0000000000
000F000000
0007800000
0003800000
0001800000
0001800000
0001808000
0001C3E000
0000FFE000
0407F00000
03FFC00000
03F0C00000
0080E00000
0000600800
0000607E00
000063FE00
00007F8000
040FF00000
07FE300000
03F0300000
0080300000
0000380000
0000380000
0000180000
00001C0000
00001C0000
00001C0000
00001C0000
00001C0000
0000000000
0000000000
ENDCHAR

STARTCHAR Ca5ae
ENCODING 42414
SWIDTH 1000 0
DWIDTH 34 0
BBX 34 34 0 -6
BITMAP
0000000000
0000000000
0000000C00
0000000600
000F004700
0007807300
0003803800
0001801800
0001801800
0001808000
0001C3E000
0000FFE000
0407F00000
03FFC00000
03F0C00000
0080E00000
0000600800
0000607E00
000063FE00
00007F8000
040FF00000
07FE300000
03F0300000
0080300000
0000380000
0000380000
0000180000
00001C0000
00001C0000
00001C0000
00001C0000
00001C0000
0000000000
0000000000
ENDCHAR

STARTCHAR Ca5af
ENCODING 42415
SWIDTH 1000 0
DWIDTH 34 0
BBX 34 34 0 -6
BITMAP
0000000000
0000000000
0000000000
0000000000
0002000000
0003C00000
0001C00000
0001C02000
000380F000
0003FFF000
000780F000
000600E000
000E00E000
001C01C000
003801C000
0030018000
0060038000
00C0070000
0700070000
06000E0000
00000C0000
00001C0000
0000380000
0000700000
0000E00000
0001C00000
0007000000
000E000000
0038000000
03C0000000
0200000000
0000000000
0000000000
0000000000
ENDCHAR

STARTCHAR Ca5b0
ENCODING 42416
SWIDTH 1000 0
DWIDTH 34 0
BBX 34 34 0 -6
BITMAP
0000000000
0000000400
0000000300
0000003300
0002001940
0003801C00
0001C00E00
0001C04E00
000380E000
0003FFF000
000780F000
000E00E000
000C00C000
001C01C000
003801C000
0070038000
00E0038000
0180070000
0300060000
04000E0000
00001C0000
0000180000
0000380000
0000700000
0000E00000
0003800000
0007000000
001C000000
0078000000
01C0000000
0200000000
0000000000
0000000000
0000000000
ENDCHAR

STARTCHAR Ca5b1
ENCODING 42417
SWIDTH 1000 0
DWIDTH 34 0
BBX 34 34 0 -6
BITMAP
0000000000
0000000000
0000000000
0000000000
0038000000
001E000000
000E000000
000C000000
001C000000
001C000000
003800FC00
003FFFFE00
007F9C0400
00601C0000
00E01C0000
00C01C0000
0180180000
0300180000
0600380000
0C00380000
0000300000
0000300000
0000700000
0000600000
0000C00000
0001C00000
0003800000
0007000000
000C000000
0078000000
0060000000
0000000000
0000000000
0000000000
ENDCHAR

STARTCHAR Ca5b2
ENCODING 42418
SWIDTH 1000 0
DWIDTH 34 0
BBX 34 34 0 -6
BITMAP
0000000000
0000000400
0000000700
0000002300
0038003940
001E001C00
000E000E00
000C000C00
001C000000
001C000000
003800FC00
003FFFFE00
007F9C0400
00601C0000
00E01C0000
00C01C0000
0180180000
0300180000
0600380000
0C00380000
0000300000
0000300000
0000700000
0000600000
0000C00000
0001C00000
0003800000
0007000000
000C000000
0078000000
0060000000
0000000000
0000000000
0000000000
ENDCHAR

STARTCHAR Ca5b3
ENCODING 42419
SWIDTH 1000 0
DWIDTH 34 0
BBX 34 34 0 -6
BITMAP
0000000000
0000000000
0000000000
0000000000
0000000000
0000000000
0000000000
0000000000
0080006000
00E03FF000
007FFF7000
003C006000
000000E000
000000E000
000000E000
000000E000
000000E000
000000E000
000000E000
000000C000
000000C000
000000C000
000000C000
000000C000
018000C000
00FFFFE000
00FFFFE000
0000000000
0000000000
0000000000
0000000000
0000000000
0000000000
0000000000
ENDCHAR

STARTCHAR Ca5b4
ENCODING 42420
SWIDTH 1000 0
DWIDTH 34 0
BBX 34 34 0 -6
BITMAP
0000000000
0000000400
0000000300
0000002300
0000003940
0000001C00
0000000E00
0000000C00
0080006000
00E03FF000
007FFF7000
003C006000
000000E000
000000E000
000000E000
000000E000
000000E000
000000E000
000000E000
000000C000
000000C000
000000C000
000000C000
000000C000
018000C000
00FFFFE000
00FFFFE000
0000000000
0000000000
0000000000
0000000000
0000000000
0000000000
0000000000
ENDCHAR

STARTCHAR Ca5b5
ENCODING 42421
SWIDTH 1000 0
DWIDTH 34 0
BBX 34 34 0 -6
BITMAP
0000000000
0000000000
0000000000
0000000000
00000E0000
0060070000
0038070000
001C030000
001C030000
0018030000
0018030000
0018030000
1018037E00
1FFFFFFF00
0FFE070000
0718070000
0018070000
0018070000
0018070000
001C060000
0018060000
0018060000
00000E0000
00000C0000
00001C0000
0000180000
0000300000
0000600000
0001C00000
0003800000
000E000000
0010000000
0000000000
0000000000
ENDCHAR

STARTCHAR Ca5b6
ENCODING 42422
SWIDTH 1000 0
DWIDTH 34 0
BBX 34 34 0 -6
BITMAP
0000000000
0000000000
0000000700
0000002300
00000E3940
0060071C00
0038070C00
001C030C00
001C030000
0018030000
0018030000
0018030000
1018037E00
1FFFFFFF00
0FFE070000
0718070000
0018070000
0018070000
0018070000
001C060000
0018060000
0018060000
00000E0000
00000C0000
00001C0000
0000180000
0000300000
0000600000
0001C00000
0003800000
000E000000
0010000000
0000000000
0000000000
ENDCHAR

STARTCHAR Ca5b7
ENCODING 42423
SWIDTH 1000 0
DWIDTH 34 0
BBX 34 34 0 -6
BITMAP
0000000000
0000000000
0000000000
0000000000
0000000000
003C000000
000F000000
0007800000
0003C00000
0001C00100
0000C00300
0F00000200
03C0000600
00F0000C00
0078000800
0038001800
0038003000
0008006000
000000E000
000001C000
0000038000
0000070000
00001E0000
00003C0000
0000F00000
0001E00000
0107C00000
00FF000000
00FC000000
0078000000
0000000000
0000000000
0000000000
0000000000
ENDCHAR

STARTCHAR Ca5b8
ENCODING 42424
SWIDTH 1000 0
DWIDTH 34 0
BBX 34 34 0 -6
BITMAP
0000000000
0000000C00
0000000700
0000006300
0000003100
003C001D00
000F001C00
0007800C00
0003C00000
0001C00100
0000C00300
0F00000200
03C0000600
00F0000C00
0078000800
0038001800
0038003000
0008006000
000000E000
000001C000
0000038000
0000070000
00001E0000
00003C0000
0000F00000
0001E00000
0107C00000
00FF000000
00FC000000
0078000000
0000000000
0000000000
0000000000
0000000000
ENDCHAR

STARTCHAR Ca5b9
ENCODING 42425
SWIDTH 1000 0
DWIDTH 34 0
BBX 34 34 0 -6
BITMAP
0000000000
0000000000
0000000000
0000000000
0000000000
0000000000
0000010000
00801F0000
00FFFF8000
007F078000
0010070000
00000E0000
00000E0000
00001C0000
00001C0000
0000380000
0000300000
0000700000
0000E00000
0000DC0000
0001C70000
0003838000
000701E000
000E00F000
001C007800
0070003C00
00E0001C00
0380001C00
0E00000000
0800000000
0000000000
0000000000
0000000000
0000000000
ENDCHAR

STARTCHAR Ca5ba
ENCODING 42426
SWIDTH 1000 0
DWIDTH 34 0
BBX 34 34 0 -6
BITMAP
0000000000
0000000400
0000000700
0000002300
0000003900
0000001D00
0000010C00
00801F0C00
00FFFF8000
007F078000
0010070000
00000E0000
00000E0000
00001C0000
00001C0000
0000380000
0000300000
0000700000
0000E00000
0000DC0000
0001C70000
0003838000
000701E000
000E00F000
001C007800
0070003C00
00E0001C00
0380001C00
0E00000000
0800000000
0000000000
0000000000
0000000000
0000000000
ENDCHAR

STARTCHAR Ca5bb
ENCODING 42427
SWIDTH 1000 0
DWIDTH 34 0
BBX 34 34 0 -6
BITMAP
0000000000
0000000000
0000000000
0000000000
0000000000
003C000000
001C000000
001C000000
001C000000
000C000000
000C007000
000C01F800
000C3FFC00
000FF87000
1DFF00E000
0FFC01C000
078C038000
000C030000
000C060000
000C180000
000C080000
000C000000
000C000000
000C000000
000C000000
000C000000
000E000000
000781E000
0003FFF000
0000FFE000
0000000000
0000000000
0000000000
0000000000
ENDCHAR

STARTCHAR Ca5bc
ENCODING 42428
SWIDTH 1000 0
DWIDTH 34 0
BBX 34 34 0 -6
BITMAP
0000000000
0000000000
0000000600
0000000300
0000003100
003C001900
001C001C00
001C000C00
001C000000
000C000000
000C007000
000C01F800
000C3FFC00
000FF87000
1DFF00E000
0FFC01C000
078C038000
000C030000
000C060000
000C180000
000C080000
000C000000
000C000000
000C000000
000C000000
000C000000
000E000000
000781E000
0003FFF000
0000FFE000
0000000000
0000000000
0000000000
0000000000
ENDCHAR

STARTCHAR Ca5bd
ENCODING 42429
SWIDTH 1000 0
DWIDTH 34 0
BBX 34 34 0 -6
BITMAP
0000000000
0000000000
0000000000
0000000000
0000000000
000000C000
0000007000
0200007800
0180007800
01C0007000
00E0007000
00F0007000
007000E000
007800E000
003800C000
003801C000
0010018000
0000038000
0000030000
0000070000
00000E0000
00000C0000
0000180000
0000380000
0000700000
0000C00000
0003800000
0007000000
001C000000
0070000000
0040000000
0000000000
0000000000
0000000000
ENDCHAR

STARTCHAR Ca5be
ENCODING 42430
SWIDTH 1000 0
DWIDTH 34 0
BBX 34 34 0 -6
BITMAP
0000000000
0000000400
0000000300
0000002100
0000001940
0000011C00
000001CE00
060000EC00
0300007000
0180007000
01C000E000
00E000E000
00F000E000
007001C000
007001C000
0070038000
0020038000
0000070000
0000070000
00000E0000
00000C0000
00001C0000
0000380000
0000700000
0000E00000
0001C00000
0003000000
000E000000
0038000000
00E0000000
0080000000
0000000000
0000000000
0000000000
ENDCHAR

STARTCHAR Ca5bf
ENCODING 42431
SWIDTH 1000 0
DWIDTH 34 0
BBX 34 34 0 -6
BITMAP
0000000000
0000000000
0000000000
0000000000
0003800000
0001C00000
0001C00000
0001C06000
000387F000
0003FFF000
000700F000
000600E000
000E00E000
001C01C000
003801C000
003E038000
0063838000
00C1C70000
0300770000
06003E0000
00001C0000
00001E0000
00003F0000
0000778000
0000E38000
0001C10000
0003800000
000E000000
0038000000
00E0000000
0380000000
0000000000
0000000000
0000000000
ENDCHAR

STARTCHAR Ca5c0
ENCODING 42432
SWIDTH 1000 0
DWIDTH 34 0
BBX 34 34 0 -6
BITMAP
0000000000
0000000400
0000000700
0000002300
0003803940
0001C01C00
0001C00E00
0001C06C00
000387F000
0003FFF000
000700F000
000600E000
000E00E000
001C01C000
003801C000
003E038000
0063838000
00C1C70000
0300770000
06003E0000
00001C0000
00001E0000
00003F0000
0000778000
0000E38000
0001C10000
0003800000
000E000000
0038000000
00E0000000
0380000000
0000000000
0000000000
0000000000
ENDCHAR

STARTCHAR Ca5c1
ENCODING 42433
SWIDTH 1000 0
DWIDTH 34 0
BBX 34 34 0 -6
BITMAP
0000000000
0000000000
0000000000
0000000000
0000018000
000001C000
000007C000
00003F8000
0003FC0000
003FF00000
01E0700000
0000700000
0000700000
0000700000
0800703E00
0E01FFFE00
07FFFFFE00
03F0700000
0000700000
0000600000
0000600000
0000E00000
0000C00000
0000C00000
0001800000
0003800000
0007000000
000E000000
0018000000
0030000000
00C0000000
0000000000
0000000000
0000000000
ENDCHAR

STARTCHAR Ca5c2
ENCODING 42434
SWIDTH 1000 0
DWIDTH 34 0
BBX 34 34 0 -6
BITMAP
0000000000
0000000400
0000000700
0000022300
0000011940
000001DC00
000007CE00
00003F8C00
0003FC0000
003FF00000
01E0700000
0000700000
0000700000
0000700000
0800703E00
0E01FFFE00
07FFFFFE00
03F0700000
0000700000
0000600000
0000600000
0000E00000
0000C00000
0000C00000
0001800000
0003800000
0007000000
000E000000
0018000000
0030000000
00C0000000
0000000000
0000000000
0000000000
ENDCHAR

STARTCHAR Ca5c3
ENCODING 42435
SWIDTH 1000 0
DWIDTH 34 0
BBX 34 34 0 -6
BITMAP
0000000000
0000000000
0000000000
0000000000
0000000000
0000000000
0000000000
0000000000
0000000000
0000000000
0006008000
000200F000
0303007000
0181807000
01C180E000
00C1C0E000
00E1C0C000
00E1C1C000
006001C000
0060038000
0000030000
0000070000
0000060000
00000C0000
00001C0000
0000380000
0000700000
0000C00000
0003800000
0006000000
0038000000
0020000000
0000000000
0000000000
ENDCHAR

STARTCHAR Ca5c4
ENCODING 42436
SWIDTH 1000 0
DWIDTH 34 0
BBX 34 34 0 -6
BITMAP
0000000000
0000000000
0000000000
0000000000
0000000000
0000000000
0004007800
0006003C00
0403003C00
0603803800
0303803800
0381C03800
01C1C07000
01C1C07000
01C180E000
01C000E000
00C001C000
000001C000
0000038000
0000030000
0000070000
00000E0000
00001C0000
0000380000
0000700000
0000E00000
0001C00000
0007000000
000C000000
0030000000
0040000000
0000000000
0000000000
0000000000
ENDCHAR

STARTCHAR Ca5c5
ENCODING 42437
SWIDTH 1000 0
DWIDTH 34 0
BBX 34 34 0 -6
BITMAP
0000000000
0000000400
0000000300
0000003300
0000001940
0000000C00
000C00CE00
0006006400
0C07007000
0603003800
0703807800
0383807000
0383C07000
01C3C0E000
01C180E000
01C000C000
018001C000
0000018000
0000038000
0000070000
0000060000
00000E0000
00001C0000
0000380000
0000700000
0000E00000
0001800000
0007000000
001C000000
0030000000
0040000000
0000000000
0000000000
0000000000
ENDCHAR

STARTCHAR Ca5c6
ENCODING 42438
SWIDTH 1000 0
DWIDTH 34 0
BBX 34 34 0 -6
BITMAP
0000000000
0000000000
0000000000
0000000000
0000000000
00C0078000
007FFFC000
003FE08000
0000000000
0000000000
0000000000
0000000000
0000000000
0000001C00
0C001FFE00
07FFFFFE00
03F8700000
0000700000
0000700000
0000700000
0000600000
0000600000
0000600000
0000E00000
0000C00000
0001C00000
0001800000
0003000000
0006000000
000C000000
0018000000
0020000000
0000000000
0000000000
ENDCHAR

STARTCHAR Ca5c7
ENCODING 42439
SWIDTH 1000 0
DWIDTH 34 0
BBX 34 34 0 -6
BITMAP
0000000000
0000000400
0000000300
0000002300
0000003940
00C0079C00
007FFFCC00
003FE08C00
0000000000
0000000000
0000000000
0000000000
0000000000
0000001C00
0C001FFE00
07FFFFFE00
03F8700000
0000700000
0000700000
0000700000
0000600000
0000600000
0000600000
0000E00000
0000C00000
0001C00000
0001800000
0003000000
0006000000
000C000000
0018000000
0020000000
0000000000
0000000000
ENDCHAR

STARTCHAR Ca5c8
ENCODING 42440
SWIDTH 1000 0
DWIDTH 34 0
BBX 34 34 0 -6
BITMAP
0000000000
0000000000
0000000000
0018000000
000E000000
0007000000
0007000000
0007000000
0007000000
0007000000
0007000000
0007000000
0007000000
0007000000
0007E00000
00073C0000
00070F0000
0007078000
000703C000
000701E000
000700F000
0007007000
0007000000
0007000000
0007000000
0007000000
0007000000
0007000000
0007000000
0007000000
0007000000
0006000000
0000000000
0000000000
ENDCHAR

STARTCHAR Ca5c9
ENCODING 42441
SWIDTH 1000 0
DWIDTH 34 0
BBX 34 34 0 -6
BITMAP
0000000000
0000000000
0000000000
0018000000
000E000000
0007006000
0007003000
0007031800
0007019800
000701C000
000700C000
000700C000
0007000000
0007000000
0007E00000
00073C0000
00070F0000
0007078000
000703C000
000701E000
000700F000
0007007000
0007000000
0007000000
0007000000
0007000000
0007000000
0007000000
0007000000
0007000000
0007000000
0006000000
0000000000
0000000000
ENDCHAR

STARTCHAR Ca5ca
ENCODING 42442
SWIDTH 1000 0
DWIDTH 34 0
BBX 34 34 0 -6
BITMAP
0000000000
0000000000
0000000000
0000C00000
0000700000
0000380000
0000380000
0000380000
0000380000
0000380000
0000380000
0000300000
0800307E00
0FFFFFFF00
07FFF00000
03C0300000
0000300000
0000700000
0000700000
0000600000
0000600000
0000600000
0000E00000
0000C00000
0001C00000
0001800000
0003000000
0006000000
000C000000
0018000000
00E0000000
0040000000
0000000000
0000000000
ENDCHAR

STARTCHAR Ca5cb
ENCODING 42443
SWIDTH 1000 0
DWIDTH 34 0
BBX 34 34 0 -6
BITMAP
0000000000
0000000000
0000000000
0000000000
0000000000
0000000000
0000000000
0000000000
0000000000
0080000000
00E03FE000
007FFFF000
003C000000
0000000000
0000000000
0000000000
0000000000
0000000000
0000000000
0000000000
0000000000
0000000000
180001FE00
0FFFFFFF00
07FFC00F00
0380000000
0000000000
0000000000
0000000000
0000000000
0000000000
0000000000
0000000000
0000000000
ENDCHAR

STARTCHAR Ca5cc
ENCODING 42444
SWIDTH 1000 0
DWIDTH 34 0
BBX 34 34 0 -6
BITMAP
0000000000
0000000000
0000000000
0000000000
0000000000
0000008000
00C007C000
00FFFFE000
007F01E000
000001C000
0000038000
0000038000
0000030000
0000070000
0038060000
000F0E0000
0003DC0000
0000FC0000
00003C0000
00007E0000
0000E78000
0001C3C000
000381E000
000700E000
000E006000
001C002000
0030000000
00E0000000
0380000000
0600000000
0000000000
0000000000
0000000000
0000000000
ENDCHAR

STARTCHAR Ca5cd
ENCODING 42445
SWIDTH 1000 0
DWIDTH 34 0
BBX 34 34 0 -6
BITMAP
0000000000
0000000000
0000000000
000F800000
0003E00000
0000F00000
0000700000
0000300000
0000000000
00400E0000
0063FE0000
007FCF0000
003C1E0000
00001C0000
0000380000
0000700000
0000E00000
0001E80000
0003EF0000
000763C000
000E61E000
001860F000
0070607800
00C0E03800
0380E01800
0E00E00000
1800E00000
0000E00000
0000E00000
0000E00000
0000E00000
0000E00000
0000000000
0000000000
ENDCHAR

STARTCHAR Ca5ce
ENCODING 42446
SWIDTH 1000 0
DWIDTH 34 0
BBX 34 34 0 -6
BITMAP
0000000000
0000000000
0000000000
0000000000
0000000000
0000040000
0000038000
000001C000
000001C000
000003C000
0000038000
0000038000
0000038000
0000070000
0000070000
00000E0000
00000E0000
00001C0000
0000180000
0000380000
0000700000
0000E00000
0001C00000
0003800000
0007000000
000E000000
001C000000
0070000000
01C0000000
0300000000
0000000000
0000000000
0000000000
0000000000
ENDCHAR

STARTCHAR Ca5cf
ENCODING 42447
SWIDTH 1000 0
DWIDTH 34 0
BBX 34 34 0 -6
BITMAP
0000000000
0000000000
0000000000
0000000000
0000000000
0000000000
0000000000
0000000000
001C080000
000E0C0000
000F030000
000E018000
000E00C000
001C00E000
001C007000
001C003800
0038003C00
0030001C00
0070001E00
0060000E00
00E0000F00
01C0000F00
0180000700
0300000700
0600000000
0C00000000
1800000000
0000000000
0000000000
0000000000
0000000000
0000000000
0000000000
0000000000
ENDCHAR

STARTCHAR Ca5d0
ENCODING 42448
SWIDTH 1000 0
DWIDTH 34 0
BBX 34 34 0 -6
BITMAP
0000000000
0000000000
0000001000
0000001C00
0000008E00
000000E600
0000007600
0000003000
001C083000
000E0C0000
000F030000
000E018000
000E00C000
001C00E000
001C007000
001C003800
0038003C00
0030001C00
0070001E00
0060000E00
00E0000F00
01C0000F00
0180000700
0300000700
0600000000
0C00000000
1800000000
0000000000
0000000000
0000000000
0000000000
0000000000
0000000000
0000000000
ENDCHAR

STARTCHAR Ca5d1
ENCODING 42449
SWIDTH 1000 0
DWIDTH 34 0
BBX 34 34 0 -6
BITMAP
0000000000
0000000000
0000000000
0000007800
000000C400
0000008400
0000008400
0000004C00
001C083800
000E0C0000
000F030000
000E018000
000E00C000
001C00E000
001C007000
001C003800
0038003C00
0030001C00
0070001E00
0060000E00
00E0000F00
01C0000F00
0180000700
0300000700
0600000000
0C00000000
1800000000
0000000000
0000000000
0000000000
0000000000
0000000000
0000000000
0000000000
ENDCHAR

STARTCHAR Ca5d2
ENCODING 42450
SWIDTH 1000 0
DWIDTH 34 0
BBX 34 34 0 -6
BITMAP
0000000000
0000000000
0000000000
0000000000
0000000000
03C0000000
01E0000000
00E0000000
00E0000000
00E0018000
00E000C000
00E001E000
00E007E000
00E00F8000
00E03E0000
00E0F00000
00E7C00000
007E000000
0060000000
0060000000
0060000000
0060000000
0060000000
0060000000
0060000000
0060000000
0070002000
003FFFF800
001FFFF800
0000FF8000
0000000000
0000000000
0000000000
0000000000
ENDCHAR

STARTCHAR Ca5d3
ENCODING 42451
SWIDTH 1000 0
DWIDTH 34 0
BBX 34 34 0 -6
BITMAP
0000000000
0000000400
0000000700
0000000300
0000003940
03C0001C00
01E0000C00
00E0000C00
00E0000000
00E0018000
00E000C000
00E001E000
00E007E000
00E00F8000
00E03E0000
00E0F00000
00E7C00000
007E000000
0060000000
0060000000
0060000000
0060000000
0060000000
0060000000
0060000000
0060000000
0070002000
003FFFF800
001FFFF800
0000FF8000
0000000000
0000000000
0000000000
0000000000
ENDCHAR

STARTCHAR Ca5d4
ENCODING 42452
SWIDTH 1000 0
DWIDTH 34 0
BBX 34 34 0 -6
BITMAP
0000000000
0000000000
0000000E00
0000001B00
0000003100
03C0003100
01E0001100
00E0001F00
00E0000000
00E0018000
00E000C000
00E001E000
00E007E000
00E00F8000
00E03E0000
00E0F00000
00E7C00000
007E000000
0060000000
0060000000
0060000000
0060000000
0060000000
0060000000
0060000000
0060000000
0070002000
003FFFF800
001FFFF800
0000FF8000
0000000000
0000000000
0000000000
0000000000
ENDCHAR

STARTCHAR Ca5d5
ENCODING 42453
SWIDTH 1000 0
DWIDTH 34 0
BBX 34 34 0 -6
BITMAP
0000000000
0000000000
0000000000
0000000000
0000000000
0000000000
0000000000
020000F000
03FFFFF800
01FFE07800
00F0007000
0000007000
000000E000
000000E000
000001C000
000001C000
0000038000
0000038000
0000070000
0000060000
00000E0000
00001C0000
0000380000
0000700000
0000E00000
0001C00000
0003000000
000E000000
0038000000
0040000000
0000000000
0000000000
0000000000
0000000000
ENDCHAR

STARTCHAR Ca5d6
ENCODING 42454
SWIDTH 1000 0
DWIDTH 34 0
BBX 34 34 0 -6
BITMAP
0000000000
0000000400
0000000300
0000002100
0000001940
0000001C00
0000000E00
020000EC00
03BFFFF000
01FFF07800
00F8007800
0000007000
000000E000
000000E000
000000E000
000001C000
000001C000
0000038000
0000070000
0000070000
00000E0000
00001C0000
0000380000
0000700000
0000E00000
0001C00000
0003000000
000E000000
0038000000
0060000000
0000000000
0000000000
0000000000
0000000000
ENDCHAR

STARTCHAR Ca5d7
ENCODING 42455
SWIDTH 1000 0
DWIDTH 34 0
BBX 34 34 0 -6
BITMAP
0000000000
0000000700
0000000D00
0000001840
0000001840
0000000840
0000000F00
020000F000
03FFFFF800
01FFE07800
00F0007000
0000007000
000000E000
000000E000
000001C000
000001C000
0000038000
0000038000
0000070000
0000060000
00000E0000
00001C0000
0000380000
0000700000
0000E00000
0001C00000
0003000000
000E000000
0038000000
0040000000
0000000000
0000000000
0000000000
0000000000
ENDCHAR

STARTCHAR Ca5d8
ENCODING 42456
SWIDTH 1000 0
DWIDTH 34 0
BBX 34 34 0 -6
BITMAP
0000000000
0000000000
0000000000
0000000000
0000000000
0000000000
0000000000
0000000000
0000000000
0003800000
0007C00000
000CE00000
0018700000
0038380000
00701C0000
00E00E0000
01E0070000
01C0038000
138001E000
1F0000F000
0F00007800
0600003E00
0000001F00
0000000F00
0000000700
0000000000
0000000000
0000000000
0000000000
0000000000
0000000000
0000000000
0000000000
0000000000
ENDCHAR

STARTCHAR Ca5d9
ENCODING 42457
SWIDTH 1000 0
DWIDTH 34 0
BBX 34 34 0 -6
BITMAP
0000000000
0000000000
0000000000
0000000000
0000000000
000000C000
0000007000
0000063800
0000039800
000381C000
0007C1C000
000CE08000
0018700000
0038380000
00701C0000
00E00E0000
01E0070000
01C0038000
138001E000
1F0000F000
0F00007800
0600003E00
0000001F00
0000000F00
0000000700
0000000000
0000000000
0000000000
0000000000
0000000000
0000000000
0000000000
0000000000
0000000000
ENDCHAR

STARTCHAR Ca5da
ENCODING 42458
SWIDTH 1000 0
DWIDTH 34 0
BBX 34 34 0 -6
BITMAP
0000000000
0000000000
0000000000
0000000000
0000000000
0000008000
000003E000
0000023000
0000021000
0003823000
0007C36000
000CE0C000
0018700000
0038380000
00701C0000
00E00E0000
01E0070000
01C0038000
138001E000
1F0000F000
0F00007800
0600003E00
0000001F00
0000000F00
0000000700
0000000000
0000000000
0000000000
0000000000
0000000000
0000000000
0000000000
0000000000
0000000000
ENDCHAR

STARTCHAR Ca5db
ENCODING 42459
SWIDTH 1000 0
DWIDTH 34 0
BBX 34 34 0 -6
BITMAP
0000000000
0000000000
0000000000
0003800000
0001E00000
0000E00000
0000E00000
0000600000
0000600000
0000600000
0800600000
0C0063FC00
07FFFFFC00
03FF600000
0080600000
0000600000
0000618000
006060C000
0060606000
0040603000
00C0603800
00C0601C00
01C0601E00
0380600E00
0780600E00
0F08600E00
0F0F600E00
0E03E00000
0401E00000
0000E00000
0000C00000
0000000000
0000000000
0000000000
ENDCHAR

STARTCHAR Ca5dc
ENCODING 42460
SWIDTH 1000 0
DWIDTH 34 0
BBX 34 34 0 -6
BITMAP
0000000000
0000000800
0000000600
0003800300
0001E03300
0000E01900
0000E01C00
0000600C00
0000600400
0000600000
0800600000
0C0063FC00
07FFFFFC00
03FF600000
0080600000
0000600000
0000618000
006060C000
0060606000
0040603000
00C0603800
00C0601C00
01C0601E00
0380600E00
0780600E00
0F08600E00
0F0F600E00
0E03E00000
0401E00000
0000E00000
0000C00000
0000000000
0000000000
0000000000
ENDCHAR

STARTCHAR Ca5dd
ENCODING 42461
SWIDTH 1000 0
DWIDTH 34 0
BBX 34 34 0 -6
BITMAP
0000000000
0000000000
0000000C00
0003801B00
0001E02100
0000E02100
0000E02100
0000601E00
0000600000
0000600000
0800600000
0C0063FC00
07FFFFFC00
03FF600000
0080600000
0000600000
0000618000
006060C000
0060606000
0040603000
00C0603800
00C0601C00
01C0601E00
0380600E00
0780600E00
0F08600E00
0F0F600E00
0E03E00000
0401E00000
0000E00000
0000C00000
0000000000
0000000000
0000000000
ENDCHAR

STARTCHAR Ca5de
ENCODING 42462
SWIDTH 1000 0
DWIDTH 34 0
BBX 34 34 0 -6
BITMAP
0000000000
0000000000
0000000000
0000000000
0000000000
0000000000
0000000000
0000000000
0C00003800
04001FF800
07FFFFBC00
03FE007800
0000007000
000000E000
000001C000
0000018000
0000030000
0030060000
001C0C0000
0007180000
0003B00000
0001C00000
0000E00000
0000700000
0000780000
0000380000
00003C0000
00001C0000
00001C0000
0000000000
0000000000
0000000000
0000000000
0000000000
ENDCHAR

STARTCHAR Ca5df
ENCODING 42463
SWIDTH 1000 0
DWIDTH 34 0
BBX 34 34 0 -6
BITMAP
0000000000
0000000000
0000000000
0000000000
0000000000
0000000000
003FF00000
0001FC0000
00003E0000
00000F0000
0000060000
0000000000
0000000000
007F800000
0007F00000
0000FC0000
00003E0000
00001E0000
0000040000
0000000000
0000000000
00F0000000
003F800000
0003F00000
0000FC0000
00003F0000
00001F8000
0000078000
0000038000
0000018000
0000000000
0000000000
0000000000
0000000000
ENDCHAR

STARTCHAR Ca5e0
ENCODING 42464
SWIDTH 1000 0
DWIDTH 34 0
BBX 34 34 0 -6
BITMAP
0000000000
0000000000
0000000000
0000000000
0002000000
0001C00000
0001E00000
0000E00000
0001E00000
0001C00000
0001C00000
0003800000
0003800000
0007000000
0006000000
00060C0000
000C060000
000C030000
0018038000
001801C000
003000E000
002000E000
0060007000
004003F800
08C0FF3800
0CBFF03C00
0FFF001C00
07F0001C00
0700001C00
0000000000
0000000000
0000000000
0000000000
0000000000
ENDCHAR

STARTCHAR Ca5e1
ENCODING 42465
SWIDTH 1000 0
DWIDTH 34 0
BBX 34 34 0 -6
BITMAP
0000000000
0000000000
0000000000
0000000000
0000040000
0000038000
000003C000
000003C000
0000038000
0000038000
0000078000
0000070000
0030070000
001E0E0000
00078C0000
0001FC0000
0000780000
00003C0000
00007E0000
0000EF0000
0001C78000
000183C000
000301C000
000600C000
000C000000
0038000000
0070000000
00C0000000
0380000000
0600000000
0000000000
0000000000
0000000000
0000000000
ENDCHAR

STARTCHAR Ca5e2
ENCODING 42466
SWIDTH 1000 0
DWIDTH 34 0
BBX 34 34 0 -6
BITMAP
0000000000
0000000000
0000000000
0000000000
0000000000
0000000000
0200070000
038FFF8000
01FFFF8000
00C7000000
0007000000
0007000000
0007000000
0007000000
0007000000
000700F800
0C07FFFC00
0FFFFFF800
07F7000000
0007000000
0007000000
0007000000
0007000000
0007000000
0007000000
0003000000
0003E3F000
0001FFF000
00007FE000
0000000000
0000000000
0000000000
0000000000
0000000000
ENDCHAR

STARTCHAR Ca5e3
ENCODING 42467
SWIDTH 1000 0
DWIDTH 34 0
BBX 34 34 0 -6
BITMAP
0000000000
0000000000
0000000000
0000000000
0000000000
0000000000
0000000000
0000000000
0000000000
001E000000
0007000000
0007000000
0003000000
0003006000
000303F000
00033FF000
030FF0E000
01FF81C000
00F1818000
0001830000
0001C60000
0000CC0000
0000C00000
0000C00000
0000C00000
0000E00000
0000600000
0000600000
0000700000
0000700000
0000700000
0000700000
0000000000
0000000000
ENDCHAR

STARTCHAR Ca5e4
ENCODING 42468
SWIDTH 1000 0
DWIDTH 34 0
BBX 34 34 0 -6
BITMAP
0000000000
0000000000
0000000000
0000000000
003C000000
001E000000
000E000000
0006000000
0006000000
0007003000
0003007C00
000307FC00
0803FE7800
0C3FC07000
07FF80E000
03E180C000
0001818000
0001830000
0001860000
0001CC0000
0000C00000
0000C00000
0000C00000
0000E00000
0000E00000
0000E00000
0000600000
0000700000
0000700000
0000700000
0000700000
0000200000
0000000000
0000000000
ENDCHAR

STARTCHAR Ca5e5
ENCODING 42469
SWIDTH 1000 0
DWIDTH 34 0
BBX 34 34 0 -6
BITMAP
0000000000
0000000000
0000000000
0000000000
0000000000
0000000000
0000000000
0000000000
0000000000
0000000000
0000000000
0000000000
0040030000
003FFF8000
003FF38000
0000038000
0000030000
0000030000
0000030000
0000030000
0000030000
0000030000
0000070000
0000070000
0200063800
03FFFFFC00
01FFFFFC00
0000000000
0000000000
0000000000
0000000000
0000000000
0000000000
0000000000
ENDCHAR

STARTCHAR Ca5e6
ENCODING 42470
SWIDTH 1000 0
DWIDTH 34 0
BBX 34 34 0 -6
BITMAP
0000000000
0000000000
0000000000
0000000000
0000000000
0000000000
0000000000
0000000000
0080018000
00FFFFC000
007FF9E000
003801C000
000001C000
0000018000
0000018000
0000018000
0000018000
0000038000
0000038000
0000038000
0000038000
0000038000
0800030E00
0FFFFFFF00
07FFFFFF00
03E0000000
0000000000
0000000000
0000000000
0000000000
0000000000
0000000000
0000000000
0000000000
ENDCHAR

STARTCHAR Ca5e7
ENCODING 42471
SWIDTH 1000 0
DWIDTH 34 0
BBX 34 34 0 -6
BITMAP
0000000000
0000000000
0000000000
0000000000
0000000000
0000000000
0000000000
0000000000
0000000000
0000000000
0000000000
0040018000
007FFFC000
003FF1C000
000001C000
0000018000
0000018000
0000018000
0010018000
001FFF8000
000F818000
0000018000
0000018000
0000038000
0000038000
0080038000
006003C000
007FFFC000
003E000000
0000000000
0000000000
0000000000
0000000000
0000000000
ENDCHAR

ENDFONT
